SplineFontDB: 3.0
FontName: Patsi
FullName: Patsi
FamilyName: Patsi
Weight: Regular
Copyright: Open Font based on the Handwriting of Patsi
Version: 1.0
ItalicAngle: 0
UnderlinePosition: -175
UnderlineWidth: 90
Ascent: 1556
Descent: 492
InvalidEm: 0
LayerCount: 2
Layer: 0 1 "Back" 1
Layer: 1 1 "Zeichen" 0
XUID: [1021 552 304650948 21202]
StyleMap: 0x0000
FSType: 0
OS2Version: 0
OS2_WeightWidthSlopeOnly: 0
OS2_UseTypoMetrics: 0
CreationTime: 1251383197
ModificationTime: 1511775545
PfmFamily: 17
TTFWeight: 400
TTFWidth: 5
LineGap: 0
VLineGap: 0
Panose: 2 11 6 3 3 8 4 2 2 4
OS2TypoAscent: 1556
OS2TypoAOffset: 0
OS2TypoDescent: -492
OS2TypoDOffset: 0
OS2TypoLinegap: 410
OS2WinAscent: 1901
OS2WinAOffset: 0
OS2WinDescent: 483
OS2WinDOffset: 0
HheadAscent: 1901
HheadAOffset: 0
HheadDescent: -483
HheadDOffset: 0
OS2SubXSize: 1331
OS2SubYSize: 1433
OS2SubXOff: 0
OS2SubYOff: 286
OS2SupXSize: 1331
OS2SupYSize: 1433
OS2SupXOff: 0
OS2SupYOff: 983
OS2StrikeYSize: 102
OS2StrikeYPos: 530
OS2Vendor: 'PfEd'
OS2CodePages: e00001ff.ffff0000
OS2UnicodeRanges: e0000cff.52c7fdff.0a000021.00002000
Lookup: 1 0 0 "'locl' Localized Forms in Latin lookup 0" { "'locl' Localized Forms in Latin lookup 0 subtable"  } ['locl' ('latn' <'MOL ' 'ROM ' > ) ]
Lookup: 6 1 0 "'ccmp' Zeichenzusammensetzung lookup 1" { "'ccmp' Zeichenzusammensetzung lookup 1 subtable"  } ['ccmp' ('arab' <'KUR ' 'SND ' 'URD ' 'dflt' > 'hebr' <'dflt' > 'nko ' <'dflt' > ) ]
Lookup: 6 0 0 "'ccmp' Zeichenzusammensetzung lookup 2" { "'ccmp' Zeichenzusammensetzung lookup 2 subtable"  } ['ccmp' ('cyrl' <'MKD ' 'SRB ' 'dflt' > 'grek' <'dflt' > 'latn' <'ISM ' 'KSM ' 'LSM ' 'MOL ' 'NSM ' 'ROM ' 'SKS ' 'SSM ' 'dflt' > ) ]

StartChar: .notdef
Encoding: 1114112 -1 0
Width: 1229
Flags: W
LayerCount: 2
Fore
SplineSet
102 -362 m 1,0,-1
 102 1444 l 1,1,-1
 1126 1444 l 1,2,-1
 1126 -362 l 1,3,-1
 102 -362 l 1,0,-1
217 -248 m 1,4,-1
 1012 -248 l 1,5,-1
 1012 1329 l 1,6,-1
 217 1329 l 1,7,-1
 217 -248 l 1,4,-1
EndSplineSet
EndChar

StartChar: exclam
Encoding: 33 33 4
Width: 469
GlyphClass: 2
Flags: W
LayerCount: 2
Fore
SplineSet
116.8125 778.309570312 m 0,0,1
 120 835 120 835 137.997070312 1431.63867188 c 0,2,3
 142 1560 142 1560 244.095703125 1552.01953125 c 0,4,5
 339 1544 339 1544 334 1383 c 0,6,7
 313 793 313 793 336 723 c 0,8,9
 374 603 374 603 264.448242188 569.088867188 c 0,10,11
 157 536 157 536 132.711914062 677.4765625 c 0,12,13
 117 770 117 770 116.8125 778.309570312 c 0,0,1
339.474609375 225.17578125 m 0,14,15
 368.33984375 48.4794921875 368.33984375 48.4794921875 277.1484375 10.3203125 c 0,16,17
 215.794921875 -15.078125 215.794921875 -15.078125 177.64453125 49.28515625 c 0,18,19
 121.037109375 143.09375 121.037109375 143.09375 149.729492188 187.456054688 c 0,20,21
 222.51171875 299.036132812 222.51171875 299.036132812 339.474609375 225.17578125 c 0,14,15
116.8125 778.309570312 m 0,22,23
 121 876 121 876 138.1328125 1431.48339844 c 0,24,25
 142 1560 142 1560 244.275390625 1551.8671875 c 0,26,27
 340 1544 340 1544 334.1796875 1382.84765625 c 0,28,29
 313 796 313 796 336.134765625 722.887695312 c 0,30,31
 374 603 374 603 264.586914062 568.932617188 c 0,32,33
 158 536 158 536 132.890625 677.326171875 c 0,34,35
 117 769 117 769 116.8125 778.309570312 c 0,22,23
339.474609375 225.17578125 m 0,36,37
 368.336914062 48.494140625 368.336914062 48.494140625 277.134765625 10.4853515625 c 0,38,39
 216.293945312 -15.1181640625 216.293945312 -15.1181640625 177.627929688 49.4521484375 c 0,40,41
 121.283203125 143.685546875 121.283203125 143.685546875 149.719726562 187.580078125 c 0,42,43
 222.732421875 298.897460938 222.732421875 298.897460938 339.474609375 225.17578125 c 0,36,37
EndSplineSet
EndChar

StartChar: quotedbl
Encoding: 34 34 5
Width: 849
GlyphClass: 2
Flags: W
LayerCount: 2
Fore
SplineSet
708.534179688 1362.12988281 m 0,0,1
 745.650390625 1054.2421875 745.650390625 1054.2421875 747.6171875 1039.50097656 c 0,2,3
 763.4609375 922.068359375 763.4609375 922.068359375 633.967773438 869.834960938 c 0,4,5
 537.151367188 830.495117188 537.151367188 830.495117188 513.951171875 927.005859375 c 0,6,7
 481.415039062 1063.27148438 481.415039062 1063.27148438 481.189453125 1104.5625 c 0,8,9
 481.01953125 1192.91894531 481.01953125 1192.91894531 502 1393 c 0,10,11
 515.231445312 1519.30566406 515.231445312 1519.30566406 632.90625 1506.6953125 c 0,12,13
 760.766601562 1492.7109375 760.766601562 1492.7109375 708.534179688 1362.12988281 c 0,0,1
308.80078125 837.581054688 m 1,14,15
 106.932617188 824.61328125 106.932617188 824.61328125 126.168945312 1034.74902344 c 0,16,17
 137.19921875 1155.21484375 137.19921875 1155.21484375 94.5615234375 1363.14550781 c 0,18,19
 78.3779296875 1441.87304688 78.3779296875 1441.87304688 175.310546875 1493.72949219 c 0,20,21
 273.271484375 1545.87890625 273.271484375 1545.87890625 297.680664062 1441.63378906 c 0,22,23
 332.993164062 1290.62695312 332.993164062 1290.62695312 335.241210938 1143.4609375 c 0,24,25
 335.604492188 1119.86035156 335.604492188 1119.86035156 308.80078125 837.581054688 c 1,14,15
708.534179688 1362.12988281 m 0,26,27
 745.8515625 1052.56738281 745.8515625 1052.56738281 747.6171875 1039.31738281 c 0,28,29
 763.46484375 921.848632812 763.46484375 921.848632812 633.967773438 869.696289062 c 0,30,31
 537.078125 830.596679688 537.078125 830.596679688 513.951171875 926.8671875 c 0,32,33
 481.415039062 1063.1328125 481.415039062 1063.1328125 481.189453125 1104.37792969 c 0,34,35
 481.01953125 1192.734375 481.01953125 1192.734375 502 1392.81542969 c 0,36,37
 515.254882812 1519.11914062 515.254882812 1519.11914062 632.90625 1506.51074219 c 0,38,39
 760.956054688 1493.18359375 760.956054688 1493.18359375 708.534179688 1362.12988281 c 0,26,27
308.80078125 837.581054688 m 1,40,41
 106.93359375 824.62890625 106.93359375 824.62890625 126.168945312 1034.74902344 c 0,42,43
 137.19921875 1155.21484375 137.19921875 1155.21484375 94.5615234375 1363.14550781 c 0,44,45
 78.45703125 1441.35058594 78.45703125 1441.35058594 175.310546875 1493.72949219 c 0,46,47
 273.205078125 1546.16113281 273.205078125 1546.16113281 297.680664062 1441.63378906 c 0,48,49
 332.997070312 1290.60644531 332.997070312 1290.60644531 335.241210938 1143.4609375 c 0,50,51
 335.641601562 1120.25390625 335.641601562 1120.25390625 308.80078125 837.581054688 c 1,40,41
EndSplineSet
EndChar

StartChar: numbersign
Encoding: 35 35 6
Width: 1716
GlyphClass: 2
Flags: W
LayerCount: 2
Fore
SplineSet
1047 901 m 1,0,-1
 756 901 l 1,1,-1
 672 567 l 1,2,-1
 965 567 l 1,3,-1
 1047 901 l 1,0,-1
897 1470 m 1,4,-1
 793 1055 l 1,5,-1
 1085 1055 l 1,6,-1
 1190 1470 l 1,7,-1
 1350 1470 l 1,8,-1
 1247 1055 l 1,9,-1
 1559 1055 l 1,10,-1
 1559 901 l 1,11,-1
 1208 901 l 1,12,-1
 1126 567 l 1,13,-1
 1444 567 l 1,14,-1
 1444 414 l 1,15,-1
 1087 414 l 1,16,-1
 983 0 l 1,17,-1
 823 0 l 1,18,-1
 926 414 l 1,19,-1
 633 414 l 1,20,-1
 530 0 l 1,21,-1
 369 0 l 1,22,-1
 473 414 l 1,23,-1
 158 414 l 1,24,-1
 158 567 l 1,25,-1
 510 567 l 1,26,-1
 594 901 l 1,27,-1
 272 901 l 1,28,-1
 272 1055 l 1,29,-1
 633 1055 l 1,30,-1
 735 1470 l 1,31,-1
 897 1470 l 1,4,-1
EndSplineSet
EndChar

StartChar: dollar
Encoding: 36 36 7
Width: 1303
GlyphClass: 2
Flags: W
LayerCount: 2
Fore
SplineSet
692 -301 m 1,0,-1
 592 -301 l 1,1,-1
 591 0 l 1,2,3
 486 2 486 2 381 24.5 c 128,-1,4
 276 47 276 47 170 92 c 1,5,-1
 170 272 l 1,6,7
 272 208 272 208 376.5 175.5 c 128,-1,8
 481 143 481 143 592 142 c 1,9,-1
 592 598 l 1,10,11
 371 634 371 634 270.5 720 c 128,-1,12
 170 806 170 806 170 956 c 0,13,14
 170 1119 170 1119 279 1213 c 128,-1,15
 388 1307 388 1307 592 1321 c 1,16,-1
 592 1556 l 1,17,-1
 692 1556 l 1,18,-1
 692 1324 l 1,19,20
 785 1320 785 1320 872 1304.5 c 128,-1,21
 959 1289 959 1289 1042 1262 c 1,22,-1
 1042 1087 l 1,23,24
 959 1129 959 1129 871.5 1152 c 128,-1,25
 784 1175 784 1175 692 1179 c 1,26,-1
 692 752 l 1,27,28
 919 717 919 717 1026 627 c 128,-1,29
 1133 537 1133 537 1133 381 c 0,30,31
 1133 212 1133 212 1019.5 114.5 c 128,-1,32
 906 17 906 17 692 2 c 1,33,-1
 692 -301 l 1,0,-1
592 770 m 1,34,-1
 592 1180 l 1,35,36
 476 1167 476 1167 415 1114 c 128,-1,37
 354 1061 354 1061 354 973 c 0,38,39
 354 887 354 887 410.5 839 c 128,-1,40
 467 791 467 791 592 770 c 1,34,-1
692 578 m 1,41,-1
 692 145 l 1,42,43
 819 162 819 162 883.5 217 c 128,-1,44
 948 272 948 272 948 362 c 0,45,46
 948 450 948 450 886.5 502 c 128,-1,47
 825 554 825 554 692 578 c 1,41,-1
EndSplineSet
EndChar

StartChar: percent
Encoding: 37 37 8
Width: 1768
GlyphClass: 2
Flags: W
LayerCount: 2
Fore
SplineSet
332.071289062 1203.35839844 m 4,0,1
 327.830078125 1201.90039062 327.830078125 1201.90039062 295.42578125 1119.421875 c 5,2,3
 333.727539062 970.684570312 333.727539062 970.684570312 338.18359375 960.942382812 c 4,4,5
 356.756835938 920.1171875 356.756835938 920.1171875 381.782226562 922.51953125 c 4,6,7
 402.842773438 924.54296875 402.842773438 924.54296875 428.473632812 957.18359375 c 4,8,9
 501.369140625 1050.35058594 501.369140625 1050.35058594 434.186523438 1147.61523438 c 4,10,11
 383.41796875 1220.8984375 383.41796875 1220.8984375 332.071289062 1203.35839844 c 4,0,1
1204.65527344 1358.7578125 m 4,12,13
 1178.62304688 1267.19726562 1178.62304688 1267.19726562 1177.72460938 1264.83496094 c 4,14,15
 1126.48046875 1129.46777344 1126.48046875 1129.46777344 1021.58007812 859.53125 c 4,16,17
 1016.56640625 846.6484375 1016.56640625 846.6484375 992.918945312 788.762695312 c 132,-1,18
 969.271484375 730.876953125 969.271484375 730.876953125 958.205078125 699.23828125 c 4,19,20
 947.272460938 667.921875 947.272460938 667.921875 895.659179688 513.76953125 c 132,-1,21
 844.04296875 359.616210938 844.04296875 359.616210938 813.069335938 278.338867188 c 4,22,23
 792.65625 225.130859375 792.65625 225.130859375 712.620117188 95.427734375 c 4,24,25
 677.689453125 38.697265625 677.689453125 38.697265625 612.774414062 66.4033203125 c 4,26,27
 549.43359375 93.5322265625 549.43359375 93.5322265625 570.487304688 160.272460938 c 4,28,29
 609.06640625 282.491210938 609.06640625 282.491210938 704.21484375 568.024414062 c 4,30,31
 706.245117188 574.055664062 706.245117188 574.055664062 714.634765625 587.243164062 c 132,-1,32
 723.025390625 600.428710938 723.025390625 600.428710938 724.360351562 608.17578125 c 4,33,34
 750.501953125 754.416992188 750.501953125 754.416992188 852.0859375 1003.60449219 c 132,-1,35
 953.66796875 1252.79101562 953.66796875 1252.79101562 978.356445312 1333.21386719 c 4,36,37
 988.1640625 1364.9296875 988.1640625 1364.9296875 989.788085938 1376.85449219 c 4,38,39
 1005.26367188 1483.01757812 1005.26367188 1483.01757812 1096.15722656 1487.40234375 c 4,40,41
 1138.72753906 1489.33007812 1138.72753906 1489.33007812 1171.20996094 1450.65917969 c 4,42,43
 1175.30761719 1445.86523438 1175.30761719 1445.86523438 1204.65527344 1358.7578125 c 4,12,13
624.55859375 1096.40039062 m 4,44,45
 626.05859375 1084.94042969 626.05859375 1084.94042969 618.272460938 968.784179688 c 4,46,47
 615.698242188 930.384765625 615.698242188 930.384765625 590.719726562 897.4296875 c 4,48,49
 533.487304688 821.7421875 533.487304688 821.7421875 485.279296875 781.133789062 c 4,50,51
 321.166992188 642.873046875 321.166992188 642.873046875 196.252929688 817.381835938 c 4,52,53
 31.84375 1046.50390625 31.84375 1046.50390625 113.490234375 1299.45507812 c 4,54,55
 149.556640625 1411.21777344 149.556640625 1411.21777344 240.342773438 1459.87011719 c 4,56,57
 278.63671875 1480.47460938 278.63671875 1480.47460938 280.250976562 1480.87109375 c 4,58,59
 378.354492188 1503.56835938 378.354492188 1503.56835938 444.073242188 1460.13867188 c 4,60,61
 472.588867188 1441.78710938 472.588867188 1441.78710938 524.2265625 1369.90722656 c 4,62,63
 603.326171875 1259.88769531 603.326171875 1259.88769531 624.55859375 1096.40039062 c 4,44,45
1152.34863281 473.609375 m 4,64,65
 1168.94335938 642.298828125 1168.94335938 642.298828125 1174.1171875 663.833007812 c 4,66,67
 1186.18261719 713.763671875 1186.18261719 713.763671875 1247.109375 755.44921875 c 4,68,69
 1323.55175781 807.805664062 1323.55175781 807.805664062 1406.47070312 835.134765625 c 4,70,71
 1489.27050781 862.190429688 1489.27050781 862.190429688 1532.21777344 778.228515625 c 4,72,73
 1624.54492188 596.966796875 1624.54492188 596.966796875 1627.28027344 589.98828125 c 4,74,75
 1737.91210938 309.35546875 1737.91210938 309.35546875 1493.56152344 118.8515625 c 4,76,77
 1330.97070312 -7.826171875 1330.97070312 -7.826171875 1236.52832031 175.203125 c 4,78,79
 1189.24804688 266.89453125 1189.24804688 266.89453125 1186.84765625 275.983398438 c 4,80,81
 1182.93945312 290.720703125 1182.93945312 290.720703125 1152.34863281 473.609375 c 4,64,65
1490.62011719 513.087890625 m 4,82,83
 1488.54296875 534.526367188 1488.54296875 534.526367188 1402.87109375 576.576171875 c 4,84,85
 1395.95800781 579.924804688 1395.95800781 579.924804688 1377.40820312 567.296875 c 132,-1,86
 1358.85742188 554.669921875 1358.85742188 554.669921875 1355.48730469 543.319335938 c 4,87,88
 1350.91796875 528.64453125 1350.91796875 528.64453125 1334.21875 418.31640625 c 5,89,90
 1360.65625 338.004882812 1360.65625 338.004882812 1365.12792969 326.400390625 c 4,91,92
 1365.55273438 325.369140625 1365.55273438 325.369140625 1365.82519531 324.830078125 c 4,93,94
 1372.27539062 311.94140625 1372.27539062 311.94140625 1378.50585938 302.697265625 c 4,95,96
 1389.2890625 286.750976562 1389.2890625 286.750976562 1399.39257812 281.626953125 c 4,97,98
 1423.36230469 269.572265625 1423.36230469 269.572265625 1443.63671875 318.705078125 c 4,99,100
 1450.78125 336 1450.78125 336 1456.84960938 352.887695312 c 4,101,102
 1485.56054688 433.157226562 1485.56054688 433.157226562 1490.23828125 504.190429688 c 4,103,104
 1490.47949219 507.95703125 1490.47949219 507.95703125 1490.65234375 511.696289062 c 4,105,106
 1490.68164062 512.380859375 1490.68164062 512.380859375 1490.62011719 513.087890625 c 4,82,83
EndSplineSet
EndChar

StartChar: ampersand
Encoding: 38 38 9
Width: 1285
GlyphClass: 2
Flags: W
LayerCount: 2
Fore
SplineSet
-149.659179688 2122.89941406 m 1024,0,1
91.4794921875 49.9951171875 m 0,2,3
 152 439 152 439 328.40234375 652.903320312 c 0,4,5
 364 696 364 696 346.592773438 750.114257812 c 0,6,7
 336 782 336 782 306.01953125 838.594726562 c 0,8,9
 292 865 292 865 265.502929688 923.25390625 c 0,10,11
 193 1085 193 1085 192.508789062 1092.15917969 c 0,12,13
 190 1339 190 1339 332.857421875 1488.20019531 c 0,14,15
 383 1541 383 1541 498.49609375 1548.90917969 c 0,16,17
 554 1553 554 1553 695.427734375 1519.58789062 c 0,18,19
 961 1457 961 1457 884.006835938 1165.97460938 c 0,20,21
 839 997 839 997 647.006835938 757.974609375 c 0,22,23
 601 701 601 701 629.9296875 666.928710938 c 0,24,25
 690 595 690 595 805.740234375 500.395507812 c 0,26,27
 827 483 827 483 880.633789062 535.78125 c 0,28,29
 892 547 892 547 906.076171875 578.52734375 c 128,-1,30
 920 610 920 610 931.2734375 621.05859375 c 0,31,32
 978 670 978 670 1012.83300781 663.440429688 c 0,33,34
 1059 655 1059 655 1078.65917969 597.142578125 c 0,35,36
 1095 549 1095 549 1077.99902344 488.649414062 c 0,37,38
 1068 455 1068 455 1043.56738281 394.3515625 c 0,39,40
 1019 334 1019 334 1010.02929688 306.962890625 c 0,41,42
 1002 283 1002 283 1025.45507812 253.118164062 c 0,43,44
 1044 229 1044 229 1092.72558594 173.42578125 c 0,45,46
 1141 118 1141 118 1164.98046875 85.5859375 c 0,47,48
 1169 80 1169 80 1169.5234375 30.6474609375 c 0,49,50
 1170 -8 1170 -8 1124.03027344 -51.6044921875 c 0,51,52
 1100 -74 1100 -74 1058.00683594 -22.025390625 c 0,53,54
 1037 4 1037 4 1015.76074219 29.484375 c 0,55,56
 965 92 965 92 942.802734375 117.270507812 c 0,57,58
 884 185 884 185 843.5390625 108.891601562 c 0,59,60
 741 -81 741 -81 389.4296875 -168.615234375 c 0,61,62
 207 -214 207 -214 115.022460938 -55.021484375 c 0,63,64
 83 0 83 0 91.4794921875 49.9951171875 c 0,2,3
91.4794921875 49.9951171875 m 0,65,66
 152 442 152 442 328.3984375 653.193359375 c 0,67,68
 364 696 364 696 346.586914062 750.403320312 c 0,69,70
 336 782 336 782 307.15625 839.46875 c 0,71,72
 278 897 278 897 265.499023438 923.586914062 c 0,73,74
 193 1074 193 1074 192.502929688 1092.49121094 c 0,75,76
 186 1332 186 1332 332.853515625 1488.4921875 c 0,77,78
 383 1542 383 1542 498.491210938 1549.20019531 c 0,79,80
 554 1553 554 1553 695.423828125 1519.87695312 c 0,81,82
 961 1458 961 1458 884.002929688 1166.265625 c 0,83,84
 839 998 839 998 647.002929688 758.266601562 c 0,85,86
 601 701 601 701 629.926757812 667.21875 c 0,87,88
 706 577 706 577 805.736328125 500.727539062 c 0,89,90
 829 483 829 483 880.62890625 536.073242188 c 0,91,92
 892 548 892 548 905.94921875 578.69140625 c 0,93,94
 920 610 920 610 931.270507812 621.350585938 c 0,95,96
 979 670 979 670 1012.82910156 663.729492188 c 0,97,98
 1059 655 1059 655 1078.65429688 597.43359375 c 0,99,100
 1095 548 1095 548 1077.99511719 488.939453125 c 0,101,102
 1068 456 1068 456 1043.60058594 394.890625 c 0,103,104
 1019 334 1019 334 1010.02441406 307.25390625 c 0,105,106
 1002 283 1002 283 1025.45117188 253.409179688 c 0,107,108
 1065 204 1065 204 1092.89257812 173.38671875 c 0,109,110
 1096 170 1096 170 1164.97753906 85.876953125 c 0,111,112
 1169 81 1169 81 1169.51855469 30.9794921875 c 0,113,114
 1170 -8 1170 -8 1124.02441406 -51.271484375 c 0,115,116
 1108 -66 1108 -66 1058.00195312 -21.693359375 c 0,117,118
 1055 -19 1055 -19 1015.29296875 30.265625 c 0,119,120
 964 93 964 93 942.797851562 117.603515625 c 0,121,122
 884 185 884 185 843.536132812 109.182617188 c 0,123,124
 742 -79 742 -79 389.424804688 -168.28515625 c 0,125,126
 207 -214 207 -214 115.01953125 -54.7294921875 c 0,127,128
 83 0 83 0 91.4794921875 49.9951171875 c 0,65,66
304.219726562 143.84765625 m 0,129,130
 299 9 299 9 437.006835938 37.974609375 c 0,131,132
 586 69 586 69 739.811523438 285.098632812 c 0,133,134
 749 298 749 298 730.9140625 316.157226562 c 0,135,136
 595 452 595 452 552.735351562 485.560546875 c 0,137,138
 538 497 538 497 503.373046875 498.071289062 c 0,139,140
 469 499 469 499 460.712890625 487.380859375 c 0,141,142
 310 282 310 282 304.219726562 143.84765625 c 0,129,130
684.868164062 1156.84570312 m 0,143,144
 677 1293 677 1293 581.833984375 1306.02734375 c 0,145,146
 411 1329 411 1329 371 1146 c 0,147,148
 353 1065 353 1065 434.767578125 905.353515625 c 0,149,150
 472 832 472 832 522.614257812 888.561523438 c 0,151,152
 690 1074 690 1074 684.868164062 1156.84570312 c 0,143,144
304.219726562 143.84765625 m 0,153,154
 299 9 299 9 437.170898438 38.142578125 c 0,155,156
 586 69 586 69 739.975585938 285.267578125 c 0,157,158
 749 298 749 298 731.037109375 316.283203125 c 0,159,160
 606 442 606 442 552.899414062 485.688476562 c 0,161,162
 538 498 538 498 503.412109375 498.196289062 c 0,163,164
 469 499 469 499 460.834960938 487.547851562 c 0,165,166
 310 282 310 282 304.219726562 143.84765625 c 0,153,154
684.868164062 1156.84570312 m 0,167,168
 677 1294 677 1294 581.833984375 1306.02734375 c 0,169,170
 411 1329 411 1329 371 1146 c 0,171,172
 353 1065 353 1065 434.767578125 905.353515625 c 0,173,174
 472 832 472 832 522.614257812 888.561523438 c 0,175,176
 690 1074 690 1074 684.868164062 1156.84570312 c 0,167,168
EndSplineSet
EndChar

StartChar: quotesingle
Encoding: 39 39 10
Width: 563
GlyphClass: 2
Flags: W
LayerCount: 2
Fore
SplineSet
409 1325 m 0,0,1
 363 1059 363 1059 333.879882812 922.174804688 c 0,2,3
 333 918 333 918 235.919921875 854.760742188 c 1,4,5
 199 930 199 930 198.543945312 934.125976562 c 0,6,7
 177 1233 177 1233 181.102539062 1362.19042969 c 0,8,9
 184 1443 184 1443 254.883789062 1504.72460938 c 0,10,11
 269 1517 269 1517 310.716796875 1505.18652344 c 0,12,13
 354 1493 354 1493 369.41015625 1474.17871094 c 0,14,15
 423 1404 423 1404 409 1325 c 0,0,1
409 1325 m 0,16,17
 363 1059 363 1059 333.879882812 922.174804688 c 0,18,19
 333 918 333 918 235.919921875 854.760742188 c 1,20,21
 199 930 199 930 198.543945312 934.125976562 c 0,22,23
 177 1235 177 1235 181.102539062 1362.19042969 c 0,24,25
 184 1443 184 1443 254.883789062 1504.72460938 c 0,26,27
 269 1517 269 1517 310.716796875 1505.18652344 c 0,28,29
 354 1493 354 1493 369.41015625 1474.17871094 c 0,30,31
 423 1404 423 1404 409 1325 c 0,16,17
EndSplineSet
EndChar

StartChar: parenleft
Encoding: 40 40 11
Width: 754
GlyphClass: 2
Flags: W
LayerCount: 2
Fore
SplineSet
197.850585938 437.28125 m 0,0,1
 176.391601562 942.411132812 176.391601562 942.411132812 349.639648438 1307.69140625 c 0,2,3
 376.8828125 1364.69726562 376.8828125 1364.69726562 444.61328125 1475.4453125 c 0,4,5
 518.115234375 1595.47753906 518.115234375 1595.47753906 623.924804688 1519.65332031 c 0,6,7
 708.91015625 1458.79589844 708.91015625 1458.79589844 647 1348 c 0,8,9
 634.413085938 1325.42675781 634.413085938 1325.42675781 605.9921875 1282.96679688 c 128,-1,10
 577.614257812 1240.5546875 577.614257812 1240.5546875 565.360351562 1218.87207031 c 0,11,12
 363.897460938 864.061523438 363.897460938 864.061523438 463.7421875 259.620117188 c 0,13,14
 468.803710938 228.743164062 468.803710938 228.743164062 620.932617188 -158.655273438 c 0,15,16
 671.154296875 -285.915039062 671.154296875 -285.915039062 610.329101562 -329.893554688 c 0,17,18
 510.143554688 -402.49609375 510.143554688 -402.49609375 443.682617188 -289.552734375 c 0,19,20
 348.23046875 -126.870117188 348.23046875 -126.870117188 299.547851562 23.30859375 c 0,21,22
 288.979492188 55.6767578125 288.979492188 55.6767578125 197.850585938 437.28125 c 0,0,1
197.850585938 437.28125 m 0,23,24
 176.390625 942.45703125 176.390625 942.45703125 349.646484375 1307.50683594 c 0,25,26
 376.454101562 1363.84765625 376.454101562 1363.84765625 444.62109375 1475.26269531 c 0,27,28
 518.046875 1594.875 518.046875 1594.875 623.930664062 1519.46875 c 0,29,30
 708.918945312 1458.56640625 708.918945312 1458.56640625 647.004882812 1347.86132812 c 0,31,32
 634.375976562 1325.1953125 634.375976562 1325.1953125 605.999023438 1282.78222656 c 128,-1,33
 577.624023438 1240.32421875 577.624023438 1240.32421875 565.368164062 1218.6875 c 0,34,35
 363.904296875 863.876953125 363.904296875 863.876953125 463.75 259.435546875 c 0,36,37
 468.814453125 228.466796875 468.814453125 228.466796875 620.938476562 -158.793945312 c 0,38,39
 671.161132812 -286.098632812 671.161132812 -286.098632812 610.3359375 -330.078125 c 0,40,41
 510.185546875 -402.401367188 510.185546875 -402.401367188 443.6875 -289.69140625 c 0,42,43
 348.389648438 -127.37109375 348.389648438 -127.37109375 299.552734375 23.169921875 c 0,44,45
 289.0859375 55.3115234375 289.0859375 55.3115234375 197.850585938 437.28125 c 0,23,24
EndSplineSet
EndChar

StartChar: parenright
Encoding: 41 41 12
Width: 703
GlyphClass: 2
Flags: W
LayerCount: 2
Fore
SplineSet
276.112304688 404.981445312 m 0,0,1
 258.334960938 699.845703125 258.334960938 699.845703125 258.55078125 723.721679688 c 0,2,3
 259.090820312 780.958984375 259.090820312 780.958984375 237.8359375 984.984375 c 0,4,5
 219.611328125 1160.78222656 219.611328125 1160.78222656 120.176757812 1284.78515625 c 0,6,7
 86.2158203125 1327.25390625 86.2158203125 1327.25390625 89.4443359375 1449.60253906 c 0,8,9
 92.1640625 1553.37988281 92.1640625 1553.37988281 186.434570312 1516.59570312 c 0,10,11
 280.252929688 1479.94140625 280.252929688 1479.94140625 322.145507812 1434.34667969 c 0,12,13
 460.16796875 1284.24609375 460.16796875 1284.24609375 487.736328125 1004.94628906 c 0,14,15
 490.364257812 978.559570312 490.364257812 978.559570312 500 925 c 128,-1,16
 509.587890625 871.443359375 509.587890625 871.443359375 512.166015625 843.903320312 c 0,17,18
 518.985351562 770.762695312 518.985351562 770.762695312 515.522460938 687.748046875 c 0,19,20
 512.044921875 607.836914062 512.044921875 607.836914062 498.260742188 437.387695312 c 0,21,22
 494.271484375 390.259765625 494.271484375 390.259765625 481.938476562 297.115234375 c 0,23,24
 477.868164062 264.905273438 477.868164062 264.905273438 471.478515625 248.498046875 c 0,25,26
 351.775390625 -61.5849609375 351.775390625 -61.5849609375 308.069335938 -168.142578125 c 0,27,28
 289.30078125 -213.694335938 289.30078125 -213.694335938 231.26171875 -312.879882812 c 0,29,30
 223.200195312 -326.598632812 223.200195312 -326.598632812 196.299804688 -321.080078125 c 0,31,32
 35.220703125 -289.05859375 35.220703125 -289.05859375 97.462890625 -139.150390625 c 0,33,34
 123.828125 -76.0439453125 123.828125 -76.0439453125 174.087890625 13.2880859375 c 0,35,36
 228.983398438 110.887695312 228.983398438 110.887695312 276.112304688 404.981445312 c 0,0,1
276.112304688 404.981445312 m 0,37,38
 258.515625 697.051757812 258.515625 697.051757812 258.750976562 723.889648438 c 0,39,40
 259.298828125 785.0625 259.298828125 785.0625 238.037109375 985.151367188 c 0,41,42
 219.516601562 1161.29980469 219.516601562 1161.29980469 120.375976562 1284.95410156 c 0,43,44
 86.025390625 1327.73339844 86.025390625 1327.73339844 89.6435546875 1449.77148438 c 0,45,46
 92.2763671875 1553.6015625 92.2763671875 1553.6015625 186.587890625 1516.76660156 c 0,47,48
 280.678710938 1480.04394531 280.678710938 1480.04394531 322.344726562 1434.51464844 c 0,49,50
 460.317382812 1284.37304688 460.317382812 1284.37304688 487.935546875 1005.11425781 c 0,51,52
 490.571289062 978.8203125 490.571289062 978.8203125 500.161132812 925.263671875 c 128,-1,53
 509.750976562 871.708007812 509.750976562 871.708007812 512.3203125 844.076171875 c 0,54,55
 519.188476562 770.975585938 519.188476562 770.975585938 515.72265625 687.916992188 c 0,56,57
 512.580078125 612.515625 512.580078125 612.515625 498.459960938 437.556640625 c 0,58,59
 495.190429688 398.934570312 495.190429688 398.934570312 482.138671875 297.283203125 c 0,60,61
 478.069335938 265.07421875 478.069335938 265.07421875 471.677734375 248.666015625 c 0,62,63
 352.5703125 -59.845703125 352.5703125 -59.845703125 308.268554688 -167.973632812 c 0,64,65
 289.612304688 -213.3046875 289.612304688 -213.3046875 231.45703125 -312.7578125 c 0,66,67
 223.479492188 -326.576171875 223.479492188 -326.576171875 196.499023438 -320.912109375 c 0,68,69
 35.0029296875 -288.900390625 35.0029296875 -288.900390625 97.611328125 -139.024414062 c 0,70,71
 125.112304688 -73.4658203125 125.112304688 -73.4658203125 174.241210938 13.4609375 c 0,72,73
 228.983398438 110.887695312 228.983398438 110.887695312 276.112304688 404.981445312 c 0,37,38
EndSplineSet
EndChar

StartChar: asterisk
Encoding: 42 42 13
Width: 1024
GlyphClass: 2
Flags: W
LayerCount: 2
Fore
SplineSet
270.40625 1012.25976562 m 1,0,1
 182.76953125 1058.19726562 182.76953125 1058.19726562 172.037109375 1064.24707031 c 0,2,3
 126.543945312 1089.88183594 126.543945312 1089.88183594 116.529296875 1101.91308594 c 0,4,5
 72.02734375 1155.78027344 72.02734375 1155.78027344 74.7958984375 1178.40722656 c 0,6,7
 78.111328125 1205.71679688 78.111328125 1205.71679688 126.133789062 1266.8984375 c 0,8,9
 165.884765625 1317.17675781 165.884765625 1317.17675781 251.67578125 1254.52539062 c 0,10,11
 303.21875 1216.859375 303.21875 1216.859375 353.326171875 1192.45507812 c 128,-1,12
 403.296875 1168.22167969 403.296875 1168.22167969 400.630859375 1224.41308594 c 0,13,14
 395.982421875 1314.98925781 395.982421875 1314.98925781 401.3828125 1350.87792969 c 0,15,16
 409.893554688 1407.00097656 409.893554688 1407.00097656 440.07421875 1426.96191406 c 0,17,18
 461.436523438 1441.04394531 461.436523438 1441.04394531 515.166992188 1412.29882812 c 0,19,20
 592.481445312 1370.94140625 592.481445312 1370.94140625 588.516601562 1282.96289062 c 0,21,22
 584.72265625 1203.15332031 584.72265625 1203.15332031 659.815429688 1244.16894531 c 0,23,24
 771.172851562 1305.07714844 771.172851562 1305.07714844 794.72265625 1299.64257812 c 0,25,26
 848.965820312 1287.30371094 848.965820312 1287.30371094 856.9296875 1273.11914062 c 0,27,28
 893.331054688 1208.55371094 893.331054688 1208.55371094 869.200195312 1167.67480469 c 0,29,30
 860.723632812 1153.38769531 860.723632812 1153.38769531 757.80859375 1081.30273438 c 0,31,32
 746.426757812 1073.16796875 746.426757812 1073.16796875 724.3125 1055.8046875 c 0,33,34
 713.033203125 1046.95214844 713.033203125 1046.95214844 707.359375 1042.61132812 c 1,35,36
 753.946289062 1000.0234375 753.946289062 1000.0234375 756.407226562 998.724609375 c 0,37,38
 775.958007812 988.470703125 775.958007812 988.470703125 919 921 c 0,39,40
 978.404296875 893.109375 978.404296875 893.109375 950.479492188 835.379882812 c 0,41,42
 899.825195312 731.166015625 899.825195312 731.166015625 792.569335938 761.17578125 c 2,43,-1
 779.546875 767.73828125 l 2,44,45
 760.645507812 812.821289062 760.645507812 812.821289062 683.0234375 839.857421875 c 0,46,47
 642.28125 854.076171875 642.28125 854.076171875 624.815429688 865.731445312 c 0,48,49
 576.109375 898.407226562 576.109375 898.407226562 549.17578125 864.090820312 c 0,50,51
 539.434570312 851.546875 539.434570312 851.546875 541.211914062 802.499023438 c 0,52,53
 541.587890625 792.826171875 541.587890625 792.826171875 546.646484375 749.793945312 c 128,-1,54
 551.705078125 706.795898438 551.705078125 706.795898438 548.799804688 684.408203125 c 0,55,56
 543.0234375 639.120117188 543.0234375 639.120117188 506.587890625 609.452148438 c 0,57,58
 409.620117188 530.326171875 409.620117188 530.326171875 397.349609375 657.987304688 c 0,59,60
 395.50390625 677.298828125 395.50390625 677.298828125 392.49609375 724.706054688 c 128,-1,61
 389.454101562 772.11328125 389.454101562 772.11328125 386.48046875 797.577148438 c 0,62,63
 383.233398438 824.88671875 383.233398438 824.88671875 365.220703125 832.748046875 c 0,64,65
 346.353515625 840.916992188 346.353515625 840.916992188 325.025390625 824.134765625 c 0,66,67
 316.138671875 817.127929688 316.138671875 817.127929688 297.06640625 795.833984375 c 128,-1,68
 277.994140625 774.505859375 277.994140625 774.505859375 265.2109375 766.986328125 c 0,69,70
 228.70703125 745.213867188 228.70703125 745.213867188 196.817382812 755.228515625 c 0,71,72
 177.4375 761.244140625 177.4375 761.244140625 163.936523438 806.56640625 c 0,73,74
 149.512695312 854.486328125 149.512695312 854.486328125 209.83984375 936.0390625 c 0,75,76
 212.7109375 939.901367188 212.7109375 939.901367188 270.40625 1012.25976562 c 1,0,1
270.40625 1012.25976562 m 1,77,78
 183.931640625 1057.58203125 183.931640625 1057.58203125 172.413085938 1064.11035156 c 0,79,80
 126.817382812 1089.84765625 126.817382812 1089.84765625 116.905273438 1101.77636719 c 0,81,82
 72.4033203125 1155.64355469 72.4033203125 1155.64355469 75.171875 1178.27050781 c 0,83,84
 78.453125 1205.51171875 78.453125 1205.51171875 126.509765625 1266.79589844 c 0,85,86
 166.158203125 1317.14257812 166.158203125 1317.14257812 252.051757812 1254.38867188 c 0,87,88
 303.799804688 1216.55175781 303.799804688 1216.55175781 353.736328125 1192.31835938 c 128,-1,89
 403.741210938 1168.1875 403.741210938 1168.1875 401.006835938 1224.31054688 c 0,90,91
 396.392578125 1314.78417969 396.392578125 1314.78417969 401.758789062 1350.74121094 c 0,92,93
 410.030273438 1406.69335938 410.030273438 1406.69335938 440.450195312 1426.859375 c 0,94,95
 461.778320312 1440.87304688 461.778320312 1440.87304688 515.54296875 1412.19628906 c 0,96,97
 592.857421875 1370.77050781 592.857421875 1370.77050781 588.892578125 1282.82617188 c 0,98,99
 585.26953125 1202.98242188 585.26953125 1202.98242188 660.19140625 1244.03222656 c 0,100,101
 771.788085938 1304.87207031 771.788085938 1304.87207031 795.098632812 1299.54003906 c 0,102,103
 849.478515625 1286.82519531 849.478515625 1286.82519531 857.305664062 1272.98242188 c 0,104,105
 893.775390625 1208.34863281 893.775390625 1208.34863281 869.576171875 1167.53808594 c 0,106,107
 861.099609375 1153.25097656 861.099609375 1153.25097656 758.184570312 1081.16601562 c 0,108,109
 752.989257812 1077.54296875 752.989257812 1077.54296875 707.735351562 1042.47460938 c 1,110,111
 754.288085938 999.920898438 754.288085938 999.920898438 756.783203125 998.622070312 c 0,112,113
 782.041992188 985.360351562 782.041992188 985.360351562 919.41015625 920.86328125 c 0,114,115
 978.74609375 892.97265625 978.74609375 892.97265625 950.889648438 835.27734375 c 0,116,117
 900.235351562 730.995117188 900.235351562 730.995117188 792.9453125 761.0390625 c 2,118,-1
 779.922851562 767.6015625 l 2,119,120
 761.021484375 812.71875 761.021484375 812.71875 683.399414062 839.754882812 c 0,121,122
 642.69140625 853.939453125 642.69140625 853.939453125 625.19140625 865.594726562 c 0,123,124
 576.65625 898.338867188 576.65625 898.338867188 549.5859375 863.954101562 c 0,125,126
 539.810546875 851.512695312 539.810546875 851.512695312 541.587890625 802.396484375 c 0,127,128
 541.963867188 792.689453125 541.963867188 792.689453125 547.022460938 749.725585938 c 128,-1,129
 552.081054688 706.727539062 552.081054688 706.727539062 549.17578125 684.305664062 c 0,130,131
 543.43359375 638.983398438 543.43359375 638.983398438 506.963867188 609.315429688 c 0,132,133
 409.825195312 530.12109375 409.825195312 530.12109375 397.725585938 657.884765625 c 0,134,135
 395.879882812 677.196289062 395.879882812 677.196289062 392.872070312 724.603515625 c 128,-1,136
 389.830078125 772.010742188 389.830078125 772.010742188 386.856445312 797.440429688 c 0,137,138
 383.575195312 824.989257812 383.575195312 824.989257812 365.596679688 832.611328125 c 0,139,140
 346.524414062 840.8828125 346.524414062 840.8828125 325.401367188 823.998046875 c 0,141,142
 316.685546875 817.09375 316.685546875 817.09375 297.544921875 795.765625 c 128,-1,143
 278.404296875 774.4375 278.404296875 774.4375 265.586914062 766.849609375 c 0,144,145
 229.083007812 745.077148438 229.083007812 745.077148438 197.193359375 755.091796875 c 0,146,147
 178.189453125 761.004882812 178.189453125 761.004882812 164.3125 806.4296875 c 0,148,149
 149.888671875 854.349609375 149.888671875 854.349609375 210.215820312 935.90234375 c 0,150,151
 216.573242188 944.720703125 216.573242188 944.720703125 270.40625 1012.25976562 c 1,77,78
EndSplineSet
EndChar

StartChar: plus
Encoding: 43 43 14
Width: 1400
GlyphClass: 2
Flags: W
LayerCount: 2
Fore
SplineSet
824.118164062 416.122070312 m 0,0,1
 824.634765625 233.001953125 824.634765625 233.001953125 675.447265625 188.916015625 c 0,2,3
 581.009765625 160.775390625 581.009765625 160.775390625 569.780273438 264.866210938 c 0,4,5
 553.59375 414.415039062 553.59375 414.415039062 573.37890625 467.33984375 c 0,6,7
 593.555664062 521.142578125 593.555664062 521.142578125 545.692382812 561.692382812 c 128,-1,8
 497.831054688 602.2421875 497.831054688 602.2421875 430.66015625 599.446289062 c 0,9,10
 208.313476562 589.600585938 208.313476562 589.600585938 137.423828125 648.265625 c 0,11,12
 54.76953125 716.581054688 54.76953125 716.581054688 79.884765625 786.831054688 c 0,13,14
 107.87109375 865.098632812 107.87109375 865.098632812 223.111328125 854.615234375 c 0,15,16
 380.795898438 840.528320312 380.795898438 840.528320312 464.11328125 843.356445312 c 0,17,18
 612.122070312 848.153320312 612.122070312 848.153320312 551 978 c 0,19,20
 512.114257812 1060.546875 512.114257812 1060.546875 593.3125 1243.96582031 c 0,21,22
 611.90234375 1287.09960938 611.90234375 1287.09960938 671.01171875 1280.06640625 c 128,-1,23
 730.120117188 1273.03320312 730.120117188 1273.03320312 753.935546875 1222.97070312 c 0,24,25
 805.87890625 1114.17089844 805.87890625 1114.17089844 819.642578125 991.658203125 c 0,26,27
 833.64453125 867.294921875 833.64453125 867.294921875 948.010742188 876.625 c 0,28,29
 960.032226562 877.560546875 960.032226562 877.560546875 1007.67089844 877.8828125 c 128,-1,30
 1055.30957031 878.204101562 1055.30957031 878.204101562 1079.97851562 883.454101562 c 0,31,32
 1152.1171875 898.728515625 1152.1171875 898.728515625 1302.89355469 802.704101562 c 0,33,34
 1325.95117188 788.491210938 1325.95117188 788.491210938 1318.02832031 747.760742188 c 128,-1,35
 1310.10546875 707.030273438 1310.10546875 707.030273438 1278.62304688 690.254882812 c 0,36,37
 1232.53417969 665.428710938 1232.53417969 665.428710938 1154.22265625 664.138671875 c 0,38,39
 1114.30664062 663.559570312 1114.30664062 663.559570312 1040.94726562 668.501953125 c 128,-1,40
 967.588867188 673.444335938 967.588867188 673.444335938 943.765625 674.197265625 c 0,41,42
 864.982421875 676.772460938 864.982421875 676.772460938 849.54296875 597.370117188 c 0,43,44
 845.94921875 578.728515625 845.94921875 578.728515625 824.118164062 416.122070312 c 0,0,1
824.118164062 416.122070312 m 0,45,46
 824.634765625 233.001953125 824.634765625 233.001953125 675.447265625 188.916015625 c 0,47,48
 580.986328125 160.987304688 580.986328125 160.987304688 569.780273438 264.866210938 c 0,49,50
 553.876953125 415.173828125 553.876953125 415.173828125 573.37890625 467.33984375 c 0,51,52
 593.5625 521.29296875 593.5625 521.29296875 545.733398438 561.83984375 c 128,-1,53
 497.904296875 602.38671875 497.904296875 602.38671875 430.66015625 599.446289062 c 0,54,55
 208.313476562 589.600585938 208.313476562 589.600585938 137.423828125 648.265625 c 0,56,57
 54.611328125 716.712890625 54.611328125 716.712890625 79.884765625 786.831054688 c 0,58,59
 108.23046875 865.35546875 108.23046875 865.35546875 223.111328125 854.615234375 c 0,60,61
 380.795898438 840.528320312 380.795898438 840.528320312 464.11328125 843.356445312 c 0,62,63
 612.122070312 848.153320312 612.122070312 848.153320312 551 978 c 0,64,65
 512.18359375 1060.39648438 512.18359375 1060.39648438 593.3125 1243.96582031 c 0,66,67
 611.90234375 1287.09960938 611.90234375 1287.09960938 671.01171875 1280.06640625 c 128,-1,68
 730.120117188 1273.03320312 730.120117188 1273.03320312 753.935546875 1222.97070312 c 0,69,70
 805.87890625 1114.17089844 805.87890625 1114.17089844 819.642578125 991.658203125 c 0,71,72
 833.64453125 867.294921875 833.64453125 867.294921875 948.010742188 876.625 c 0,73,74
 961.068359375 877.69140625 961.068359375 877.69140625 1008.25390625 877.961914062 c 128,-1,75
 1055.4375 878.232421875 1055.4375 878.232421875 1079.97851562 883.454101562 c 0,76,77
 1152.35449219 898.885742188 1152.35449219 898.885742188 1302.89355469 802.704101562 c 0,78,79
 1326.05859375 788.579101562 1326.05859375 788.579101562 1318.09863281 747.881835938 c 128,-1,80
 1310.13671875 707.182617188 1310.13671875 707.182617188 1278.62304688 690.254882812 c 0,81,82
 1232.78808594 665.692382812 1232.78808594 665.692382812 1154.22265625 664.138671875 c 0,83,84
 1113.91308594 663.447265625 1113.91308594 663.447265625 1039.609375 668.455078125 c 128,-1,85
 965.305664062 673.459960938 965.305664062 673.459960938 943.765625 674.197265625 c 0,86,87
 864.982421875 676.772460938 864.982421875 676.772460938 849.54296875 597.370117188 c 0,88,89
 845.825195312 577.799804688 845.825195312 577.799804688 824.118164062 416.122070312 c 0,45,46
EndSplineSet
EndChar

StartChar: comma
Encoding: 44 44 15
Width: 590
GlyphClass: 2
Flags: W
LayerCount: 2
Fore
SplineSet
210.969726562 308.970703125 m 0,0,1
 255 296 255 296 256.05078125 295.8203125 c 0,2,3
 451 145 451 145 496.038085938 16.0576171875 c 0,4,5
 502 -2 502 -2 482.010742188 -50.8486328125 c 0,6,7
 426 -183 426 -183 193.896484375 -288.806640625 c 0,8,9
 156 -306 156 -306 98.4736328125 -233.481445312 c 0,10,11
 46 -168 46 -168 122.8828125 -119.970703125 c 0,12,13
 220 -61 220 -61 149 64 c 0,14,15
 107 139 107 139 122.560546875 238.280273438 c 0,16,17
 137 330 137 330 210.969726562 308.970703125 c 0,0,1
210.969726562 308.970703125 m 0,18,19
 256 296 256 296 256.05078125 295.451171875 c 0,20,21
 450 145 450 145 496.038085938 15.734375 c 0,22,23
 502 -2 502 -2 482.010742188 -51.2177734375 c 0,24,25
 426 -186 426 -186 193.896484375 -289.12890625 c 0,26,27
 156 -306 156 -306 98.4736328125 -233.850585938 c 0,28,29
 46 -168 46 -168 122.8828125 -120.33984375 c 0,30,31
 219 -62 219 -62 149 63.6767578125 c 0,32,33
 107 139 107 139 122.560546875 237.95703125 c 0,34,35
 137 330 137 330 210.969726562 308.970703125 c 0,18,19
EndSplineSet
EndChar

StartChar: hyphen
Encoding: 45 45 16
Width: 795
GlyphClass: 2
Flags: W
LayerCount: 2
Fore
SplineSet
221 830 m 0,0,1
 553 830 553 830 625.995117188 829.7265625 c 0,2,3
 718 830 718 830 709.188476562 760.95703125 c 0,4,5
 704 717 704 717 617.7578125 703.056640625 c 0,6,7
 531 689 531 689 375.526367188 689.008789062 c 0,8,9
 368 689 368 689 299.868164062 681.297851562 c 0,10,11
 247 676 247 676 219.22265625 673.59375 c 0,12,13
 94 666 94 666 98.36328125 762.973632812 c 0,14,15
 101 830 101 830 221 830 c 0,0,1
221 830 m 0,16,17
 576 830 576 830 625.858398438 829.86328125 c 0,18,19
 718 830 718 830 709.051757812 761.09375 c 0,20,21
 701 701 701 701 617.62109375 703.193359375 c 0,22,23
 536 706 536 706 375.389648438 689.145507812 c 0,24,25
 374 689 374 689 299.7578125 681.428710938 c 0,26,27
 247 676 247 676 219.120117188 673.73046875 c 0,28,29
 94 666 94 666 98.2265625 763.110351562 c 0,30,31
 101 830 101 830 221 830 c 0,16,17
EndSplineSet
EndChar

StartChar: period
Encoding: 46 46 17
Width: 563
GlyphClass: 2
Flags: W
LayerCount: 2
Fore
SplineSet
158.568359375 127.690429688 m 0,0,1
 159.087890625 174.908203125 159.087890625 174.908203125 207 242 c 128,-1,2
 254.913085938 309.08984375 254.913085938 309.08984375 285.415039062 305.384765625 c 0,3,4
 415.5 290.590820312 415.5 290.590820312 412.030273438 135.534179688 c 0,5,6
 409.005859375 3.0087890625 409.005859375 3.0087890625 247.669921875 7.1650390625 c 0,7,8
 157.166015625 9.529296875 157.166015625 9.529296875 158.568359375 127.690429688 c 0,0,1
158.568359375 127.690429688 m 0,9,10
 159.087890625 174.76953125 159.087890625 174.76953125 207 241.861328125 c 128,-1,11
 254.913085938 308.951171875 254.913085938 308.951171875 285.415039062 305.384765625 c 0,12,13
 415.500976562 290.651367188 415.500976562 290.651367188 412.030273438 135.534179688 c 0,14,15
 409.005859375 3.0087890625 409.005859375 3.0087890625 247.669921875 7.1650390625 c 0,16,17
 157.166015625 9.529296875 157.166015625 9.529296875 158.568359375 127.690429688 c 0,9,10
EndSplineSet
EndChar

StartChar: slash
Encoding: 47 47 18
Width: 892
GlyphClass: 2
Flags: W
LayerCount: 2
Fore
SplineSet
104.419921875 -104.856445312 m 0,1,2
 191.04296875 208.0625 191.04296875 208.0625 195.736328125 222.84765625 c 0,3,4
 222.924804688 308.875 222.924804688 308.875 343.467773438 682.231445312 c 128,-1,5
 464.01171875 1055.58789062 464.01171875 1055.58789062 525.1484375 1257.73339844 c 0,6,7
 590.227539062 1473.87988281 590.227539062 1473.87988281 590.901367188 1474.69628906 c 0,8,9
 647.916992188 1543.71289062 647.916992188 1543.71289062 683.047851562 1521.80761719 c 0,10,11
 796.015625 1451.16210938 796.015625 1451.16210938 786.130859375 1400.45214844 c 0,12,13
 776.826171875 1352.515625 776.826171875 1352.515625 744.41015625 1259.24804688 c 0,14,15
 728.092773438 1212.30273438 728.092773438 1212.30273438 720.79296875 1188.61230469 c 0,16,17
 712.000976562 1159.97558594 712.000976562 1159.97558594 680 1052 c 128,-1,18
 648 944.0234375 648 944.0234375 629.107421875 886.008789062 c 0,19,20
 617.030273438 848.961914062 617.030273438 848.961914062 552.405273438 660.603515625 c 128,-1,21
 487.780273438 472.247070312 487.780273438 472.247070312 458.42578125 370.180664062 c 0,22,23
 448.658203125 336.1953125 448.658203125 336.1953125 343.900390625 -113.208984375 c 0,24,25
 337.931640625 -147.051757812 337.931640625 -147.051757812 336.563476562 -153.306640625 c 0,26,27
 309.000976562 -282.6015625 309.000976562 -282.6015625 211.609375 -276.922851562 c 0,28,29
 102.43359375 -270.594726562 102.43359375 -270.594726562 104.419921875 -104.856445312 c 0,1,2
104.419921875 -104.856445312 m 0,30,31
 191.430664062 209.462890625 191.430664062 209.462890625 195.736328125 223.032226562 c 0,32,33
 222.924804688 309.059570312 222.924804688 309.059570312 343.467773438 682.416015625 c 128,-1,34
 464.01171875 1055.77246094 464.01171875 1055.77246094 525.1484375 1257.91796875 c 0,35,36
 590.2265625 1474.06054688 590.2265625 1474.06054688 590.901367188 1474.88085938 c 0,37,38
 648.022460938 1543.91894531 648.022460938 1543.91894531 683.047851562 1521.9921875 c 0,39,40
 795.940429688 1450.94824219 795.940429688 1450.94824219 786.130859375 1400.59082031 c 0,41,42
 785.96875 1399.7578125 785.96875 1399.7578125 720.79296875 1188.796875 c 0,43,44
 712.0859375 1160.42675781 712.0859375 1160.42675781 680.048828125 1052.32617188 c 128,-1,45
 648.012695312 944.224609375 648.012695312 944.224609375 629.107421875 886.147460938 c 0,46,47
 617.127929688 849.408203125 617.127929688 849.408203125 552.458007812 660.870117188 c 128,-1,48
 487.7890625 472.331054688 487.7890625 472.331054688 458.42578125 370.319335938 c 0,49,50
 448.61328125 336.188476562 448.61328125 336.188476562 343.900390625 -113.024414062 c 0,51,52
 337.682617188 -147.686523438 337.682617188 -147.686523438 336.563476562 -153.16796875 c 0,53,54
 309.05859375 -282.11328125 309.05859375 -282.11328125 211.609375 -276.73828125 c 0,55,56
 102.430664062 -271.114257812 102.430664062 -271.114257812 104.419921875 -104.856445312 c 0,30,31
EndSplineSet
EndChar

StartChar: zero
Encoding: 48 48 19
Width: 1159
GlyphClass: 2
Flags: W
LayerCount: 2
Fore
SplineSet
546.868164062 1512.55175781 m 0,0,1
 937.833984375 1521.59570312 937.833984375 1521.59570312 987.252929688 1134.45898438 c 0,2,3
 992.09765625 1096.39160156 992.09765625 1096.39160156 1020.38378906 966.361328125 c 128,-1,4
 1048.62207031 836.33203125 1048.62207031 836.33203125 1047.65332031 765.780273438 c 0,5,6
 1038.97851562 133.534179688 1038.97851562 133.534179688 497.7265625 18.177734375 c 0,7,8
 281.41015625 -28.2412109375 281.41015625 -28.2412109375 193.739257812 171.463867188 c 0,9,10
 62.83203125 469.959960938 62.83203125 469.959960938 113.8203125 919.25 c 0,11,12
 132.922851562 1087.43945312 132.922851562 1087.43945312 202.920898438 1265.734375 c 0,13,14
 297.790039062 1506.64550781 297.790039062 1506.64550781 546.868164062 1512.55175781 c 0,0,1
546.868164062 1512.55175781 m 0,15,16
 937.46484375 1521.59570312 937.46484375 1521.59570312 987.4375 1134.3203125 c 0,17,18
 992.282226562 1096.11523438 992.282226562 1096.11523438 1020.52148438 966.130859375 c 128,-1,19
 1048.71484375 836.193359375 1048.71484375 836.193359375 1047.83789062 765.641601562 c 0,20,21
 1039.1171875 133.442382812 1039.1171875 133.442382812 497.864257812 17.9931640625 c 0,22,23
 281.640625 -28.333984375 281.640625 -28.333984375 193.876953125 171.279296875 c 0,24,25
 62.970703125 469.360351562 62.970703125 469.360351562 114.004882812 919.065429688 c 0,26,27
 133.061523438 1087.30175781 133.061523438 1087.30175781 203.10546875 1265.55078125 c 0,28,29
 297.698242188 1506.64550781 297.698242188 1506.64550781 546.868164062 1512.55175781 c 0,15,16
856.485351562 815.798828125 m 0,30,31
 854.870117188 992.755859375 854.870117188 992.755859375 705.598632812 1175.80273438 c 0,32,33
 602.700195312 1302.27929688 602.700195312 1302.27929688 500.125976562 1215.39355469 c 0,34,35
 351.823242188 1089.83984375 351.823242188 1089.83984375 334.197265625 914.8203125 c 0,36,37
 296.40625 545.541015625 296.40625 545.541015625 369.357421875 330.701171875 c 0,38,39
 428.743164062 155.913085938 428.743164062 155.913085938 574 244 c 0,40,41
 868.57421875 422.017578125 868.57421875 422.017578125 856.485351562 815.798828125 c 0,30,31
856.485351562 815.798828125 m 0,42,43
 854.870117188 992.939453125 854.870117188 992.939453125 705.598632812 1175.94140625 c 0,44,45
 602.5625 1302.37207031 602.5625 1302.37207031 500.125976562 1215.53125 c 0,46,47
 352.053710938 1090.11621094 352.053710938 1090.11621094 334.197265625 914.958984375 c 0,48,49
 296.590820312 545.080078125 296.590820312 545.080078125 369.357421875 330.885742188 c 0,50,51
 428.743164062 156.09765625 428.743164062 156.09765625 574 244.184570312 c 0,52,53
 868.57421875 421.92578125 868.57421875 421.92578125 856.485351562 815.798828125 c 0,42,43
EndSplineSet
EndChar

StartChar: one
Encoding: 49 49 20
Width: 935
GlyphClass: 2
Flags: W
LayerCount: 2
Fore
SplineSet
566.001953125 1191.48046875 m 0,0,1
 453 1032 453 1032 451.514648438 1029.64941406 c 0,2,3
 330 862 330 862 210 742 c 0,4,5
 207 739 207 739 104.4609375 711.293945312 c 1,6,7
 90 816 90 816 91.8427734375 818.975585938 c 0,8,9
 132 890 132 890 214.939453125 1018.74902344 c 0,10,11
 298 1148 298 1148 311.869140625 1170.09277344 c 0,12,13
 465 1414 465 1414 465.180664062 1414.89355469 c 0,14,15
 491.360351562 1485.5703125 491.360351562 1485.5703125 512 1500 c 0,16,17
 732 1648 732 1648 768 1350 c 0,18,19
 808.779296875 999.618164062 808.779296875 999.618164062 799.69921875 460.029296875 c 0,20,21
 797 297 797 297 760.805664062 108.090820312 c 0,22,23
 741 3 741 3 670.739257812 30.82421875 c 0,24,25
 603 57 603 57 552.04296875 133.471679688 c 0,26,27
 538 155 538 155 546.25 243.518554688 c 0,28,29
 556 362 556 362 572.017578125 494.8671875 c 0,30,31
 600 737 600 737 601.080078125 748.309570312 c 0,32,33
 617 987 617 987 602.215820312 1171.08691406 c 0,34,35
 597 1235 597 1235 566.001953125 1191.48046875 c 0,0,1
760.944335938 108.083984375 m 1024,36,37
EndSplineSet
EndChar

StartChar: two
Encoding: 50 50 21
Width: 1255
GlyphClass: 2
Flags: W
LayerCount: 2
Fore
SplineSet
677.51171875 1546.796875 m 0,0,1
 779 1545 779 1545 972.692382812 1459.64550781 c 0,2,3
 1097 1405 1097 1405 1144 1248 c 0,4,5
 1190 1094 1190 1094 1121.25195312 986.498046875 c 0,6,7
 1090 938 1090 938 652.651367188 380.741210938 c 0,8,9
 605 320 605 320 613.564453125 293.940429688 c 0,10,11
 624 260 624 260 696.544921875 250.0625 c 0,12,13
 791 237 791 237 982.552734375 222.547851562 c 0,14,15
 1093 214 1093 214 1095.45800781 116.243164062 c 0,16,17
 1098 19 1098 19 976.106445312 11.0859375 c 0,18,19
 931 8 931 8 754.2109375 7.6943359375 c 0,20,21
 409 7 409 7 350.265625 11.654296875 c 0,22,23
 259 19 259 19 212.168945312 95.9521484375 c 0,24,25
 181 146 181 146 248.018554688 230.471679688 c 0,26,27
 276 266 276 266 340.1640625 324.518554688 c 0,28,29
 404 383 404 383 429.979492188 413.168945312 c 0,30,31
 535 536 535 536 738.153320312 794.979492188 c 0,32,33
 870 964 870 964 893.2421875 1011.70800781 c 0,34,35
 970 1173 970 1173 791.172851562 1254.3046875 c 0,36,37
 629 1328 629 1328 460.624023438 1294.90234375 c 0,38,39
 304 1265 304 1265 299.91015625 1095.52148438 c 0,40,41
 298 1006 298 1006 254.268554688 892.618164062 c 0,42,43
 236 844 236 844 166.842773438 855.977539062 c 0,44,45
 99 868 99 868 95.61328125 944.241210938 c 0,46,47
 87 1181 87 1181 148.061523438 1340.37011719 c 0,48,49
 234 1562 234 1562 456.2265625 1550.34765625 c 0,50,51
 463 1550 463 1550 677.51171875 1546.796875 c 0,0,1
677.51171875 1546.796875 m 0,52,53
 776 1545 776 1545 972.361328125 1459.36328125 c 0,54,55
 1097 1405 1097 1405 1143.66601562 1247.67578125 c 0,56,57
 1189 1093 1189 1093 1120.91796875 986.171875 c 0,58,59
 1094 944 1094 944 652.31640625 380.416015625 c 0,60,61
 605 320 605 320 613.189453125 293.662109375 c 0,62,63
 624 260 624 260 696.170898438 249.786132812 c 0,64,65
 791 237 791 237 982.22265625 222.267578125 c 0,66,67
 1092 214 1092 214 1095.08300781 115.965820312 c 0,68,69
 1098 19 1098 19 975.731445312 10.80859375 c 0,70,71
 928 8 928 8 753.880859375 7.4140625 c 0,72,73
 405 7 405 7 349.930664062 11.3291015625 c 0,74,75
 259 19 259 19 211.834960938 95.6279296875 c 0,76,77
 181 146 181 146 247.6875 230.19140625 c 0,78,79
 276 266 276 266 339.735351562 324.114257812 c 0,80,81
 404 383 404 383 429.6484375 412.888671875 c 0,82,83
 530 530 530 530 737.774414062 794.659179688 c 0,84,85
 870 964 870 964 892.912109375 1011.42578125 c 0,86,87
 970 1173 970 1173 790.798828125 1254.02832031 c 0,88,89
 629 1327 629 1327 460.290039062 1294.578125 c 0,90,91
 304 1264 304 1264 299.575195312 1095.19824219 c 0,92,93
 297 1002 297 1002 253.934570312 892.29296875 c 0,94,95
 235 844 235 844 166.5078125 855.653320312 c 0,96,97
 98 867 98 867 95.283203125 943.9609375 c 0,98,99
 86 1180 86 1180 147.727539062 1340.04589844 c 0,100,101
 229 1552 229 1552 455.852539062 1550.07128906 c 0,102,103
 467 1550 467 1550 677.51171875 1546.796875 c 0,52,53
EndSplineSet
EndChar

StartChar: three
Encoding: 51 51 22
Width: 1162
GlyphClass: 2
Flags: W
LayerCount: 2
Fore
SplineSet
586 1548 m 0,0,1
 736 1548 736 1548 769.112304688 1539.79199219 c 0,2,3
 960 1494 960 1494 967.040039062 1284.43652344 c 0,4,5
 972 1116 972 1116 828.565429688 959.317382812 c 0,6,7
 775 901 775 901 841.100585938 863.940429688 c 0,8,9
 1206 659 1206 659 950.443359375 258.71875 c 0,10,11
 701 -133 701 -133 259.176757812 110.203125 c 0,12,13
 103 196 103 196 110.428710938 330.908203125 c 0,14,15
 114 396 114 396 173.79296875 382.543945312 c 0,16,17
 251 365 251 365 286.475585938 340.958984375 c 0,18,19
 603 121 603 121 795.25390625 451.079101562 c 0,20,21
 835 519 835 519 790.71875 572.043945312 c 0,22,23
 678 708 678 708 526.012695312 683.482421875 c 0,24,25
 462 673 462 673 445.703125 681.020507812 c 0,26,27
 332 736 332 736 333.80859375 760.98828125 c 0,28,29
 345 894 345 894 414.36328125 917.272460938 c 0,30,31
 571 969 571 969 652.606445312 1045.859375 c 0,32,33
 684 1076 684 1076 744.202148438 1249.9140625 c 0,34,35
 754 1278 754 1278 705.599609375 1307.51855469 c 0,36,37
 559 1397 559 1397 382 1286 c 0,38,39
 266 1213 266 1213 220.305664062 1235.36132812 c 0,40,41
 153 1268 153 1268 160.07421875 1345.515625 c 0,42,43
 173 1495 173 1495 348.46875 1525.70898438 c 0,44,45
 477 1548 477 1548 586 1548 c 0,0,1
586 1548 m 0,46,47
 730 1549 730 1549 769.119140625 1540.11621094 c 0,48,49
 960 1495 960 1495 967.046875 1284.75976562 c 0,50,51
 972 1117 972 1117 828.5703125 959.640625 c 0,52,53
 775 901 775 901 841.109375 864.30859375 c 0,54,55
 1206 659 1206 659 950.451171875 259.041992188 c 0,56,57
 702 -130 702 -130 259.182617188 110.525390625 c 0,58,59
 105 194 105 194 110.436523438 331.229492188 c 0,60,61
 113 396 113 396 173.799804688 382.8671875 c 0,62,63
 252 365 252 365 286.482421875 341.282226562 c 0,64,65
 602 122 602 122 795.260742188 451.400390625 c 0,66,67
 835 519 835 519 790.725585938 572.3671875 c 0,68,69
 679 708 679 708 526.018554688 683.8046875 c 0,70,71
 462 674 462 674 445.709960938 681.34375 c 0,72,73
 332 736 332 736 333.813476562 761.3125 c 0,74,75
 345 895 345 895 414.370117188 917.594726562 c 0,76,77
 572 969 572 969 652.61328125 1046.22851562 c 0,78,79
 682 1074 682 1074 744.208984375 1250.23730469 c 0,80,81
 754 1278 754 1278 705.607421875 1307.88769531 c 0,82,83
 560 1398 560 1398 382.006835938 1286.32324219 c 0,84,85
 266 1214 266 1214 220.3125 1235.73046875 c 0,86,87
 153 1268 153 1268 160.08203125 1345.88476562 c 0,88,89
 173 1497 173 1497 348.475585938 1526.03222656 c 0,90,91
 473 1547 473 1547 586 1548 c 0,46,47
EndSplineSet
EndChar

StartChar: four
Encoding: 52 52 23
Width: 1315
GlyphClass: 2
Flags: W
LayerCount: 2
Fore
SplineSet
389.421875 1015.89746094 m 0,0,1
 388.487304688 974.00390625 388.487304688 974.00390625 387.466796875 964.901367188 c 0,2,3
 369.505859375 813.147460938 369.505859375 813.147460938 418.302734375 784.635742188 c 128,-1,4
 467.053710938 756.125976562 467.053710938 756.125976562 581.677734375 785.409179688 c 0,5,6
 638.627929688 792.352539062 638.627929688 792.352539062 640 837 c 0,7,8
 642.043945312 902.540039062 642.043945312 902.540039062 630.31640625 1088.16210938 c 0,9,10
 629.778320312 1098.66796875 629.778320312 1098.66796875 624.08203125 1118.52832031 c 0,11,12
 603.080078125 1294.234375 603.080078125 1294.234375 721.736328125 1312.63769531 c 0,13,14
 856.065429688 1333.67578125 856.065429688 1333.67578125 869.908203125 1177.06054688 c 0,15,16
 882.733398438 1028.29101562 882.733398438 1028.29101562 883.061523438 882.205078125 c 0,17,18
 883.900390625 735.037109375 883.900390625 735.037109375 1024.69433594 723.483398438 c 0,19,20
 1045.58984375 721.748046875 1045.58984375 721.748046875 1083.98046875 716.4765625 c 128,-1,21
 1122.37207031 711.206054688 1122.37207031 711.206054688 1136.16308594 709.669921875 c 0,22,23
 1231.75195312 699.37109375 1231.75195312 699.37109375 1201.14453125 615.28515625 c 0,24,25
 1188.98144531 581.1484375 1188.98144531 581.1484375 1107.88867188 540.698242188 c 0,26,27
 1097.08496094 535.137695312 1097.08496094 535.137695312 1065.64746094 544.41796875 c 0,28,29
 887.865234375 566.173828125 887.865234375 566.173828125 880.166015625 411.3203125 c 0,30,31
 878.409179688 375.278320312 878.409179688 375.278320312 871.162109375 277.532226562 c 128,-1,32
 863.87109375 179.7890625 863.87109375 179.7890625 862.6484375 126.40625 c 0,33,34
 860.140625 31.607421875 860.140625 31.607421875 805.826171875 28.111328125 c 0,35,36
 670.168945312 19.6884765625 670.168945312 19.6884765625 642.29296875 97.724609375 c 0,37,38
 632.365234375 125.887695312 632.365234375 125.887695312 632.051757812 198.08203125 c 0,39,40
 631.967773438 245.513671875 631.967773438 245.513671875 633.4296875 333.983398438 c 128,-1,41
 634.845703125 422.455078125 634.845703125 422.455078125 634.997070312 461.010742188 c 0,42,43
 635.178710938 546.393554688 635.178710938 546.393554688 536.59765625 540.049804688 c 0,44,45
 255.689453125 522.3984375 255.689453125 522.3984375 139.827148438 595.643554688 c 0,46,47
 86.396484375 629.424804688 86.396484375 629.424804688 95.4296875 691.954101562 c 0,48,49
 108.166015625 779.452148438 108.166015625 779.452148438 124.603515625 948.078125 c 128,-1,50
 141.087890625 1116.703125 141.087890625 1116.703125 151.794921875 1195.28027344 c 0,51,52
 163.245117188 1279.55273438 163.245117188 1279.55273438 212.760742188 1344.99121094 c 0,53,54
 261.837890625 1409.89257812 261.837890625 1409.89257812 341.172851562 1326.55664062 c 0,55,56
 410.46484375 1253.93066406 410.46484375 1253.93066406 399.752929688 1076.29492188 c 0,57,58
 399.546875 1073.53222656 399.546875 1073.53222656 389.421875 1015.89746094 c 0,0,1
389.560546875 1015.89160156 m 2,59,-1
 387.458984375 964.716796875 l 2,60,61
 369.501953125 813.055664062 369.501953125 813.055664062 418.298828125 784.54296875 c 128,-1,62
 467.051757812 756.079101562 467.051757812 756.079101562 581.669921875 785.223632812 c 0,63,64
 638.620117188 792.16796875 638.620117188 792.16796875 639.9921875 836.815429688 c 0,65,66
 642.040039062 902.447265625 642.040039062 902.447265625 630.30859375 1087.97851562 c 0,67,68
 629.674804688 1098.39453125 629.674804688 1098.39453125 624.0234375 1118.20800781 c 0,69,70
 603.0703125 1294.00488281 603.0703125 1294.00488281 721.731445312 1312.49902344 c 0,71,72
 856.055664062 1333.4453125 856.055664062 1333.4453125 869.90234375 1176.921875 c 0,73,74
 882.767578125 1028.01269531 882.767578125 1028.01269531 883.053710938 882.021484375 c 0,75,76
 883.892578125 734.852539062 883.892578125 734.852539062 1024.68652344 723.298828125 c 0,77,78
 1045.30664062 721.620117188 1045.30664062 721.620117188 1083.14257812 716.326171875 c 128,-1,79
 1121.02734375 711.076171875 1121.02734375 711.076171875 1136.15625 709.485351562 c 0,80,81
 1231.65332031 699.237304688 1231.65332031 699.237304688 1201.13671875 615.100585938 c 0,82,83
 1188.74023438 580.880859375 1188.74023438 580.880859375 1107.88085938 540.513671875 c 0,84,85
 1096.93847656 534.958984375 1096.93847656 534.958984375 1065.41113281 544.290039062 c 0,86,87
 887.866210938 566.219726562 887.866210938 566.219726562 880.158203125 411.135742188 c 0,88,89
 878.40234375 375.09375 878.40234375 375.09375 871.155273438 277.34765625 c 128,-1,90
 863.86328125 179.604492188 863.86328125 179.604492188 862.640625 126.221679688 c 0,91,92
 860.458007812 31.455078125 860.458007812 31.455078125 805.8203125 27.97265625 c 0,93,94
 670.16015625 19.4580078125 670.16015625 19.4580078125 642.28515625 97.5400390625 c 0,95,96
 632.051757812 126.084960938 632.051757812 126.084960938 632.044921875 197.897460938 c 0,97,98
 631.961914062 245.375976562 631.961914062 245.375976562 633.423828125 333.844726562 c 128,-1,99
 634.840820312 422.317382812 634.840820312 422.317382812 634.991210938 460.872070312 c 0,100,101
 635.168945312 546.162109375 635.168945312 546.162109375 536.591796875 539.911132812 c 0,102,103
 255.418945312 522.547851562 255.418945312 522.547851562 139.819335938 595.458984375 c 0,104,105
 86.388671875 629.241210938 86.388671875 629.241210938 95.421875 691.768554688 c 0,106,107
 108.158203125 779.267578125 108.158203125 779.267578125 124.596679688 947.89453125 c 128,-1,108
 141.080078125 1116.51855469 141.080078125 1116.51855469 151.788085938 1195.09570312 c 0,109,110
 163.178710938 1279.04785156 163.178710938 1279.04785156 212.752929688 1344.80664062 c 0,111,112
 261.828125 1409.66210938 261.828125 1409.66210938 341.166992188 1326.41796875 c 0,113,114
 410.45703125 1253.74609375 410.45703125 1253.74609375 399.74609375 1076.11035156 c 0,115,116
 399.744140625 1076.06347656 399.744140625 1076.06347656 389.560546875 1015.89160156 c 2,59,-1
EndSplineSet
EndChar

StartChar: five
Encoding: 53 53 24
Width: 1195
GlyphClass: 2
Flags: W
LayerCount: 2
Fore
SplineSet
523.939453125 961.297851562 m 0,0,1
 936.951171875 1011.78027344 936.951171875 1011.78027344 960.586914062 565.264648438 c 0,2,3
 968.873046875 406.206054688 968.873046875 406.206054688 959.711914062 354.029296875 c 0,4,5
 923.518554688 145.94140625 923.518554688 145.94140625 695.279296875 55.4677734375 c 128,-1,6
 467.086914062 -34.962890625 467.086914062 -34.962890625 302.694335938 45.265625 c 0,7,8
 162.991210938 113.134765625 162.991210938 113.134765625 133.469726562 160.234375 c 0,9,10
 94.7666015625 221.844726562 94.7666015625 221.844726562 97.9775390625 251.61328125 c 0,11,12
 98.9931640625 260.798828125 98.9931640625 260.798828125 144.774414062 368.677734375 c 1,13,14
 247.325195312 317.64453125 247.325195312 317.64453125 251.48046875 313.395507812 c 0,15,16
 438.5546875 121.46875 438.5546875 121.46875 644.942382812 265.736328125 c 0,17,18
 842.142578125 403.440429688 842.142578125 403.440429688 705.278320312 622.590820312 c 0,19,20
 581.1328125 820.939453125 581.1328125 820.939453125 387.026367188 682.372070312 c 0,21,22
 377.741210938 675.720703125 377.741210938 675.720703125 152.801757812 660.20703125 c 0,23,24
 103.375 657.247070312 103.375 657.247070312 112 776 c 0,25,26
 117.955078125 856.358398438 117.955078125 856.358398438 137.2265625 1004.79394531 c 128,-1,27
 156.497070312 1153.18359375 156.497070312 1153.18359375 160.376953125 1188.36914062 c 0,28,29
 179.869140625 1364.2421875 179.869140625 1364.2421875 341.928710938 1333.91308594 c 0,30,31
 378.848632812 1327.16503906 378.848632812 1327.16503906 383.858398438 1344.265625 c 0,32,33
 401.541992188 1403.50585938 401.541992188 1403.50585938 524.38671875 1397.01171875 c 0,34,35
 584.240234375 1393.8046875 584.240234375 1393.8046875 720.833007812 1394.40917969 c 128,-1,36
 857.380859375 1395.0625 857.380859375 1395.0625 929.75 1389.22558594 c 0,37,38
 966.374023438 1386.28222656 966.374023438 1386.28222656 1084.4140625 1316.92773438 c 0,39,40
 1090.09765625 1313.56445312 1090.09765625 1313.56445312 1087.49902344 1287.36621094 c 0,41,42
 958.991210938 1212.93066406 958.991210938 1212.93066406 900.873046875 1205.68945312 c 0,43,44
 846.37890625 1198.80371094 846.37890625 1198.80371094 743.834960938 1194.65917969 c 128,-1,45
 641.291992188 1190.51367188 641.291992188 1190.51367188 618.560546875 1188.94824219 c 0,46,47
 606.546875 1188.13085938 606.546875 1188.13085938 551.029296875 1178.62109375 c 128,-1,48
 495.512695312 1169.11035156 495.512695312 1169.11035156 467.297851562 1173.67089844 c 0,49,50
 383.15234375 1187.22753906 383.15234375 1187.22753906 385.830078125 1097.47363281 c 0,51,52
 389.952148438 958.469726562 389.952148438 958.469726562 523.939453125 961.297851562 c 0,0,1
523.939453125 961.297851562 m 0,53,54
 937.184570312 1011.81347656 937.184570312 1011.81347656 960.752929688 564.932617188 c 0,55,56
 968.979492188 406.477539062 968.979492188 406.477539062 959.877929688 353.696289062 c 0,57,58
 923.689453125 145.701171875 923.689453125 145.701171875 695.453125 55.2734375 c 128,-1,59
 467.21484375 -35.1552734375 467.21484375 -35.1552734375 302.815429688 44.9345703125 c 0,60,61
 163.145507812 112.5703125 163.145507812 112.5703125 133.590820312 159.905273438 c 0,62,63
 94.96484375 222.110351562 94.96484375 222.110351562 98.1416015625 251.233398438 c 0,64,65
 99.33984375 262.07421875 99.33984375 262.07421875 144.940429688 368.344726562 c 1,66,67
 247.491210938 317.311523438 247.491210938 317.311523438 251.6484375 313.061523438 c 0,68,69
 438.608398438 120.772460938 438.608398438 120.772460938 645.061523438 265.360351562 c 0,70,71
 842.243164062 403.573242188 842.243164062 403.573242188 705.446289062 622.258789062 c 0,72,73
 581.252929688 820.610351562 581.252929688 820.610351562 387.19140625 681.9921875 c 0,74,75
 377.954101562 675.384765625 377.954101562 675.384765625 152.967773438 659.873046875 c 0,76,77
 102.897460938 656.1171875 102.897460938 656.1171875 112.165039062 775.62109375 c 0,78,79
 118.166992188 856.024414062 118.166992188 856.024414062 137.455078125 1004.73535156 c 128,-1,80
 156.693359375 1153.40332031 156.693359375 1153.40332031 160.543945312 1188.03515625 c 0,81,82
 180.002929688 1364.18847656 180.002929688 1364.18847656 342.047851562 1333.58398438 c 0,83,84
 379.016601562 1326.83203125 379.016601562 1326.83203125 384.024414062 1343.93164062 c 0,85,86
 401.76953125 1403.44628906 401.76953125 1403.44628906 524.5078125 1396.68164062 c 0,87,88
 584.454101562 1393.47070312 584.454101562 1393.47070312 720.952148438 1394.07910156 c 128,-1,89
 857.498046875 1394.6875 857.498046875 1394.6875 929.91796875 1388.89257812 c 0,90,91
 966.40234375 1385.95800781 966.40234375 1385.95800781 1084.58105469 1316.59375 c 0,92,93
 1090.36328125 1313.36425781 1090.36328125 1313.36425781 1087.71875 1287.16992188 c 0,94,95
 960.135742188 1212.72851562 960.135742188 1212.72851562 900.990234375 1205.3125 c 0,96,97
 846.541992188 1198.42382812 846.541992188 1198.42382812 744.32421875 1194.30859375 c 128,-1,98
 642.059570312 1190.19335938 642.059570312 1190.19335938 618.6796875 1188.57128906 c 0,99,100
 606.89453125 1187.74121094 606.89453125 1187.74121094 551.2890625 1178.28417969 c 128,-1,101
 495.684570312 1168.87109375 495.684570312 1168.87109375 467.41796875 1173.33984375 c 0,102,103
 383.361328125 1186.84667969 383.361328125 1186.84667969 385.94921875 1097.14257812 c 0,104,105
 389.952148438 958.469726562 389.952148438 958.469726562 523.939453125 961.297851562 c 0,53,54
EndSplineSet
EndChar

StartChar: six
Encoding: 54 54 25
Width: 1030
GlyphClass: 2
Flags: W
LayerCount: 2
Fore
SplineSet
935.797851562 477.915039062 m 0,1,2
 878.8671875 232.212890625 878.8671875 232.212890625 870.272460938 212.272460938 c 0,3,4
 807.98046875 68.4130859375 807.98046875 68.4130859375 564.736328125 20.62109375 c 0,5,6
 169.947265625 -57.5400390625 169.947265625 -57.5400390625 119.15234375 333.828125 c 0,7,8
 86.484375 585.502929688 86.484375 585.502929688 110.087890625 699.490234375 c 0,9,10
 167.053710938 976.102539062 167.053710938 976.102539062 246.838867188 1158.98632812 c 0,11,12
 354.06640625 1404.61621094 354.06640625 1404.61621094 511.422851562 1467.03027344 c 0,13,14
 681.889648438 1534.51074219 681.889648438 1534.51074219 737.418945312 1474.16113281 c 0,15,16
 776.392578125 1431.63476562 776.392578125 1431.63476562 767.754882812 1393.46582031 c 0,17,18
 749.483398438 1308.87304688 749.483398438 1308.87304688 710.997070312 1301.75488281 c 0,19,20
 626.905273438 1285.79101562 626.905273438 1285.79101562 418.713867188 1012.2421875 c 0,21,22
 408.89453125 999.336914062 408.89453125 999.336914062 406.099609375 972.89453125 c 128,-1,23
 403.258789062 946.455078125 403.258789062 946.455078125 410.890625 940.923828125 c 0,24,25
 447.90625 914.049804688 447.90625 914.049804688 494.881835938 922.05078125 c 0,26,27
 708.739257812 958.23828125 708.739257812 958.23828125 833.444335938 828.358398438 c 128,-1,28
 958.15234375 698.524414062 958.15234375 698.524414062 935.797851562 477.915039062 c 0,1,2
935.797851562 477.915039062 m 0,29,30
 878.764648438 232.08203125 878.764648438 232.08203125 870.07421875 212.102539062 c 0,31,32
 807.778320312 68.1962890625 807.778320312 68.1962890625 564.541015625 20.4970703125 c 0,33,34
 169.69921875 -57.75390625 169.69921875 -57.75390625 118.958007812 333.704101562 c 0,35,36
 86.349609375 585.559570312 86.349609375 585.559570312 109.936523438 699.317382812 c 0,37,38
 167.198242188 976.18359375 167.198242188 976.18359375 246.641601562 1158.81640625 c 0,39,40
 353.8671875 1404.44628906 353.8671875 1404.44628906 511.270507812 1466.85644531 c 0,41,42
 681.745117188 1534.42871094 681.745117188 1534.42871094 737.223632812 1474.03613281 c 0,43,44
 775.934570312 1431.71679688 775.934570312 1431.71679688 767.560546875 1393.34179688 c 0,45,46
 749.498046875 1309.05761719 749.498046875 1309.05761719 710.798828125 1301.58496094 c 0,47,48
 627.323242188 1285.80566406 627.323242188 1285.80566406 418.515625 1012.07226562 c 0,49,50
 408.743164062 999.163085938 408.743164062 999.163085938 405.948242188 972.720703125 c 128,-1,51
 403.106445312 946.282226562 403.106445312 946.282226562 410.696289062 940.80078125 c 0,52,53
 447.704101562 913.833007812 447.704101562 913.833007812 494.688476562 921.926757812 c 0,54,55
 708.505859375 958.2109375 708.505859375 958.2109375 833.348632812 828.319335938 c 128,-1,56
 958.145507812 698.43359375 958.145507812 698.43359375 935.797851562 477.915039062 c 0,29,30
753.133789062 448.474609375 m 0,57,58
 773.044921875 658.857421875 773.044921875 658.857421875 654 689 c 0,59,60
 507.706054688 725.932617188 507.706054688 725.932617188 381.291992188 668.8046875 c 0,61,62
 313.120117188 629.696289062 313.120117188 629.696289062 321.736328125 484.801757812 c 128,-1,63
 330.395507812 339.857421875 330.395507812 339.857421875 383.081054688 286.572265625 c 0,64,65
 494.428710938 173.950195312 494.428710938 173.950195312 595.826171875 229.506835938 c 0,66,67
 744.225585938 310.463867188 744.225585938 310.463867188 753.133789062 448.474609375 c 0,57,58
753.133789062 448.474609375 m 0,68,69
 773.032226562 658.672851562 773.032226562 658.672851562 654.169921875 688.802734375 c 0,70,71
 508.356445312 725.9765625 508.356445312 725.9765625 381.461914062 668.606445312 c 0,72,73
 313.299804688 629.637695312 313.299804688 629.637695312 321.916992188 484.741210938 c 128,-1,74
 330.576171875 339.796875 330.576171875 339.796875 383.250976562 286.375 c 0,75,76
 494.508789062 173.805664062 494.508789062 173.805664062 595.950195312 229.3125 c 0,77,78
 744.243164062 310.693359375 744.243164062 310.693359375 753.133789062 448.474609375 c 0,68,69
EndSplineSet
EndChar

StartChar: seven
Encoding: 55 55 26
Width: 1237
GlyphClass: 2
Flags: W
LayerCount: 2
Fore
SplineSet
415.750976562 708.243164062 m 1024,0,1
872.571289062 1458.90917969 m 1024,2,3
1032.28125 1133.5546875 m 1024,4,-1
785.116210938 511.741210938 m 1024,5,-1
808 1277 m 1,6,7
 701 1284 701 1284 630.7109375 1281.25097656 c 0,8,9
 567 1279 567 1279 442.5 1273 c 128,-1,10
 318 1267 318 1267 255.8984375 1264.71191406 c 0,11,12
 210 1263 210 1263 157.606445312 1281.5234375 c 0,13,14
 32 1325 32 1325 101.5390625 1434.59667969 c 0,15,16
 117 1459 117 1459 160.547851562 1459.11523438 c 0,17,18
 229 1459 229 1459 417.884765625 1457.03808594 c 0,19,20
 651 1455 651 1455 710.39453125 1456.11816406 c 0,21,22
 743 1457 743 1457 801.266601562 1469.48730469 c 0,23,24
 860 1483 860 1483 879.543945312 1485.02734375 c 0,25,26
 1022 1504 1022 1504 1054.09667969 1475.95703125 c 0,27,28
 1125 1415 1125 1415 1097.4140625 1307.59570312 c 0,29,30
 1084 1254 1084 1254 1039.42089844 1160.21875 c 0,31,32
 995 1066 995 1066 987.122070312 1045.58496094 c 0,33,34
 936 919 936 919 948.783203125 897.6640625 c 0,35,36
 955 887 955 887 1027.65332031 885.958984375 c 0,37,38
 1106 885 1106 885 1127.1484375 870.103515625 c 0,39,40
 1166 841 1166 841 1146.09863281 772.708007812 c 0,41,42
 1116 668 1116 668 997.268554688 683.111328125 c 0,43,44
 843 703 843 703 791.959960938 538.05078125 c 0,45,46
 780 500 780 500 745.147460938 433.116210938 c 0,47,48
 738 419 738 419 701.049804688 345.137695312 c 0,49,50
 699 341 699 341 652 201 c 0,51,52
 613 86 613 86 609.36328125 76.5390625 c 0,53,54
 582 13 582 13 480.990234375 19.2080078125 c 0,55,56
 382 25 382 25 360.486328125 80.5654296875 c 0,57,58
 336 147 336 147 388 221 c 0,59,60
 430 281 430 281 438.94140625 300.958007812 c 0,61,62
 461 349 461 349 507.768554688 459.610351562 c 0,63,64
 554 570 554 570 557.46875 576.732421875 c 0,65,66
 564 593 564 593 578.68359375 619.30859375 c 0,67,68
 614 686 614 686 547.94921875 683.18359375 c 0,69,70
 438 679 438 679 422.595703125 734.552734375 c 0,71,72
 415 763 415 763 444.590820312 874.577148438 c 0,73,74
 449 891 449 891 487.6328125 894.090820312 c 0,75,76
 501 895 501 895 548.34375 887.75 c 0,77,78
 698 865 698 865 730 1027 c 0,79,80
 738 1068 738 1068 808 1277 c 1,6,7
EndSplineSet
EndChar

StartChar: eight
Encoding: 56 56 27
Width: 1037
GlyphClass: 2
Flags: W
LayerCount: 2
Fore
SplineSet
332.60546875 761.061523438 m 0,0,1
 112.370117188 1035.56347656 112.370117188 1035.56347656 112.287109375 1175.59570312 c 0,2,3
 186.188476562 1302.56835938 186.188476562 1302.56835938 189.370117188 1307.06640625 c 0,4,5
 257.154296875 1402.23046875 257.154296875 1402.23046875 390.926757812 1445.0078125 c 0,6,7
 547.053710938 1495.17773438 547.053710938 1495.17773438 759.3984375 1312.27148438 c 0,8,9
 919.615234375 1174.52929688 919.615234375 1174.52929688 830.830078125 998.467773438 c 0,10,11
 776.344726562 890.658203125 776.344726562 890.658203125 657.619140625 849.903320312 c 0,12,13
 653.4921875 750.557617188 653.4921875 750.557617188 712.87890625 693.5390625 c 0,14,15
 767.93359375 640.564453125 767.93359375 640.564453125 857.4765625 522.970703125 c 0,16,17
 868.994140625 507.545898438 868.994140625 507.545898438 899.97265625 432.697265625 c 0,18,19
 903.166015625 398.484375 903.166015625 398.484375 907.196289062 393.596679688 c 0,20,21
 959.602539062 329.204101562 959.602539062 329.204101562 933.974609375 262.034179688 c 0,22,23
 884.826171875 133.506835938 884.826171875 133.506835938 821.801757812 101.125976562 c 0,24,25
 691.23046875 33.96484375 691.23046875 33.96484375 643.97265625 32.4345703125 c 0,26,27
 613.37109375 31.4443359375 613.37109375 31.4443359375 557.688476562 20.17578125 c 128,-1,28
 502 8.86328125 502 8.86328125 483.600585938 6.513671875 c 0,29,30
 444.959960938 1.603515625 444.959960938 1.603515625 402.946289062 9.0361328125 c 0,31,32
 236.954101562 38.5322265625 236.954101562 38.5322265625 113.264648438 181.056640625 c 0,33,34
 88.548828125 209.857421875 88.548828125 209.857421875 93.15234375 247.232421875 c 0,35,36
 121.750976562 482.61328125 121.750976562 482.61328125 157.774414062 526.918945312 c 0,37,38
 311.282226562 715.609375 311.282226562 715.609375 313.775390625 716.802734375 c 0,39,40
 315.220703125 717.487304688 315.220703125 717.487304688 332.60546875 761.061523438 c 0,0,1
332.60546875 761.061523438 m 0,41,42
 112.362304688 1035.84472656 112.362304688 1035.84472656 112.287109375 1175.59570312 c 0,43,44
 184.228515625 1299.85742188 184.228515625 1299.85742188 189.370117188 1307.06640625 c 0,45,46
 257.154296875 1402.23046875 257.154296875 1402.23046875 390.926757812 1445.0078125 c 0,47,48
 547.138671875 1495.12011719 547.138671875 1495.12011719 759.3984375 1312.27148438 c 0,49,50
 919.5390625 1174.30761719 919.5390625 1174.30761719 830.830078125 998.467773438 c 0,51,52
 776.736328125 890.790039062 776.736328125 890.790039062 657.619140625 849.903320312 c 0,53,54
 653.517578125 750.740234375 653.517578125 750.740234375 712.87890625 693.5390625 c 0,55,56
 767.34375 641.344726562 767.34375 641.344726562 857.4765625 522.970703125 c 0,57,58
 869.793945312 506.596679688 869.793945312 506.596679688 899.97265625 432.697265625 c 0,59,60
 903.166015625 398.484375 903.166015625 398.484375 907.196289062 393.596679688 c 0,61,62
 959.602539062 329.204101562 959.602539062 329.204101562 933.974609375 262.034179688 c 0,63,64
 884.474609375 133.322265625 884.474609375 133.322265625 821.801757812 101.125976562 c 0,65,66
 691.177734375 33.9267578125 691.177734375 33.9267578125 643.97265625 32.4345703125 c 0,67,68
 613.2734375 31.4111328125 613.2734375 31.4111328125 557.583984375 20.0986328125 c 128,-1,69
 501.856445312 8.8369140625 501.856445312 8.8369140625 483.600585938 6.513671875 c 0,70,71
 445.233398438 1.5654296875 445.233398438 1.5654296875 402.946289062 9.0361328125 c 0,72,73
 237.236328125 38.212890625 237.236328125 38.212890625 113.264648438 181.056640625 c 0,74,75
 88.548828125 209.857421875 88.548828125 209.857421875 93.15234375 247.232421875 c 0,76,77
 121.750976562 482.61328125 121.750976562 482.61328125 157.774414062 526.918945312 c 0,78,79
 311.880859375 715.899414062 311.880859375 715.899414062 313.775390625 716.802734375 c 0,80,81
 314.725585938 717.276367188 314.725585938 717.276367188 332.60546875 761.061523438 c 0,41,42
428.555664062 198.157226562 m 0,82,83
 503.009765625 187.500976562 503.009765625 187.500976562 690.576171875 280.140625 c 0,84,85
 698.916015625 284.20703125 698.916015625 284.20703125 702.088867188 306.5 c 128,-1,86
 705.299804688 328.741210938 705.299804688 328.741210938 699.9921875 341.911132812 c 0,87,88
 666.708007812 430.07421875 666.708007812 430.07421875 524.075195312 576.427734375 c 0,89,90
 473.166992188 629.061523438 473.166992188 629.061523438 435.807617188 570.033203125 c 0,91,92
 333.18359375 407.43359375 333.18359375 407.43359375 306.264648438 343.051757812 c 0,93,94
 283.875976562 289.548828125 283.875976562 289.548828125 317.576171875 251.262695312 c 128,-1,95
 351.22265625 212.9375 351.22265625 212.9375 428.555664062 198.157226562 c 0,82,83
631.377929688 1121.27246094 m 0,96,97
 626.44140625 1132.06347656 626.44140625 1132.06347656 597.981445312 1194.12695312 c 0,98,99
 539.59375 1210.15625 539.59375 1210.15625 538.286132812 1210.80273438 c 0,100,101
 460.094726562 1250.390625 460.094726562 1250.390625 399.255859375 1188.64257812 c 0,102,103
 361.791992188 1150.77636719 361.791992188 1150.77636719 398 1046 c 0,104,105
 424.553710938 969.8046875 424.553710938 969.8046875 492.10546875 1015.06835938 c 0,106,107
 505.663085938 1024.18847656 505.663085938 1024.18847656 631.377929688 1121.27246094 c 0,96,97
428.555664062 198.157226562 m 0,108,109
 502.918945312 187.512695312 502.918945312 187.512695312 690.419921875 280.0234375 c 0,110,111
 698.708007812 284.048828125 698.708007812 284.048828125 701.875 306.295898438 c 128,-1,112
 705.080078125 328.4921875 705.080078125 328.4921875 699.791015625 341.798828125 c 0,113,114
 666.532226562 429.818359375 666.532226562 429.818359375 523.874023438 576.315429688 c 0,115,116
 472.913085938 628.91015625 472.913085938 628.91015625 435.599609375 569.875 c 0,117,118
 333.458007812 408.747070312 333.458007812 408.747070312 306.0625 342.939453125 c 0,119,120
 283.823242188 289.508789062 283.823242188 289.508789062 317.5234375 251.22265625 c 128,-1,121
 351.26953125 212.930664062 351.26953125 212.930664062 428.555664062 198.157226562 c 0,108,109
631.377929688 1121.27246094 m 0,122,123
 625.755859375 1133.50878906 625.755859375 1133.50878906 614.66015625 1157.72558594 c 0,124,125
 541.614257812 1209.27148438 541.614257812 1209.27148438 538.127929688 1211.01074219 c 0,126,127
 460.0546875 1250.44140625 460.0546875 1250.44140625 399.09765625 1188.85058594 c 0,128,129
 361.51171875 1150.76855469 361.51171875 1150.76855469 397.842773438 1046.20800781 c 0,130,131
 424.28515625 970.21484375 424.28515625 970.21484375 491.948242188 1015.27539062 c 0,132,133
 504.717773438 1023.75976562 504.717773438 1023.75976562 631.377929688 1121.27246094 c 0,122,123
EndSplineSet
EndChar

StartChar: nine
Encoding: 57 57 28
Width: 1023
GlyphClass: 2
Flags: W
LayerCount: 2
Fore
SplineSet
701.141601562 959.987304688 m 1024,0,1
701.141601562 959.987304688 m 0,2,3
 688 1175 688 1175 685.018554688 1202.03320312 c 0,4,5
 680 1267 680 1267 603.2421875 1259.59960938 c 0,6,7
 326 1231 326 1231 296.498046875 919.736328125 c 0,8,9
 276.188213938 702.017628305 276.188213938 702.017628305 457.040039062 784.340820312 c 0,10,11
 520 813 520 813 657 900 c 0,12,13
 703 929 703 929 701.141601562 959.987304688 c 0,2,3
170.179448009 79.1490153333 m 0,14,15
 171.989528095 83.1312155736 171.989528095 83.1312155736 174.559784062 87.3369544524 c 0,16,17
 180.870388749 97.614600743 180.870388749 97.614600743 191.854492188 109.203125 c 0,18,19
 306 229 306 229 389.38671875 273.0546875 c 0,20,21
 435 297 435 297 506.676757812 428.880859375 c 0,22,23
 566 537 566 537 553.631835938 556.3203125 c 0,24,25
 542 575 542 575 416.322265625 576.595703125 c 0,26,27
 178 580 178 580 111.057617188 751.3671875 c 0,28,29
 80 831 80 831 90.466796875 891.940429688 c 0,30,31
 103.857445816 969.737124645 103.857445816 969.737124645 137.691758868 1051.42777361 c 0,32,33
 192.496282559 1182.8168099 192.496282559 1182.8168099 301.999627448 1327.68025979 c 0,34,35
 313.760126062 1343.10651165 313.760126062 1343.10651165 326.1484375 1358.65234375 c 0,36,37
 408 1461 408 1461 671.321289062 1523.01464844 c 0,38,39
 672.322395308 1523.25083168 672.322395308 1523.25083168 673.319303221 1523.47927781 c 0,40,41
 861.243562947 1565.53497953 861.243562947 1565.53497953 900.043945312 1332.15234375 c 0,42,43
 955 1001 955 1001 885.41015625 761.291992188 c 0,44,45
 783.44560235 407.022653162 783.44560235 407.022653162 441.844726562 59.265625 c 0,46,47
 369.023273916 -14.8681777911 369.023273916 -14.8681777911 235.727062636 15.2181362394 c 0,48,49
 224.857380389 17.7673617594 224.857380389 17.7673617594 213.594726562 21.033203125 c 0,50,51
 152.005692799 38.9047056214 152.005692799 38.9047056214 170.179448009 79.1490153333 c 0,14,15
EndSplineSet
EndChar

StartChar: colon
Encoding: 58 58 29
Width: 580
GlyphClass: 2
Flags: W
LayerCount: 2
Fore
SplineSet
453.206054688 206.674804688 m 1,0,1
 381.493164062 -40.822265625 381.493164062 -40.822265625 236 38 c 0,2,3
 108.65234375 106.553710938 108.65234375 106.553710938 125.182617188 219.83203125 c 0,4,5
 147.493164062 375.177734375 147.493164062 375.177734375 281.209960938 357.438476562 c 0,6,7
 297.493164062 355.177734375 297.493164062 355.177734375 453.206054688 206.674804688 c 1,0,1
412.875976562 887.229492188 m 0,8,9
 411.493164062 841.177734375 411.493164062 841.177734375 351.64453125 767 c 0,10,11
 291.493164062 693.177734375 291.493164062 693.177734375 262.0234375 708.083007812 c 0,12,13
 185.040039062 747.387695312 185.040039062 747.387695312 151.739257812 972.560546875 c 0,14,15
 138.493164062 1059.17773438 138.493164062 1059.17773438 263.328125 1061.11035156 c 0,16,17
 417.493164062 1064.17773438 417.493164062 1064.17773438 412.875976562 887.229492188 c 0,8,9
453.206054688 206.674804688 m 1,18,19
 381.493164062 -40.822265625 381.493164062 -40.822265625 235.815429688 38.00390625 c 0,20,21
 107.493164062 107.177734375 107.493164062 107.177734375 124.998046875 219.8359375 c 0,22,23
 147.732421875 376.829101562 147.732421875 376.829101562 281.072265625 357.442382812 c 0,24,25
 296.493164062 355.177734375 296.493164062 355.177734375 453.206054688 206.674804688 c 1,18,19
412.875976562 887.229492188 m 0,26,27
 411.493164062 841.177734375 411.493164062 841.177734375 351.693359375 767.13671875 c 0,28,29
 291.493164062 693.177734375 291.493164062 693.177734375 262.166015625 708.264648438 c 0,30,31
 183.493164062 748.177734375 183.493164062 748.177734375 151.92578125 972.6953125 c 0,32,33
 139.493164062 1059.17773438 139.493164062 1059.17773438 263.516601562 1061.29101562 c 0,34,35
 417.493164062 1064.17773438 417.493164062 1064.17773438 412.875976562 887.229492188 c 0,26,27
EndSplineSet
EndChar

StartChar: semicolon
Encoding: 59 59 30
Width: 656
GlyphClass: 2
Flags: W
LayerCount: 2
Fore
SplineSet
301.317382812 288.413085938 m 0,0,1
 423.420898438 284.83203125 423.420898438 284.83203125 491.172851562 189.862304688 c 128,-1,2
 558.921875 94.8935546875 558.921875 94.8935546875 520.489257812 -1.392578125 c 0,3,4
 471.799804688 -122.831054688 471.799804688 -122.831054688 197.025390625 -271.606445312 c 0,5,6
 153.967773438 -268.46484375 153.967773438 -268.46484375 150.700195312 -261.587890625 c 0,7,8
 98.111328125 -150.7890625 98.111328125 -150.7890625 93.978515625 -107.377929688 c 0,9,10
 90.1181640625 -65.5859375 90.1181640625 -65.5859375 173.762695312 -38.9990234375 c 0,11,12
 233.381835938 -19.861328125 233.381835938 -19.861328125 220 40 c 0,13,14
 197.228515625 141.629882812 197.228515625 141.629882812 218.544921875 206.501953125 c 0,15,16
 220.908203125 213.625976562 220.908203125 213.625976562 301.317382812 288.413085938 c 0,0,1
445.036132812 830.188476562 m 0,17,18
 439.5859375 705.499023438 439.5859375 705.499023438 317.666015625 707.311523438 c 0,19,20
 163.287109375 709.41015625 163.287109375 709.41015625 178.9453125 832.743164062 c 0,21,22
 196.893554688 973.807617188 196.893554688 973.807617188 327.932617188 963.479492188 c 0,23,24
 450.50390625 953.432617188 450.50390625 953.432617188 445.036132812 830.188476562 c 0,17,18
301.317382812 288.413085938 m 0,25,26
 423.415039062 284.966796875 423.415039062 284.966796875 491.225585938 189.954101562 c 128,-1,27
 559.03515625 94.94140625 559.03515625 94.94140625 520.498046875 -1.208984375 c 0,28,29
 471.8515625 -122.5703125 471.8515625 -122.5703125 197.032226562 -271.46875 c 0,30,31
 153.970703125 -268.271484375 153.970703125 -268.271484375 150.708984375 -261.403320312 c 0,32,33
 98.23046875 -150.202148438 98.23046875 -150.202148438 93.986328125 -107.193359375 c 0,34,35
 89.873046875 -65.6005859375 89.873046875 -65.6005859375 173.770507812 -38.814453125 c 0,36,37
 233.185546875 -19.7421875 233.185546875 -19.7421875 220.008789062 40.1845703125 c 0,38,39
 197.22265625 141.770507812 197.22265625 141.770507812 218.552734375 206.686523438 c 0,40,41
 220.80859375 213.53515625 220.80859375 213.53515625 301.317382812 288.413085938 c 0,25,26
445.036132812 830.188476562 m 0,42,43
 439.584960938 705.487304688 439.584960938 705.487304688 317.666015625 707.311523438 c 0,44,45
 163.293945312 709.7578125 163.293945312 709.7578125 178.9453125 832.743164062 c 0,46,47
 196.893554688 973.807617188 196.893554688 973.807617188 327.932617188 963.479492188 c 0,48,49
 450.50390625 953.432617188 450.50390625 953.432617188 445.036132812 830.188476562 c 0,42,43
EndSplineSet
EndChar

StartChar: less
Encoding: 60 60 31
Width: 1259
GlyphClass: 2
Flags: W
LayerCount: 2
Fore
SplineSet
481.18359375 561.76953125 m 4,0,1
 822.088867188 404.49609375 822.088867188 404.49609375 847.618164062 391.969726562 c 4,2,3
 922.15234375 355.048828125 922.15234375 355.048828125 999.290039062 294.056640625 c 4,4,5
 1088.01367188 224.185546875 1088.01367188 224.185546875 1041.81933594 157.111328125 c 4,6,7
 968.6796875 50.630859375 968.6796875 50.630859375 867.430664062 96.6953125 c 4,8,9
 649.401367188 195.93359375 649.401367188 195.93359375 433.735351562 299.684570312 c 4,10,11
 240.719726562 392.234375 240.719726562 392.234375 191 426 c 4,12,13
 118.245117188 475.232421875 118.245117188 475.232421875 128.375976562 576.518554688 c 132,-1,14
 138.505859375 677.805664062 138.505859375 677.805664062 219.205078125 717.939453125 c 4,15,16
 274.713867188 745.864257812 274.713867188 745.864257812 379.665039062 791.419921875 c 132,-1,17
 484.615234375 836.9765625 484.615234375 836.9765625 524.993164062 856.024414062 c 4,18,19
 529.747070312 858.265625 529.747070312 858.265625 662.400390625 935.021484375 c 4,20,21
 956.688476562 1104.86621094 956.688476562 1104.86621094 1005.11035156 1128.9296875 c 4,22,23
 1025.34472656 1138.40917969 1025.34472656 1138.40917969 1065.90039062 1128.85839844 c 132,-1,24
 1106.45605469 1119.30859375 1106.45605469 1119.30859375 1110.79199219 1105.43164062 c 4,25,26
 1141.91113281 1002.54980469 1141.91113281 1002.54980469 1105.41894531 959.700195312 c 4,27,28
 1060.47851562 906.649414062 1060.47851562 906.649414062 924.958984375 830.956054688 c 4,29,30
 882.8984375 807.412109375 882.8984375 807.412109375 484.9140625 595.892578125 c 4,31,32
 481.802734375 567.201171875 481.802734375 567.201171875 481.18359375 561.76953125 c 4,0,1
481.18359375 561.76953125 m 4,33,34
 806.211914062 411.930664062 806.211914062 411.930664062 847.538085938 391.469726562 c 4,35,36
 922.072265625 354.547851562 922.072265625 354.547851562 999.209960938 293.556640625 c 4,37,38
 1087.88671875 223.614257812 1087.88671875 223.614257812 1041.73828125 156.609375 c 4,39,40
 968.485351562 50.1982421875 968.485351562 50.1982421875 867.342773438 96.1484375 c 4,41,42
 660.46484375 190.380859375 660.46484375 190.380859375 433.655273438 299.184570312 c 4,43,44
 241.083007812 391.384765625 241.083007812 391.384765625 190.919921875 425.5 c 4,45,46
 118.165039062 474.73046875 118.165039062 474.73046875 128.295898438 576.017578125 c 132,-1,47
 138.42578125 677.3046875 138.42578125 677.3046875 219.125 717.438476562 c 4,48,49
 274.166992188 745.036132812 274.166992188 745.036132812 378.6875 790.41015625 c 132,-1,50
 483.20703125 835.783203125 483.20703125 835.783203125 524.913085938 855.5234375 c 4,51,52
 525.142578125 855.630859375 525.142578125 855.630859375 662.313476562 934.474609375 c 4,53,54
 951.59375 1101.85058594 951.59375 1101.85058594 1005.0234375 1128.3828125 c 4,55,56
 1025.28417969 1138.02734375 1025.28417969 1138.02734375 1065.84082031 1128.48730469 c 132,-1,57
 1106.3984375 1118.94921875 1106.3984375 1118.94921875 1110.71191406 1104.93066406 c 4,58,59
 1142.01269531 1001.91992188 1142.01269531 1001.91992188 1105.33886719 959.200195312 c 4,60,61
 1060.10058594 905.939453125 1060.10058594 905.939453125 924.87109375 830.409179688 c 4,62,63
 868.252929688 798.731445312 868.252929688 798.731445312 484.833984375 595.390625 c 4,64,65
 482.0859375 571.01171875 482.0859375 571.01171875 481.18359375 561.76953125 c 4,33,34
EndSplineSet
EndChar

StartChar: equal
Encoding: 61 61 32
Width: 1618
GlyphClass: 2
Flags: W
LayerCount: 2
Fore
SplineSet
1477.45507812 352.653320312 m 0,0,1
 1425.40332031 210.619140625 1425.40332031 210.619140625 1219.88769531 216.763671875 c 0,2,3
 1082.1953125 220.774414062 1082.1953125 220.774414062 425.866210938 225.807617188 c 0,4,5
 405.586914062 225.931640625 405.586914062 225.931640625 364.197265625 222.29296875 c 0,6,7
 283.348632812 215.185546875 283.348632812 215.185546875 247.478515625 226.5 c 0,8,9
 162.778320312 252.7578125 162.778320312 252.7578125 175.7734375 331.981445312 c 0,10,11
 198.340820312 468.909179688 198.340820312 468.909179688 258.044921875 471.931640625 c 0,12,13
 337.583007812 475.963867188 337.583007812 475.963867188 471.270507812 471.793945312 c 0,14,15
 1156.37011719 450.970703125 1156.37011719 450.970703125 1382.21679688 438.15625 c 0,16,17
 1387.0234375 437.877929688 1387.0234375 437.877929688 1477.45507812 352.653320312 c 0,0,1
1034.53222656 684.280273438 m 0,18,19
 431.272460938 684.280273438 431.272460938 684.280273438 264.3671875 684.788085938 c 0,20,21
 185.356445312 684.788085938 185.356445312 684.788085938 175.958007812 695.354492188 c 0,22,23
 122.204101562 755.403320312 122.204101562 755.403320312 112.97265625 820.493164062 c 0,24,25
 111.03515625 834.551757812 111.03515625 834.551757812 140.499023438 859.333007812 c 128,-1,26
 169.962890625 884.116210938 169.962890625 884.116210938 191 885 c 0,27,28
 464.171875 897.4296875 464.171875 897.4296875 766.720703125 896.12109375 c 0,29,30
 1110.26269531 894.23046875 1110.26269531 894.23046875 1345.1640625 879.186523438 c 0,31,32
 1351.87792969 878.768554688 1351.87792969 878.768554688 1472.51757812 808.03515625 c 1,33,34
 1398.60546875 725.982421875 1398.60546875 725.982421875 1393.98339844 725.0703125 c 0,35,36
 1358.9140625 718.1484375 1358.9140625 718.1484375 1034.53222656 684.280273438 c 0,18,19
1477.45507812 352.653320312 m 0,37,38
 1425.40332031 210.619140625 1425.40332031 210.619140625 1219.88769531 216.763671875 c 0,39,40
 1082.1953125 220.774414062 1082.1953125 220.774414062 425.866210938 225.807617188 c 0,41,42
 405.586914062 225.931640625 405.586914062 225.931640625 364.197265625 222.29296875 c 0,43,44
 283.348632812 215.185546875 283.348632812 215.185546875 247.478515625 226.5 c 0,45,46
 162.346679688 253.2421875 162.346679688 253.2421875 175.7734375 331.981445312 c 0,47,48
 198.33984375 468.90234375 198.33984375 468.90234375 258.044921875 471.931640625 c 0,49,50
 337.455078125 475.967773438 337.455078125 475.967773438 471.270507812 471.793945312 c 0,51,52
 1168.76953125 450.168945312 1168.76953125 450.168945312 1382.21679688 438.15625 c 0,53,54
 1387.55371094 437.84765625 1387.55371094 437.84765625 1477.45507812 352.653320312 c 0,37,38
1034.53222656 684.280273438 m 0,55,56
 438.168945312 684.280273438 438.168945312 684.280273438 264.3671875 684.603515625 c 0,57,58
 185.372070312 684.603515625 185.372070312 684.603515625 175.958007812 695.215820312 c 0,59,60
 121.935546875 755.484375 121.935546875 755.484375 112.97265625 820.30859375 c 0,61,62
 111.036132812 834.397460938 111.036132812 834.397460938 140.49609375 859.1875 c 128,-1,63
 169.958007812 883.9765625 169.958007812 883.9765625 191 884.862304688 c 0,64,65
 464.592773438 897.244140625 464.592773438 897.244140625 766.720703125 895.936523438 c 0,66,67
 1108.37792969 894.3828125 1108.37792969 894.3828125 1345.1640625 879.047851562 c 0,68,69
 1351.08300781 878.654296875 1351.08300781 878.654296875 1472.51757812 807.849609375 c 1,70,71
 1398.60546875 725.797851562 1398.60546875 725.797851562 1393.98339844 724.885742188 c 0,72,73
 1359.90136719 718.221679688 1359.90136719 718.221679688 1034.53222656 684.280273438 c 0,55,56
EndSplineSet
EndChar

StartChar: greater
Encoding: 62 62 33
Width: 1456
GlyphClass: 2
Flags: W
LayerCount: 2
Fore
SplineSet
848.688476562 580.610351562 m 0,0,1
 682.170898438 630.068359375 682.170898438 630.068359375 670.052734375 634.91015625 c 0,2,3
 631.751953125 650.158203125 631.751953125 650.158203125 294.5390625 793.3515625 c 0,4,5
 180.549804688 842.227539062 180.549804688 842.227539062 173.240234375 842.495117188 c 0,6,7
 59.05859375 846.3046875 59.05859375 846.3046875 68.2822265625 983.880859375 c 0,8,9
 74.5078125 1076.80371094 74.5078125 1076.80371094 203.625 1076.01074219 c 0,10,11
 252.196289062 1075.79296875 252.196289062 1075.79296875 301.459960938 1055.56445312 c 0,12,13
 346.848632812 1036.75976562 346.848632812 1036.75976562 537 955 c 128,-1,14
 727.150390625 873.239257812 727.150390625 873.239257812 831.264648438 833.25390625 c 0,15,16
 884.889648438 812.671875 884.889648438 812.671875 999.521484375 781.986328125 c 128,-1,17
 1114.15136719 751.299804688 1114.15136719 751.299804688 1170.16210938 729.02734375 c 0,18,19
 1283.42285156 684.0625 1283.42285156 684.0625 1335.58105469 607.311523438 c 0,20,21
 1415.02441406 489.88671875 1415.02441406 489.88671875 1216.63378906 421.536132812 c 0,22,23
 1126.5703125 390.4609375 1126.5703125 390.4609375 939.262695312 322.995117188 c 128,-1,24
 751.954101562 255.528320312 751.954101562 255.528320312 654.616210938 222.189453125 c 0,25,26
 411.71484375 138.986328125 411.71484375 138.986328125 267.04296875 102.02734375 c 0,27,28
 136.607421875 68.2236328125 136.607421875 68.2236328125 121.426757812 181.0703125 c 0,29,30
 105.565429688 297.764648438 105.565429688 297.764648438 232.87890625 334.224609375 c 0,31,32
 399.883789062 381.830078125 399.883789062 381.830078125 662.119140625 468.655273438 c 0,33,34
 671.637695312 471.7578125 671.637695312 471.7578125 847.005859375 542.068359375 c 0,35,36
 847.274414062 548.373046875 847.274414062 548.373046875 848.688476562 580.610351562 c 0,0,1
848.688476562 580.610351562 m 0,37,38
 680.95703125 630.555664062 680.95703125 630.555664062 670.052734375 634.91015625 c 0,39,40
 631.751953125 650.158203125 631.751953125 650.158203125 294.5390625 793.3515625 c 0,41,42
 179.551757812 842.262695312 179.551757812 842.262695312 173.240234375 842.495117188 c 0,43,44
 59.0751953125 846.515625 59.0751953125 846.515625 68.2822265625 983.880859375 c 0,45,46
 74.5078125 1076.80371094 74.5078125 1076.80371094 203.625 1076.01074219 c 0,47,48
 252.936523438 1075.79199219 252.936523438 1075.79199219 301.459960938 1055.56445312 c 0,49,50
 346.848632812 1036.75976562 346.848632812 1036.75976562 537 955 c 128,-1,51
 727.150390625 873.239257812 727.150390625 873.239257812 831.264648438 833.25390625 c 0,52,53
 884.524414062 812.8515625 884.524414062 812.8515625 999.182617188 782.168945312 c 128,-1,54
 1113.83886719 751.487304688 1113.83886719 751.487304688 1170.16210938 729.02734375 c 0,55,56
 1283.07617188 684.200195312 1283.07617188 684.200195312 1335.58105469 607.311523438 c 0,57,58
 1415.02441406 489.88671875 1415.02441406 489.88671875 1216.63378906 421.536132812 c 0,59,60
 1123.5390625 389.502929688 1123.5390625 389.502929688 936.497070312 322.134765625 c 128,-1,61
 749.453125 254.76171875 749.453125 254.76171875 654.616210938 222.189453125 c 0,62,63
 410.98828125 138.737304688 410.98828125 138.737304688 267.04296875 102.02734375 c 0,64,65
 136.591796875 68.3408203125 136.591796875 68.3408203125 121.426757812 181.0703125 c 0,66,67
 105.565429688 297.764648438 105.565429688 297.764648438 232.87890625 334.224609375 c 0,68,69
 406.920898438 383.834960938 406.920898438 383.834960938 662.119140625 468.655273438 c 0,70,71
 672.015625 471.909179688 672.015625 471.909179688 847.005859375 542.068359375 c 0,72,73
 847.274414062 548.373046875 847.274414062 548.373046875 848.688476562 580.610351562 c 0,37,38
EndSplineSet
EndChar

StartChar: question
Encoding: 63 63 34
Width: 1246
GlyphClass: 2
Flags: W
LayerCount: 2
Fore
SplineSet
592.821289062 1554.35449219 m 0,0,1
 803 1552 803 1552 995.998046875 1444.32128906 c 0,2,3
 1126 1372 1126 1372 1143.20019531 1209.91699219 c 0,4,5
 1160 1055 1160 1055 1055.80078125 955.58984375 c 0,6,7
 823 734 823 734 741.875976562 655.793945312 c 0,8,9
 704 619 704 619 707.024414062 612.861328125 c 0,10,11
 715 592 715 592 642.942382812 409.338867188 c 0,12,13
 623 359 623 359 567.629882812 390.844726562 c 0,14,15
 470 445 470 445 481.286132812 591.4453125 c 0,16,17
 494 764 494 764 696.870117188 911.272460938 c 0,18,19
 785 975 785 975 847 1047 c 0,20,21
 989 1210 989 1210 784.481445312 1279.96484375 c 0,22,23
 618.910446433 1336.87391936 618.910446433 1336.87391936 309.450195312 1229.58300781 c 0,24,25
 302 1227 302 1227 274.025390625 1166.57617188 c 0,26,27
 206 1023 206 1023 198.444335938 1012.87597656 c 0,28,29
 192 1003 192 1003 158.90234375 1002.29394531 c 0,30,31
 126 1002 126 1002 120.942382812 1010.4609375 c 0,32,33
 37 1151 37 1151 113.796875 1315.40527344 c 0,34,35
 190 1479 190 1479 353.629882812 1508.68457031 c 0,36,37
 406 1518 406 1518 512.21875 1538.81347656 c 0,38,39
 593 1554 593 1554 592.821289062 1554.35449219 c 0,0,1
727.31640625 33.69140625 m 0,40,41
 731 -83 731 -83 573.625 -90.638671875 c 0,42,43
 474 -96 474 -96 475.412109375 50.060546875 c 0,44,45
 476 189 476 189 600.3359375 188.20703125 c 0,46,47
 722 187 722 187 727.31640625 33.69140625 c 0,40,41
592.821289062 1554.35449219 m 0,48,49
 803 1552 803 1552 995.98828125 1444.45996094 c 0,50,51
 1126 1372 1126 1372 1143.12402344 1210.02246094 c 0,52,53
 1159.78752957 1052.01470071 1159.78752957 1052.01470071 1055.78710938 955.774414062 c 0,54,55
 935 844 935 844 741.862304688 655.978515625 c 0,56,57
 704 619 704 619 707.010742188 613.045898438 c 0,58,59
 715 593 715 593 642.928710938 409.5234375 c 0,60,61
 623 359 623 359 567.619140625 390.983398438 c 0,62,63
 470 445 470 445 481.272460938 591.62890625 c 0,64,65
 494 764 494 764 696.85546875 911.456054688 c 0,66,67
 783 974 783 974 846.986328125 1047.18359375 c 0,68,69
 989 1210 989 1210 784.467773438 1280.14941406 c 0,70,71
 584.336451826 1347.96912524 584.336451826 1347.96912524 309.436523438 1229.76757812 c 0,72,73
 303 1227 303 1227 274.012695312 1166.76074219 c 0,74,75
 204 1021 204 1021 198.430664062 1013.05957031 c 0,76,77
 192 1003 192 1003 158.95703125 1002.48339844 c 128,-1,78
 126 1002 126 1002 120.928710938 1010.64453125 c 0,79,80
 37 1152 37 1152 113.786132812 1315.57324219 c 0,81,82
 166 1426 166 1426 353.616210938 1508.86914062 c 0,83,84
 459 1555 459 1555 592.821289062 1554.35449219 c 0,48,49
727.31640625 33.69140625 m 0,85,86
 731 -83 731 -83 573.625 -90.638671875 c 0,87,88
 474 -96 474 -96 475.412109375 50.060546875 c 0,89,90
 476 189 476 189 600.3359375 188.20703125 c 0,91,92
 722 187 722 187 727.31640625 33.69140625 c 0,85,86
EndSplineSet
EndChar

StartChar: at
Encoding: 64 64 35
Width: 1668
GlyphClass: 2
Flags: W
LayerCount: 2
Fore
SplineSet
1063.7734375 -74.1337890625 m 0,0,1
 1093.82910156 -96.9052734375 1093.82910156 -96.9052734375 1096.55859375 -98.666015625 c 0,2,3
 1254.31640625 -202.163085938 1254.31640625 -202.163085938 1099.34667969 -295.634765625 c 0,4,5
 801.827148438 -475.002929688 801.827148438 -475.002929688 518.612304688 -415.090820312 c 0,6,7
 468.951171875 -404.487304688 468.951171875 -404.487304688 430.923828125 -369.380859375 c 0,8,9
 59.7509765625 -25.3515625 59.7509765625 -25.3515625 88.3095703125 336.80078125 c 0,10,11
 90.072265625 359.333007812 90.072265625 359.333007812 89.6513671875 403.629882812 c 128,-1,12
 89.2314453125 447.928710938 89.2314453125 447.928710938 90.7958984375 470.461914062 c 0,13,14
 122.250976562 910.765625 122.250976562 910.765625 367.088867188 1236.44628906 c 0,15,16
 545.84765625 1474.13183594 545.84765625 1474.13183594 845.061523438 1517.75097656 c 0,17,18
 972.233398438 1536.39257812 972.233398438 1536.39257812 1057.36816406 1528.18945312 c 0,19,20
 1227.95117188 1512.02441406 1227.95117188 1512.02441406 1384.68359375 1281.21386719 c 0,21,22
 1556.73828125 1027.69433594 1556.73828125 1027.69433594 1557.95019531 639.9609375 c 0,23,24
 1558.56640625 400.977539062 1558.56640625 400.977539062 1552.22265625 333.182617188 c 0,25,26
 1527.65136719 71.7861328125 1527.65136719 71.7861328125 1252.6796875 19.2451171875 c 0,27,28
 1171.57128906 3.9287109375 1171.57128906 3.9287109375 1064.33984375 88.9580078125 c 0,29,30
 1011.88964844 130.53515625 1011.88964844 130.53515625 956.302734375 91.4462890625 c 0,31,32
 904.095703125 54.484375 904.095703125 54.484375 821.094726562 27.4599609375 c 0,33,34
 590.801757812 -47.7138671875 590.801757812 -47.7138671875 536.436523438 236.149414062 c 0,35,36
 500.329101562 424.904296875 500.329101562 424.904296875 531.83984375 715.514648438 c 0,37,38
 541.223632812 801.782226562 541.223632812 801.782226562 606 841 c 0,39,40
 820.770507812 970.844726562 820.770507812 970.844726562 839.78515625 973.833984375 c 0,41,42
 924.834960938 987.16015625 924.834960938 987.16015625 1147.99609375 923.375 c 0,43,44
 1205.47167969 906.8984375 1205.47167969 906.8984375 1206.81933594 824.118164062 c 0,45,46
 1207.76953125 757.377929688 1207.76953125 757.377929688 1201.04980469 629.783203125 c 128,-1,47
 1194.33203125 502.189453125 1194.33203125 502.189453125 1194.38378906 442.576171875 c 0,48,49
 1194.60644531 363.064453125 1194.60644531 363.064453125 1228.9765625 282.2734375 c 0,50,51
 1269.97460938 186.234375 1269.97460938 186.234375 1325.29589844 275.188476562 c 0,52,53
 1363.00097656 335.482421875 1363.00097656 335.482421875 1371.83398438 405.383789062 c 0,54,55
 1403.76269531 650.8828125 1403.76269531 650.8828125 1305.77539062 988.869140625 c 0,56,57
 1233.97753906 1237.64746094 1233.97753906 1237.64746094 1009.43554688 1319.53808594 c 0,58,59
 934.192382812 1346.95019531 934.192382812 1346.95019531 807.0390625 1300.99804688 c 0,60,61
 649.524414062 1244.04394531 649.524414062 1244.04394531 527.65625 1098.86523438 c 0,62,63
 500.752929688 1066.79492188 500.752929688 1066.79492188 461.10546875 992.702148438 c 128,-1,64
 421.45703125 918.609375 421.45703125 918.609375 392.03515625 884.901367188 c 0,65,66
 344.955078125 831.107421875 344.955078125 831.107421875 324.432617188 685.142578125 c 0,67,68
 273.18359375 318.677734375 273.18359375 318.677734375 312.599609375 209.543945312 c 0,69,70
 424.341796875 -100.250976562 424.341796875 -100.250976562 600.57421875 -201.541015625 c 0,71,72
 666.874023438 -246.579101562 666.874023438 -246.579101562 798.112304688 -234.376953125 c 128,-1,73
 929.3515625 -222.174804688 929.3515625 -222.174804688 984.037109375 -148.03125 c 0,74,75
 986.60546875 -144.532226562 986.60546875 -144.532226562 1063.7734375 -74.1337890625 c 0,0,1
729.110351562 316.150390625 m 0,76,77
 760.147460938 246.318359375 760.147460938 246.318359375 775.083984375 235.470703125 c 0,78,79
 794.930664062 220.90625 794.930664062 220.90625 847.737304688 267.387695312 c 0,80,81
 904.287109375 317.551757812 904.287109375 317.551757812 930.59765625 477.546875 c 128,-1,82
 956.907226562 637.541015625 956.907226562 637.541015625 919.372070312 702.967773438 c 0,83,84
 895.801757812 744.12109375 895.801757812 744.12109375 865.7109375 733.2265625 c 0,85,86
 785.340820312 703.779296875 785.340820312 703.779296875 766.60546875 673.159179688 c 0,87,88
 715.067382812 589.288085938 715.067382812 589.288085938 720.1796875 410.130859375 c 0,89,90
 720.89453125 385.532226562 720.89453125 385.532226562 723.572265625 373.989257812 c 128,-1,91
 726.25 362.446289062 726.25 362.446289062 726.736328125 355.604492188 c 0,92,-1
 729.110351562 316.150390625 l 0,76,77
EndSplineSet
EndChar

StartChar: A
Encoding: 65 65 36
Width: 1314
GlyphClass: 2
Flags: W
LayerCount: 2
Fore
SplineSet
138.416992188 157.106445312 m 0,0,1
 243.862304688 510.420898438 243.862304688 510.420898438 265.224609375 583.862304688 c 0,2,3
 353.970703125 889.227539062 353.970703125 889.227539062 375.223632812 978.458007812 c 0,4,5
 385.341796875 1020.9375 385.341796875 1020.9375 394.54296875 1104.84082031 c 128,-1,6
 403.745117188 1188.74316406 403.745117188 1188.74316406 412.013671875 1227.39257812 c 0,7,8
 412.518554688 1229.6875 412.518554688 1229.6875 470.067382812 1372.92089844 c 0,9,10
 506.571289062 1464.45996094 506.571289062 1464.45996094 611.815429688 1443.17480469 c 0,11,12
 615.086914062 1442.49316406 615.086914062 1442.49316406 640.780273438 1435.86328125 c 128,-1,13
 666.475585938 1429.23046875 666.475585938 1429.23046875 680.176757812 1428.31445312 c 0,14,15
 834.119140625 1418.83105469 834.119140625 1418.83105469 878.969726562 1260.515625 c 0,16,17
 911.9140625 1143.79492188 911.9140625 1143.79492188 983.276367188 931.590820312 c 128,-1,18
 1054.63867188 719.38671875 1054.63867188 719.38671875 1072.50683594 662.895507812 c 0,19,20
 1078.29492188 644.638671875 1078.29492188 644.638671875 1125.89257812 444.12109375 c 0,21,22
 1171.53222656 251.547851562 1171.53222656 251.547851562 1173.49023438 231.124023438 c 0,23,24
 1183.55078125 125.765625 1183.55078125 125.765625 1150.77734375 66.3671875 c 0,25,26
 1118.71386719 8.52734375 1118.71386719 8.52734375 1029.33007812 4.0830078125 c 0,27,28
 978.09375 1.59375 978.09375 1.59375 948.092773438 80.505859375 c 0,29,30
 930.543945312 126.15625 930.543945312 126.15625 916.728515625 251.04296875 c 0,31,32
 887.247070312 515.068359375 887.247070312 515.068359375 635.965820312 439.1796875 c 0,33,34
 570.983398438 419.446289062 570.983398438 419.446289062 495.169921875 427.651367188 c 0,35,36
 406.040039062 437.448242188 406.040039062 437.448242188 394.69140625 351.133789062 c 0,37,38
 372.837890625 182.993164062 372.837890625 182.993164062 351.963867188 128.182617188 c 0,39,40
 320.362304688 45.259765625 320.362304688 45.259765625 246.767578125 18.787109375 c 0,41,42
 182.44921875 -4.26953125 182.44921875 -4.26953125 154.479492188 30.009765625 c 128,-1,43
 126.510742188 64.3291015625 126.510742188 64.3291015625 138.416992188 157.106445312 c 0,0,1
804.600585938 675.805664062 m 1,44,45
 778.443359375 769.48046875 778.443359375 769.48046875 731.28125 938.19921875 c 128,-1,46
 684.124023438 1106.95800781 684.124023438 1106.95800781 664.802734375 1176.11132812 c 1,47,48
 539.040039062 846.028320312 539.040039062 846.028320312 509.029296875 746.612304688 c 0,49,50
 498.591796875 712.15234375 498.591796875 712.15234375 514.762695312 692.393554688 c 128,-1,51
 530.934570312 672.6328125 530.934570312 672.6328125 567.1015625 672.240234375 c 0,52,53
 588.659179688 672.017578125 588.659179688 672.017578125 804.600585938 675.805664062 c 1,44,45
EndSplineSet
EndChar

StartChar: B
Encoding: 66 66 37
Width: 1323
GlyphClass: 2
Flags: W
LayerCount: 2
Fore
SplineSet
358.08984375 1133.98925781 m 1,0,1
 378.633789062 867.772460938 378.633789062 867.772460938 382.489257812 832.390625 c 0,2,3
 393.484375 730.657226562 393.484375 730.657226562 484.981445312 774.323242188 c 0,4,5
 681.369140625 867.791015625 681.369140625 867.791015625 819.123046875 939.923828125 c 0,6,7
 935.491210938 1001.05664062 935.491210938 1001.05664062 825.961914062 1076.66699219 c 0,8,9
 622.686523438 1216.74902344 622.686523438 1216.74902344 358.08984375 1133.98925781 c 1,0,1
1006.28125 836.135742188 m 0,10,11
 976.419921875 800.244140625 976.419921875 800.244140625 942.065429688 757.036132812 c 1,12,13
 1130.06835938 562.130859375 1130.06835938 562.130859375 1143.03125 551.010742188 c 0,14,15
 1241.56542969 459.708984375 1241.56542969 459.708984375 1202.36523438 315.993164062 c 128,-1,16
 1163.16503906 172.279296875 1163.16503906 172.279296875 1044.75390625 123.967773438 c 0,17,18
 879.161132812 56.3896484375 879.161132812 56.3896484375 681.419921875 56.3896484375 c 0,19,20
 538.76953125 56.3896484375 538.76953125 56.3896484375 379.389648438 91.55859375 c 1,21,22
 354.39453125 44.451171875 354.39453125 44.451171875 353.387695312 41.1181640625 c 0,23,24
 343.491210938 8.345703125 343.491210938 8.345703125 196.9140625 -7.525390625 c 0,25,26
 193.3125 -7.89453125 193.3125 -7.89453125 189.927734375 -7.89453125 c 0,27,28
 137.206054688 -7.89453125 137.206054688 -7.89453125 137.206054688 81.609375 c 0,29,30
 137.206054688 85.6826171875 137.206054688 85.6826171875 137.315429688 89.9404296875 c 0,31,32
 138.090820312 122.43359375 138.090820312 122.43359375 138.090820312 168.483398438 c 0,33,34
 138.090820312 220.703125 138.090820312 220.703125 137.09375 290.356445312 c 0,35,36
 135.262695312 421.431640625 135.262695312 421.431640625 135.16796875 442.90625 c 0,37,38
 135.150390625 448.220703125 135.150390625 448.220703125 135.133789062 453.501953125 c 0,39,40
 134.973632812 512.190429688 134.973632812 512.190429688 134.6015625 799.784179688 c 0,41,42
 134.189453125 1121.05078125 134.189453125 1121.05078125 132.2265625 1288.24121094 c 0,43,44
 132.208007812 1289.69140625 132.208007812 1289.69140625 132.208007812 1291.1328125 c 0,45,46
 132.208007812 1369.24609375 132.208007812 1369.24609375 186.865234375 1422.81835938 c 0,47,48
 221.685546875 1456.94726562 221.685546875 1456.94726562 258.3203125 1456.94726562 c 0,49,50
 280.206054688 1456.94726562 280.206054688 1456.94726562 302.739257812 1444.76757812 c 0,51,52
 326.305664062 1432.03808594 326.305664062 1432.03808594 583.711914062 1408.49902344 c 0,53,54
 820.772460938 1386.62109375 820.772460938 1386.62109375 954.427734375 1286.44042969 c 0,55,56
 1097.6796875 1179.15722656 1097.6796875 1179.15722656 1097.6796875 1031.99316406 c 0,57,58
 1097.6796875 982.09375 1097.6796875 982.09375 1081.20996094 927.609375 c 0,59,60
 1077.72070312 916.106445312 1077.72070312 916.106445312 1059.14941406 897.935546875 c 0,61,62
 1037.84667969 874.235351562 1037.84667969 874.235351562 1006.28125 836.135742188 c 0,10,11
931.96484375 312.05859375 m 0,63,64
 954.502929688 316.893554688 954.502929688 316.893554688 979.665039062 322.265625 c 1,65,66
 978.75 324.078125 978.75 324.078125 977.850585938 325.861328125 c 0,67,68
 973.114257812 335.267578125 973.114257812 335.267578125 964.40234375 352.775390625 c 0,69,70
 939.239257812 403.200195312 939.239257812 403.200195312 925.522460938 429.541015625 c 0,71,72
 890.130859375 497.235351562 890.130859375 497.235351562 842.32421875 536.36328125 c 0,73,74
 740.220703125 620.09375 740.220703125 620.09375 581.540039062 573.19921875 c 0,75,76
 524.9375 556.537109375 524.9375 556.537109375 461.1328125 523.301757812 c 0,77,78
 396.383789062 489.500976562 396.383789062 489.500976562 373.016601562 409.177734375 c 0,79,80
 346.073242188 316.567382812 346.073242188 316.567382812 375.952148438 281.322265625 c 0,81,82
 393.141601562 260.857421875 393.141601562 260.857421875 429.268554688 259.567382812 c 0,83,84
 683.759765625 250.224609375 683.759765625 250.224609375 739.294921875 269.002929688 c 0,85,86
 753.088867188 273.6796875 753.088867188 273.6796875 931.96484375 312.05859375 c 0,63,64
EndSplineSet
EndChar

StartChar: C
Encoding: 67 67 38
Width: 1332
GlyphClass: 2
Flags: W
LayerCount: 2
Fore
SplineSet
134.475585938 671.552734375 m 0,0,1
 205.861328125 928.235351562 205.861328125 928.235351562 215.938476562 949.944335938 c 0,2,3
 277.720703125 1082.39160156 277.720703125 1082.39160156 380.51171875 1163.39746094 c 0,4,5
 722.946289062 1432.75390625 722.946289062 1432.75390625 1038.36035156 1354.59375 c 0,6,7
 1188.46289062 1317.6953125 1188.46289062 1317.6953125 1193.29101562 1160.38964844 c 0,8,9
 1194.64257812 1117.94433594 1194.64257812 1117.94433594 1164.45214844 1102.12890625 c 128,-1,10
 1134.30371094 1086.26269531 1134.30371094 1086.26269531 1086.08886719 1104.22949219 c 0,11,12
 711.258789062 1244.01367188 711.258789062 1244.01367188 504.006835938 919.706054688 c 0,13,14
 445.5546875 828.240234375 445.5546875 828.240234375 460.611328125 490.916992188 c 0,15,16
 469.677734375 287.879882812 469.677734375 287.879882812 700.333984375 230.921875 c 0,17,18
 834.829101562 198.05078125 834.829101562 198.05078125 894.596679688 241.79296875 c 0,19,20
 956.141601562 287.173828125 956.141601562 287.173828125 1127.05761719 319.21484375 c 0,21,22
 1178.22167969 328.916992188 1178.22167969 328.916992188 1215.45800781 262.629882812 c 0,23,24
 1228.64453125 239.409179688 1228.64453125 239.409179688 1199.07324219 169.02734375 c 0,25,26
 1189.76464844 147.10546875 1189.76464844 147.10546875 1150.53417969 134.696289062 c 0,27,28
 735.6328125 3.4267578125 735.6328125 3.4267578125 580.380859375 7.53515625 c 0,29,30
 211.08984375 17.0625 211.08984375 17.0625 160.119140625 374.013671875 c 0,31,32
 158.163085938 387.59375 158.163085938 387.59375 134.475585938 671.552734375 c 0,0,1
134.475585938 671.552734375 m 0,33,34
 205.861328125 928.235351562 205.861328125 928.235351562 215.924804688 949.805664062 c 0,35,36
 277.607421875 1082.171875 277.607421875 1082.171875 380.499023438 1163.25976562 c 0,37,38
 722.727539062 1432.40332031 722.727539062 1432.40332031 1038.34667969 1354.45703125 c 0,39,40
 1188.14453125 1317.26171875 1188.14453125 1317.26171875 1193.27734375 1160.25292969 c 0,41,42
 1194.61621094 1117.66894531 1194.61621094 1117.66894531 1164.4765625 1101.89453125 c 128,-1,43
 1134.28613281 1086.078125 1134.28613281 1086.078125 1086.07128906 1104.04589844 c 0,44,45
 711.23828125 1243.78417969 711.23828125 1243.78417969 503.995117188 919.569335938 c 0,46,47
 445.537109375 828.056640625 445.537109375 828.056640625 460.594726562 490.733398438 c 0,48,49
 469.661132812 287.697265625 469.661132812 287.697265625 700.31640625 230.737304688 c 0,50,51
 834.702148438 197.692382812 834.702148438 197.692382812 894.580078125 241.609375 c 0,52,53
 956.408203125 287.0546875 956.408203125 287.0546875 1127.04101562 319.03125 c 0,54,55
 1177.79101562 328.7734375 1177.79101562 328.7734375 1215.44042969 262.4453125 c 0,56,57
 1228.63476562 239.317382812 1228.63476562 239.317382812 1199.05664062 168.842773438 c 0,58,59
 1189.91699219 146.766601562 1189.91699219 146.766601562 1150.52050781 134.55859375 c 0,60,61
 734.743164062 3.3271484375 734.743164062 3.3271484375 580.3671875 7.3974609375 c 0,62,63
 211.076171875 16.923828125 211.076171875 16.923828125 160.10546875 373.875 c 0,64,65
 158.166992188 387.640625 158.166992188 387.640625 134.475585938 671.552734375 c 0,33,34
EndSplineSet
EndChar

StartChar: D
Encoding: 68 68 39
Width: 1373
GlyphClass: 2
Flags: W
LayerCount: 2
Fore
SplineSet
1192.18066406 765.133789062 m 2,0,1
 1193.86816406 756.265625 1193.86816406 756.265625 1200.20898438 724.477539062 c 128,-1,2
 1206.55175781 692.688476562 1206.55175781 692.688476562 1209.50097656 675.404296875 c 0,3,4
 1237.86132812 507.841796875 1237.86132812 507.841796875 1116.71386719 309.625976562 c 128,-1,5
 995.567382812 111.412109375 995.567382812 111.412109375 839.057617188 49.205078125 c 0,6,7
 751.631835938 14.5849609375 751.631835938 14.5849609375 641.822265625 14.83203125 c 0,8,9
 317.904296875 14.7353515625 317.904296875 14.7353515625 317.4375 14.9541015625 c 0,10,11
 218.061523438 59.6220703125 218.061523438 59.6220703125 213.236328125 167.326171875 c 0,12,13
 207.49609375 297.90234375 207.49609375 297.90234375 188.145507812 536.8046875 c 128,-1,14
 168.75 775.706054688 168.75 775.706054688 163.786132812 852.344726562 c 0,15,16
 145.515625 1137.01269531 145.515625 1137.01269531 147.98046875 1295.20117188 c 0,17,18
 150.361328125 1451.07910156 150.361328125 1451.07910156 319.736328125 1401.38769531 c 0,19,20
 349.715820312 1392.59277344 349.715820312 1392.59277344 410.006835938 1384.3359375 c 128,-1,21
 470.250976562 1376.12402344 470.250976562 1376.12402344 497.934570312 1368.75097656 c 0,22,23
 657.72265625 1326.26171875 657.72265625 1326.26171875 756.822265625 1287.3125 c 0,24,25
 941.1796875 1215.12988281 941.1796875 1215.12988281 1167.27246094 878.776367188 c 0,26,27
 1170.09570312 874.643554688 1170.09570312 874.643554688 1208.25292969 770.500976562 c 2,28,-1
 1192.18066406 765.133789062 l 2,0,1
1192.18066406 765.133789062 m 2,29,30
 1193.86816406 756.265625 1193.86816406 756.265625 1200.20898438 724.477539062 c 128,-1,31
 1206.55175781 692.688476562 1206.55175781 692.688476562 1209.50097656 675.404296875 c 0,32,33
 1237.86132812 507.841796875 1237.86132812 507.841796875 1116.75878906 309.719726562 c 128,-1,34
 995.609375 111.596679688 995.609375 111.596679688 839.057617188 49.205078125 c 0,35,36
 751.81640625 14.58984375 751.81640625 14.58984375 641.822265625 14.83203125 c 0,37,38
 317.904296875 14.7353515625 317.904296875 14.7353515625 317.4375 14.9541015625 c 0,39,40
 217.830078125 59.7080078125 217.830078125 59.7080078125 213.236328125 167.326171875 c 0,41,42
 207.49609375 297.90234375 207.49609375 297.90234375 188.145507812 536.8046875 c 128,-1,43
 168.75 775.706054688 168.75 775.706054688 163.786132812 852.344726562 c 0,44,45
 145.653320312 1135.12402344 145.653320312 1135.12402344 147.98046875 1295.20117188 c 0,46,47
 150.358398438 1451.17089844 150.358398438 1451.17089844 319.736328125 1401.38769531 c 0,48,49
 349.715820312 1392.59277344 349.715820312 1392.59277344 410.006835938 1384.3359375 c 128,-1,50
 470.250976562 1376.12402344 470.250976562 1376.12402344 497.934570312 1368.75097656 c 0,51,52
 656.421875 1326.59960938 656.421875 1326.59960938 756.822265625 1287.3125 c 0,53,54
 941.504882812 1214.99902344 941.504882812 1214.99902344 1167.27246094 878.776367188 c 0,55,56
 1168.94726562 876.323242188 1168.94726562 876.323242188 1208.25292969 770.500976562 c 2,57,-1
 1192.18066406 765.133789062 l 2,29,30
505.473632812 1081.2421875 m 0,58,59
 387.734375 1081.02441406 387.734375 1081.02441406 410.94921875 920.216796875 c 0,60,61
 424.825195312 823.989257812 424.825195312 823.989257812 423.629882812 709.44921875 c 0,62,63
 422.995117188 631.384765625 422.995117188 631.384765625 418.369140625 488.375976562 c 128,-1,64
 413.743164062 345.368164062 413.743164062 345.368164062 412.700195312 294.15625 c 0,65,66
 411.33203125 231.4453125 411.33203125 231.4453125 490.724609375 200.2421875 c 0,67,68
 625.46484375 147.370117188 625.46484375 147.370117188 837.73046875 277.4609375 c 0,69,70
 928.532226562 333.1171875 928.532226562 333.1171875 959.495117188 405.1640625 c 0,71,72
 1048.15136719 612.9453125 1048.15136719 612.9453125 889.982421875 847.249023438 c 128,-1,73
 731.765625 1081.59960938 731.765625 1081.59960938 505.473632812 1081.2421875 c 0,58,59
505.473632812 1081.2421875 m 0,74,75
 387.590820312 1081.25195312 387.590820312 1081.25195312 411.125976562 920.543945312 c 0,76,77
 425.000976562 824.362304688 425.000976562 824.362304688 423.8046875 709.822265625 c 0,78,79
 423.171875 631.711914062 423.171875 631.711914062 418.545898438 488.704101562 c 128,-1,80
 413.919921875 345.6953125 413.919921875 345.6953125 412.87890625 294.485351562 c 0,81,82
 411.5078125 231.864257812 411.5078125 231.864257812 490.901367188 200.569335938 c 0,83,84
 625.641601562 147.744140625 625.641601562 147.744140625 837.860351562 277.787109375 c 0,85,86
 928.305664062 332.926757812 928.305664062 332.926757812 959.671875 405.4921875 c 0,87,88
 1048.19824219 612.900390625 1048.19824219 612.900390625 889.983398438 847.203125 c 128,-1,89
 731.768554688 1081.50683594 731.768554688 1081.50683594 505.473632812 1081.2421875 c 0,74,75
EndSplineSet
EndChar

StartChar: E
Encoding: 69 69 40
Width: 1378
GlyphClass: 2
Flags: W
LayerCount: 2
Fore
SplineSet
937.197265625 1143.39160156 m 0,0,1
 632.404296875 1117.32421875 632.404296875 1117.32421875 590.530273438 1112.50292969 c 0,2,3
 563.635742188 1109.43652344 563.635742188 1109.43652344 485.265625 1075.4453125 c 0,4,5
 463.911132812 1066.125 463.911132812 1066.125 461.8046875 1045.37792969 c 0,6,7
 458.26171875 1009.5859375 458.26171875 1009.5859375 449.08203125 863.96875 c 0,8,9
 447.108398438 831.858398438 447.108398438 831.858398438 462.607421875 813.969726562 c 128,-1,10
 478.059570312 796.081054688 478.059570312 796.081054688 508.342773438 798.376953125 c 0,11,12
 549.5 802.578125 549.5 802.578125 642.774414062 795.153320312 c 128,-1,13
 736.095703125 787.771484375 736.095703125 787.771484375 777.5234375 789.28515625 c 0,14,15
 803.278320312 790.223632812 803.278320312 790.223632812 918.751953125 723.935546875 c 0,16,17
 924.944335938 720.334960938 924.944335938 720.334960938 926.637695312 702.495117188 c 0,18,19
 850.956054688 593.97265625 850.956054688 593.97265625 807.12109375 592.270507812 c 0,20,21
 724.849609375 588.853515625 724.849609375 588.853515625 507.649414062 554.002929688 c 0,22,23
 391.646484375 534.981445312 391.646484375 534.981445312 391.725585938 412.431640625 c 2,24,-1
 390.337890625 402.372070312 l 2,25,26
 396.500976562 218.461914062 396.500976562 218.461914062 559.078125 245.82421875 c 0,27,28
 608.052734375 254.122070312 608.052734375 254.122070312 1076.88867188 219.998046875 c 0,29,30
 1123.35351562 216.61328125 1123.35351562 216.61328125 1242.96777344 129.993164062 c 0,31,32
 1307.20410156 82.8251953125 1307.20410156 82.8251953125 1223.65527344 51.1044921875 c 0,33,34
 1173.40332031 32.048828125 1173.40332031 32.048828125 1124.48828125 30.3515625 c 0,35,36
 1067.25390625 28.453125 1067.25390625 28.453125 758.930664062 24.2197265625 c 0,37,38
 378.022460938 18.75 378.022460938 18.75 300.254882812 18.490234375 c 0,39,40
 112.076171875 17.98046875 112.076171875 17.98046875 114.743164062 151.09375 c 0,41,42
 118.765625 350.694335938 118.765625 350.694335938 142.000976562 422.004882812 c 0,43,44
 149.749023438 445.450195312 149.749023438 445.450195312 155.298828125 521.755859375 c 0,45,46
 168.576171875 714.41015625 168.576171875 714.41015625 179.994140625 742.200195312 c 0,47,48
 186.186523438 757.30078125 186.186523438 757.30078125 190.622070312 890.764648438 c 0,49,50
 199.434570312 1158.61816406 199.434570312 1158.61816406 200.666015625 1254.19921875 c 0,51,52
 200.974609375 1284.98535156 200.974609375 1284.98535156 276.161132812 1368.91601562 c 0,53,54
 316.672851562 1414.23632812 316.672851562 1414.23632812 395.98046875 1371.31347656 c 0,55,56
 418.931640625 1358.91894531 418.931640625 1358.91894531 445.040039062 1358.22949219 c 0,57,58
 448.869140625 1358.13378906 448.869140625 1358.13378906 676.106445312 1353.50292969 c 128,-1,59
 903.33984375 1348.82714844 903.33984375 1348.82714844 906.887695312 1344.86425781 c 0,60,61
 981.973632812 1340.05078125 981.973632812 1340.05078125 1070.16699219 1293.93457031 c 0,62,63
 1086.65039062 1285.19824219 1086.65039062 1285.19824219 1101.55664062 1252.55566406 c 128,-1,64
 1116.46191406 1219.91113281 1116.46191406 1219.91113281 1109.7109375 1212.17382812 c 0,65,66
 1077.60058594 1175.5 1077.60058594 1175.5 999.466796875 1136.65136719 c 0,67,68
 997.021484375 1135.44921875 997.021484375 1135.44921875 937.197265625 1143.39160156 c 0,0,1
937.197265625 1143.39160156 m 0,69,70
 638.286132812 1117.79882812 638.286132812 1117.79882812 590.333984375 1112.18847656 c 0,71,72
 563.25390625 1109.08105469 563.25390625 1109.08105469 485.114257812 1075.08203125 c 0,73,74
 464.094726562 1066.07226562 464.094726562 1066.07226562 461.608398438 1045.0625 c 0,75,76
 457.850585938 1007.20019531 457.850585938 1007.20019531 448.930664062 863.604492188 c 0,77,78
 446.95703125 831.495117188 446.95703125 831.495117188 462.411132812 813.653320312 c 128,-1,79
 477.86328125 795.766601562 477.86328125 795.766601562 508.146484375 798.061523438 c 0,80,81
 549.119140625 802.26953125 549.119140625 802.26953125 642.53125 794.837890625 c 128,-1,82
 735.944335938 787.408203125 735.944335938 787.408203125 777.326171875 788.922851562 c 0,83,84
 802.6640625 789.831054688 802.6640625 789.831054688 918.553710938 723.573242188 c 0,85,86
 924.751953125 720.112304688 924.751953125 720.112304688 926.444335938 702.225585938 c 0,87,88
 851.174804688 593.640625 851.174804688 593.640625 806.922851562 591.909179688 c 0,89,90
 723.728515625 588.48046875 723.728515625 588.48046875 507.451171875 553.640625 c 0,91,92
 391.458007812 534.849609375 391.458007812 534.849609375 391.528320312 412.069335938 c 2,93,-1
 390.140625 402.055664062 l 2,94,95
 396.310546875 218.330078125 396.310546875 218.330078125 558.927734375 245.506835938 c 0,96,97
 608.2265625 253.838867188 608.2265625 253.838867188 1076.68945312 219.634765625 c 0,98,99
 1123.79492188 216.08984375 1123.79492188 216.08984375 1242.77050781 129.631835938 c 0,100,101
 1307.09667969 82.4140625 1307.09667969 82.4140625 1223.45605469 50.7431640625 c 0,102,103
 1172.04980469 31.63671875 1172.04980469 31.63671875 1124.33691406 29.98828125 c 0,104,105
 1063.21875 27.9560546875 1063.21875 27.9560546875 758.734375 23.9033203125 c 0,106,107
 373.53125 18.4091796875 373.53125 18.4091796875 300.10546875 18.1728515625 c 0,108,109
 112.2109375 17.8828125 112.2109375 17.8828125 114.546875 150.77734375 c 0,110,111
 118.5625 350.193359375 118.5625 350.193359375 141.850585938 421.686523438 c 0,112,113
 149.564453125 445.45703125 149.564453125 445.45703125 155.102539062 521.439453125 c 0,114,115
 168.9296875 715.228515625 168.9296875 715.228515625 179.84375 741.881835938 c 0,116,117
 186.435546875 757.799804688 186.435546875 757.799804688 190.471679688 890.446289062 c 0,118,119
 199.276367188 1149.38964844 199.276367188 1149.38964844 200.515625 1253.88183594 c 0,120,121
 200.91796875 1284.7109375 200.91796875 1284.7109375 275.96484375 1368.6015625 c 0,122,123
 316.373046875 1413.6484375 316.373046875 1413.6484375 395.783203125 1370.99707031 c 0,124,125
 419.150390625 1358.58789062 419.150390625 1358.58789062 444.84375 1357.91308594 c 0,126,127
 448.71875 1357.81542969 448.71875 1357.81542969 675.907226562 1353.14257812 c 128,-1,128
 903.143554688 1348.51171875 903.143554688 1348.51171875 906.737304688 1344.546875 c 0,129,130
 981.823242188 1339.73339844 981.823242188 1339.73339844 1070.01464844 1293.5703125 c 0,131,132
 1086.50488281 1285.01855469 1086.50488281 1285.01855469 1101.40820312 1252.28320312 c 128,-1,133
 1116.31152344 1219.59375 1116.31152344 1219.59375 1109.51464844 1211.85742188 c 0,134,135
 1076.97070312 1174.69140625 1076.97070312 1174.69140625 999.270507812 1136.33691406 c 0,136,137
 997.341796875 1135.39160156 997.341796875 1135.39160156 937.197265625 1143.39160156 c 0,69,70
EndSplineSet
EndChar

StartChar: F
Encoding: 70 70 41
Width: 1008
GlyphClass: 2
Flags: W
LayerCount: 2
Fore
SplineSet
152.595703125 246.288085938 m 0,0,1
 152.595703125 902.250976562 152.595703125 902.250976562 152.411132812 992.737304688 c 0,2,3
 152.411132812 1106.5703125 152.411132812 1106.5703125 143.043945312 1124.15136719 c 0,4,5
 130.078125 1148.37597656 130.078125 1148.37597656 170.68359375 1381.2109375 c 0,6,7
 180.327148438 1438.19726562 180.327148438 1438.19726562 305.880859375 1439.07421875 c 0,8,9
 415.193359375 1439.85839844 415.193359375 1439.85839844 718.764648438 1418.40234375 c 0,10,11
 757.663085938 1415.72558594 757.663085938 1415.72558594 805.282226562 1392.65429688 c 0,12,13
 810.03515625 1390.34765625 810.03515625 1390.34765625 888.616210938 1339.03710938 c 1,14,15
 820.970703125 1249.19726562 820.970703125 1249.19726562 816.217773438 1248.41308594 c 0,16,17
 809.481445312 1247.30566406 809.481445312 1247.30566406 741.190429688 1219.94335938 c 128,-1,18
 672.9453125 1192.58007812 672.9453125 1192.58007812 622.142578125 1209.33007812 c 0,19,20
 511.584960938 1245.96777344 511.584960938 1245.96777344 436.1875 1153.68261719 c 128,-1,21
 360.791015625 1061.39746094 360.791015625 1061.39746094 410.994140625 952.77734375 c 0,22,23
 447.815429688 873.2734375 447.815429688 873.2734375 563.587890625 897.314453125 c 0,24,25
 718.48828125 929.706054688 718.48828125 929.706054688 780.365234375 875.99609375 c 0,26,27
 868.08203125 799.4921875 868.08203125 799.4921875 855.30078125 784.125976562 c 0,28,29
 774.59765625 688.426757812 774.59765625 688.426757812 724.716796875 673.891601562 c 0,30,31
 683.419921875 661.89453125 683.419921875 661.89453125 585.08984375 652.342773438 c 128,-1,32
 486.759765625 642.791992188 486.759765625 642.791992188 439.325195312 624.565429688 c 0,33,34
 395.62890625 607.676757812 395.62890625 607.676757812 368.358398438 467.357421875 c 0,35,36
 360.9296875 429.474609375 360.9296875 429.474609375 339.841796875 193.547851562 c 0,37,38
 338.319335938 176.982421875 338.319335938 176.982421875 337.119140625 114.043945312 c 0,39,40
 335.642578125 22.7275390625 335.642578125 22.7275390625 257.384765625 17.236328125 c 0,41,42
 156.748046875 10.0380859375 156.748046875 10.0380859375 151.71875 94.755859375 c 0,43,44
 150.841796875 110.444335938 150.841796875 110.444335938 152.595703125 246.288085938 c 0,0,1
152.595703125 246.288085938 m 0,45,46
 152.595703125 868.290039062 152.595703125 868.290039062 152.272460938 992.737304688 c 0,47,48
 152.272460938 1106.52441406 152.272460938 1106.52441406 142.859375 1124.15136719 c 0,49,50
 129.939453125 1148.51464844 129.939453125 1148.51464844 170.499023438 1381.2109375 c 0,51,52
 180.51171875 1438.24316406 180.51171875 1438.24316406 305.696289062 1439.07421875 c 0,53,54
 413.53125 1439.99707031 413.53125 1439.99707031 718.580078125 1418.40234375 c 0,55,56
 757.432617188 1415.72558594 757.432617188 1415.72558594 805.143554688 1392.65429688 c 0,57,58
 810.219726562 1390.20898438 810.219726562 1390.20898438 888.431640625 1339.03710938 c 1,59,60
 820.786132812 1249.19726562 820.786132812 1249.19726562 816.033203125 1248.41308594 c 0,61,62
 808.927734375 1247.25976562 808.927734375 1247.25976562 740.821289062 1219.94335938 c 128,-1,63
 672.71484375 1192.67285156 672.71484375 1192.67285156 622.00390625 1209.33007812 c 0,64,65
 511.400390625 1245.82910156 511.400390625 1245.82910156 436.048828125 1153.63574219 c 128,-1,66
 360.65234375 1061.39746094 360.65234375 1061.39746094 410.85546875 952.77734375 c 0,67,68
 447.5390625 873.2734375 447.5390625 873.2734375 563.44921875 897.314453125 c 0,69,70
 718.165039062 929.706054688 718.165039062 929.706054688 780.2265625 875.99609375 c 0,71,72
 868.313476562 799.4921875 868.313476562 799.4921875 855.162109375 784.125976562 c 0,73,74
 774.135742188 688.149414062 774.135742188 688.149414062 724.579101562 673.891601562 c 0,75,76
 683.28125 661.89453125 683.28125 661.89453125 584.951171875 652.342773438 c 128,-1,77
 486.575195312 642.791992188 486.575195312 642.791992188 439.1875 624.565429688 c 0,78,79
 395.443359375 607.676757812 395.443359375 607.676757812 368.173828125 467.357421875 c 0,80,81
 360.9296875 430.3515625 360.9296875 430.3515625 339.657226562 193.547851562 c 0,82,83
 338.134765625 176.982421875 338.134765625 176.982421875 336.935546875 114.043945312 c 0,84,85
 335.458984375 22.7275390625 335.458984375 22.7275390625 257.201171875 17.236328125 c 0,86,87
 156.609375 10.26953125 156.609375 10.26953125 151.580078125 94.755859375 c 0,88,89
 150.657226562 111.044921875 150.657226562 111.044921875 152.595703125 246.288085938 c 0,45,46
EndSplineSet
EndChar

StartChar: G
Encoding: 71 71 42
Width: 1489
GlyphClass: 2
Flags: W
LayerCount: 2
Fore
SplineSet
1296.01464844 78.4287109375 m 0,0,1
 1150.31445312 23.53515625 1150.31445312 23.53515625 1056.48535156 61.7587890625 c 0,2,3
 1032.42382812 71.6513671875 1032.42382812 71.6513671875 948.181640625 52.021484375 c 0,4,5
 636.766601562 -18.884765625 636.766601562 -18.884765625 425.461914062 61.169921875 c 0,6,7
 271.106445312 119.770507812 271.106445312 119.770507812 217.76171875 245.452148438 c 0,8,9
 197.744140625 292.733398438 197.744140625 292.733398438 153.107421875 530.240234375 c 0,10,11
 104.290039062 789.853515625 104.290039062 789.853515625 289.337890625 1143.10449219 c 0,12,13
 359.690429688 1277.54394531 359.690429688 1277.54394531 524.284179688 1339.64160156 c 0,14,15
 789.436523438 1439.43066406 789.436523438 1439.43066406 994.12890625 1450.11914062 c 0,16,17
 1101.46386719 1455.63183594 1101.46386719 1455.63183594 1180.43066406 1355.74707031 c 128,-1,18
 1259.39648438 1255.86132812 1259.39648438 1255.86132812 1224.35839844 1155.73242188 c 0,19,20
 1223.47558594 1153.3046875 1223.47558594 1153.3046875 1150.46289062 1094.015625 c 1,21,22
 1123.88476562 1211.08496094 1123.88476562 1211.08496094 980.833984375 1207.96386719 c 0,23,24
 903.999023438 1206.31152344 903.999023438 1206.31152344 618.784179688 1115.63476562 c 0,25,26
 612.045898438 1113.56640625 612.045898438 1113.56640625 590.8359375 1086.88867188 c 0,27,28
 413.991210938 868.919921875 413.991210938 868.919921875 413.432617188 622.42578125 c 0,29,30
 413.448242188 608.302734375 413.448242188 608.302734375 447.282226562 508.66015625 c 0,31,32
 449.014648438 503.453125 449.014648438 503.453125 460.025390625 483.415039062 c 0,33,34
 462.52734375 377.71484375 462.52734375 377.71484375 640.23828125 234.237304688 c 0,35,36
 699.373046875 243.290039062 699.373046875 243.290039062 790.569335938 232.538085938 c 128,-1,37
 881.764648438 221.786132812 881.764648438 221.786132812 910.805664062 224.38671875 c 0,38,39
 931.384765625 226.200195312 931.384765625 226.200195312 1042.44628906 271.5546875 c 0,40,41
 1086.22167969 289.572265625 1086.22167969 289.572265625 1084.85351562 385.877929688 c 0,42,43
 1110.22167969 499.741210938 1110.22167969 499.741210938 1075.96582031 539.624023438 c 128,-1,44
 1041.70996094 579.506835938 1041.70996094 579.506835938 955.921875 571.541015625 c 0,45,46
 935.388671875 569.633789062 935.388671875 569.633789062 897.959960938 561.216796875 c 128,-1,47
 860.577148438 552.798828125 860.577148438 552.798828125 845.481445312 550.541992188 c 0,48,49
 758.385742188 537.57421875 758.385742188 537.57421875 737.6484375 607.024414062 c 0,50,51
 724.204101562 650.978515625 724.204101562 650.978515625 761.447265625 706.013671875 c 0,52,53
 771.174804688 720.38671875 771.174804688 720.38671875 842.40625 761.484375 c 0,54,55
 848.389648438 764.954101562 848.389648438 764.954101562 865.926757812 769.188476562 c 128,-1,56
 883.51171875 773.421875 883.51171875 773.421875 889.548828125 779.3828125 c 0,57,58
 943.796875 833.310546875 943.796875 833.310546875 1169.75390625 834.952148438 c 0,59,60
 1331.22167969 835.96484375 1331.22167969 835.96484375 1338.67480469 673.52734375 c 0,61,62
 1357.37109375 272.462890625 1357.37109375 272.462890625 1296.01464844 78.4287109375 c 0,0,1
1296.19921875 78.4248046875 m 0,63,64
 1150.54882812 23.66796875 1150.54882812 23.66796875 1056.30859375 62.1318359375 c 0,65,66
 1032.56445312 71.740234375 1032.56445312 71.740234375 948.049804688 52.3466796875 c 0,67,68
 636.634765625 -18.55859375 636.634765625 -18.55859375 425.28515625 61.49609375 c 0,69,70
 270.875976562 119.821289062 270.875976562 119.821289062 217.584960938 245.779296875 c 0,71,72
 197.91796875 292.221679688 197.91796875 292.221679688 152.930664062 530.61328125 c 0,73,74
 104.299804688 790.314453125 104.299804688 790.314453125 289.161132812 1143.47753906 c 0,75,76
 359.88671875 1278.09277344 359.88671875 1278.09277344 524.107421875 1339.96875 c 0,77,78
 788.981445312 1439.71777344 788.981445312 1439.71777344 993.952148438 1450.4921875 c 0,79,80
 1101.3359375 1456.14160156 1101.3359375 1456.14160156 1180.30078125 1356.16503906 c 128,-1,81
 1259.265625 1256.23339844 1259.265625 1256.23339844 1224.18164062 1156.10546875 c 0,82,83
 1223.10253906 1153.12792969 1223.10253906 1153.12792969 1150.28613281 1094.34179688 c 1,84,85
 1123.80078125 1211.40917969 1123.80078125 1211.40917969 980.658203125 1208.33691406 c 0,86,87
 904.0078125 1206.72558594 904.0078125 1206.72558594 618.606445312 1115.96191406 c 0,88,89
 612.84375 1114.1484375 612.84375 1114.1484375 590.659179688 1087.21582031 c 0,90,91
 413.8203125 869.569335938 413.8203125 869.569335938 413.254882812 622.752929688 c 0,92,93
 413.224609375 608.583984375 413.224609375 608.583984375 447.151367188 509.032226562 c 0,94,95
 448.928710938 503.685546875 448.928710938 503.685546875 459.845703125 483.649414062 c 0,96,97
 462.440429688 377.947265625 462.440429688 377.947265625 640.060546875 234.564453125 c 0,98,99
 699.376953125 243.474609375 699.376953125 243.474609375 790.436523438 232.817382812 c 128,-1,100
 881.497070312 222.161132812 881.497070312 222.161132812 910.629882812 224.759765625 c 0,101,102
 931.53125 226.612304688 931.53125 226.612304688 1042.26953125 271.927734375 c 0,103,104
 1085.99902344 289.899414062 1085.99902344 289.899414062 1084.72363281 386.25 c 0,105,106
 1110.1796875 499.926757812 1110.1796875 499.926757812 1075.83300781 539.903320312 c 128,-1,107
 1041.53320312 579.833984375 1041.53320312 579.833984375 955.745117188 571.8671875 c 0,108,109
 935.166992188 570.053710938 935.166992188 570.053710938 897.69140625 561.591796875 c 128,-1,110
 860.260742188 553.12890625 860.260742188 553.12890625 845.3515625 550.9140625 c 0,111,112
 758.578125 537.938476562 758.578125 537.938476562 737.471679688 607.3515625 c 0,113,114
 724.026367188 651.3046875 724.026367188 651.3046875 761.31640625 706.385742188 c 0,115,116
 771.043945312 720.712890625 771.043945312 720.712890625 842.228515625 761.811523438 c 0,117,118
 848.212890625 765.327148438 848.212890625 765.327148438 865.84375 769.559570312 c 128,-1,119
 883.42578125 773.74609375 883.42578125 773.74609375 889.41796875 779.754882812 c 0,120,121
 943.71484375 833.727539062 943.71484375 833.727539062 1169.57714844 835.278320312 c 0,122,123
 1331.09570312 836.567382812 1331.09570312 836.567382812 1338.49707031 673.854492188 c 0,124,125
 1357.51953125 272.919921875 1357.51953125 272.919921875 1296.19921875 78.4248046875 c 0,63,64
EndSplineSet
EndChar

StartChar: H
Encoding: 72 72 43
Width: 1294
GlyphClass: 2
Flags: W
LayerCount: 2
Fore
SplineSet
484.3359375 1136.03125 m 0,0,1
 484.401367188 977.171875 484.401367188 977.171875 491.3203125 967.055664062 c 0,2,3
 494.171875 962.857421875 494.171875 962.857421875 645.857421875 939.836914062 c 0,4,5
 654.342773438 938.5625 654.342773438 938.5625 686.556640625 931.977539062 c 128,-1,6
 718.813476562 925.391601562 718.813476562 925.391601562 736.416992188 924.477539062 c 0,7,8
 844.841796875 918.766601562 844.841796875 918.766601562 834.486328125 1041.24511719 c 0,9,10
 819.118164062 1223.54785156 819.118164062 1223.54785156 832.396484375 1304.13378906 c 0,11,12
 849.4375 1405.93261719 849.4375 1405.93261719 932.17578125 1406.08789062 c 0,13,14
 1031.22753906 1406.359375 1031.22753906 1406.359375 1062.078125 1323.15625 c 0,15,16
 1101.68261719 1215.7109375 1101.68261719 1215.7109375 1100.59667969 1064.84863281 c 0,17,18
 1099.77050781 975.919921875 1099.77050781 975.919921875 1089.26074219 779.537109375 c 128,-1,19
 1078.75195312 583.200195312 1078.75195312 583.200195312 1079.59472656 494.424804688 c 0,20,21
 1079.80078125 432.5625 1079.80078125 432.5625 1098.50683594 316.760742188 c 128,-1,22
 1117.20898438 200.913085938 1117.20898438 200.913085938 1119.828125 177.833984375 c 0,23,24
 1133.65332031 52.5126953125 1133.65332031 52.5126953125 1118.21875 44.45703125 c 0,25,26
 1044.42089844 6.283203125 1044.42089844 6.283203125 942.31640625 16.779296875 c 0,27,28
 905.158203125 20.31640625 905.158203125 20.31640625 890.819335938 114.850585938 c 0,29,30
 848.440429688 395.372070312 848.440429688 395.372070312 830.2421875 599.192382812 c 0,31,32
 821.141601562 700.086914062 821.141601562 700.086914062 727.1640625 682.811523438 c 0,33,34
 641.106445312 666.966796875 641.106445312 666.966796875 575.405273438 671.60546875 c 0,35,36
 446.5 680.904296875 446.5 680.904296875 437.100585938 537.9609375 c 0,37,38
 431.66015625 454.09765625 431.66015625 454.09765625 418.19140625 295.268554688 c 128,-1,39
 404.76953125 136.4375 404.76953125 136.4375 402.860351562 112.369140625 c 0,40,41
 394.299804688 5.2314453125 394.299804688 5.2314453125 245.151367188 10.3486328125 c 0,42,43
 165.877929688 13.1728515625 165.877929688 13.1728515625 172.701171875 134.571289062 c 0,44,45
 181.82421875 293.326171875 181.82421875 293.326171875 201.551757812 588.178710938 c 128,-1,46
 221.276367188 882.984375 221.276367188 882.984375 228.854492188 1007.67480469 c 0,47,48
 232.451171875 1067.87988281 232.451171875 1067.87988281 235.54296875 1183.54101562 c 128,-1,49
 238.634765625 1299.20117188 238.634765625 1299.20117188 241.591796875 1353.61914062 c 0,50,51
 248.924804688 1484.97167969 248.924804688 1484.97167969 325.735351562 1468.95996094 c 0,52,53
 433.694335938 1446.31738281 433.694335938 1446.31738281 474.086914062 1355.74121094 c 0,54,55
 481.069335938 1340.07910156 481.069335938 1340.07910156 484.3359375 1136.03125 c 0,0,1
484.3359375 1136.03125 m 0,56,57
 484.40625 977.263671875 484.40625 977.263671875 491.326171875 967.194335938 c 0,58,59
 494.180664062 963.041992188 494.180664062 963.041992188 645.866210938 940.021484375 c 0,60,61
 654.583007812 938.73828125 654.583007812 938.73828125 686.705078125 932.202148438 c 128,-1,62
 718.875 925.7109375 718.875 925.7109375 736.42578125 924.659179688 c 0,63,64
 844.850585938 918.951171875 844.850585938 918.951171875 834.495117188 1041.42871094 c 0,65,66
 819.126953125 1223.73242188 819.126953125 1223.73242188 832.40625 1304.31835938 c 0,67,68
 848.963867188 1405.67773438 848.963867188 1405.67773438 932.185546875 1406.27246094 c 0,69,70
 1031.51074219 1406.53125 1031.51074219 1406.53125 1062.08496094 1323.29492188 c 0,71,72
 1101.69335938 1215.94042969 1101.69335938 1215.94042969 1100.60644531 1065.03320312 c 0,73,74
 1099.81152344 975.825195312 1099.81152344 975.825195312 1089.32128906 779.858398438 c 128,-1,75
 1078.87695312 583.887695312 1078.87695312 583.887695312 1079.60449219 494.609375 c 0,76,77
 1079.81835938 432.931640625 1079.81835938 432.931640625 1098.46582031 317.872070312 c 128,-1,78
 1117.06933594 202.860351562 1117.06933594 202.860351562 1119.83398438 177.971679688 c 0,79,80
 1133.65039062 52.466796875 1133.65039062 52.466796875 1118.22460938 44.595703125 c 0,81,82
 1044.4296875 6.4677734375 1044.4296875 6.4677734375 942.323242188 16.91796875 c 0,83,84
 905.168945312 20.5458984375 905.168945312 20.5458984375 890.827148438 115.03515625 c 0,85,86
 848.813476562 391.475585938 848.813476562 391.475585938 830.251953125 599.376953125 c 0,87,88
 820.920898438 700.283203125 820.920898438 700.283203125 727.170898438 682.950195312 c 0,89,90
 641.022460938 667.15625 641.022460938 667.15625 575.415039062 671.790039062 c 0,91,92
 446.508789062 681.088867188 446.508789062 681.088867188 437.106445312 538.099609375 c 0,93,94
 431.581054688 454.377929688 431.581054688 454.377929688 418.232421875 296.14453125 c 128,-1,95
 404.884765625 137.912109375 404.884765625 137.912109375 402.866210938 112.5078125 c 0,96,97
 394.30859375 5.416015625 394.30859375 5.416015625 245.16015625 10.533203125 c 0,98,99
 165.470703125 13.376953125 165.470703125 13.376953125 172.708007812 134.709960938 c 0,100,101
 181.815429688 292.171875 181.815429688 292.171875 201.450195312 586.012695312 c 128,-1,102
 221.083984375 879.852539062 221.083984375 879.852539062 228.861328125 1007.8125 c 0,103,104
 232.458007812 1068.01855469 232.458007812 1068.01855469 235.549804688 1183.6796875 c 128,-1,105
 238.640625 1299.33984375 238.640625 1299.33984375 241.59765625 1353.75683594 c 0,106,107
 248.932617188 1485.109375 248.932617188 1485.109375 325.7421875 1469.09667969 c 0,108,109
 433.381835938 1446.5625 433.381835938 1446.5625 474.092773438 1355.87988281 c 0,110,111
 480.663085938 1341.25292969 480.663085938 1341.25292969 484.3359375 1136.03125 c 0,56,57
EndSplineSet
EndChar

StartChar: I
Encoding: 73 73 44
Width: 604
GlyphClass: 2
Flags: W
LayerCount: 2
Fore
SplineSet
460.419921875 1014.40625 m 0,0,1
 460.419921875 768.512695312 460.419921875 768.512695312 459.266601562 752.546875 c 0,2,3
 444.638671875 549.612304688 444.638671875 549.612304688 414 283 c 0,4,5
 409.754882812 245.670898438 409.754882812 245.670898438 375.102539062 83.6181640625 c 0,6,7
 352.861328125 -21.541015625 352.861328125 -21.541015625 241.426757812 23.5400390625 c 0,8,9
 103.599609375 79.603515625 103.599609375 79.603515625 150.295898438 174.934570312 c 0,10,11
 278.6640625 437.854492188 278.6640625 437.854492188 252.36328125 885.20703125 c 0,12,13
 235.567382812 1172.25976562 235.567382812 1172.25976562 238.197265625 1323.515625 c 0,14,15
 238.56640625 1344.37207031 238.56640625 1344.37207031 269.205078125 1374.73339844 c 128,-1,16
 299.84375 1405.09570312 299.84375 1405.09570312 315.532226562 1401.68066406 c 0,17,18
 402.6953125 1382.80859375 402.6953125 1382.80859375 415.569335938 1321.9921875 c 0,19,20
 422.767578125 1287.66210938 422.767578125 1287.66210938 460.419921875 1014.40625 c 0,0,1
460.419921875 1014.40625 m 0,21,22
 460.419921875 768.512695312 460.419921875 768.512695312 459.266601562 752.546875 c 0,23,24
 444.870117188 549.658203125 444.870117188 549.658203125 414 283 c 0,25,26
 409.754882812 245.670898438 409.754882812 245.670898438 375.102539062 83.6181640625 c 0,27,28
 352.954101562 -21.2177734375 352.954101562 -21.2177734375 241.426757812 23.5400390625 c 0,29,30
 103.599609375 79.603515625 103.599609375 79.603515625 150.295898438 174.934570312 c 0,31,32
 278.6640625 438.26953125 278.6640625 438.26953125 252.36328125 885.20703125 c 0,33,34
 235.567382812 1172.25976562 235.567382812 1172.25976562 238.197265625 1323.515625 c 0,35,36
 238.56640625 1344.46386719 238.56640625 1344.46386719 269.205078125 1374.77929688 c 128,-1,37
 299.84375 1405.09570312 299.84375 1405.09570312 315.532226562 1401.68066406 c 0,38,39
 402.556640625 1383.36230469 402.556640625 1383.36230469 415.569335938 1321.9921875 c 0,40,41
 422.767578125 1287.66210938 422.767578125 1287.66210938 460.419921875 1014.40625 c 0,21,22
EndSplineSet
AlternateSubs2: "'aalt' Access All Alternates in Latin lookup 29 subtable" I.alt
Substitution2: "'salt' Stilistische Alternativformen in Latin lookup 28 subtable" I.alt
EndChar

StartChar: J
Encoding: 74 74 45
Width: 967
GlyphClass: 2
Flags: W
LayerCount: 2
Fore
SplineSet
580.633789062 -110.676757812 m 0,0,1
 288.75 -135.5859375 288.75 -135.5859375 165.467773438 112.901367188 c 0,2,3
 124.655273438 195.028320312 124.655273438 195.028320312 104.032226562 258.541015625 c 0,4,5
 101.224609375 267.103515625 101.224609375 267.103515625 112.978515625 285.78515625 c 0,6,7
 178.3671875 299.672851562 178.3671875 299.672851562 188.703125 274.646484375 c 0,8,9
 257.61328125 106.58203125 257.61328125 106.58203125 493.216796875 54.8046875 c 0,10,11
 660.859375 17.7470703125 660.859375 17.7470703125 661.357421875 190.934570312 c 0,12,13
 661.70703125 291.830078125 661.70703125 291.830078125 658.940429688 551.930664062 c 128,-1,14
 656.177734375 811.998046875 656.177734375 811.998046875 658.275390625 953.368164062 c 0,15,16
 660.186523438 1077.88183594 660.186523438 1077.88183594 693.3359375 1346.609375 c 0,17,18
 699.979492188 1401.3828125 699.979492188 1401.3828125 748.673828125 1403.61914062 c 0,19,20
 800.147460938 1405.74902344 800.147460938 1405.74902344 809.004882812 1352.28222656 c 0,21,22
 818.624023438 1294.68359375 818.624023438 1294.68359375 823.890625 1142.42089844 c 0,23,24
 831.729492188 921.04296875 831.729492188 921.04296875 832.196289062 803.692382812 c 0,25,26
 832.396484375 760.971679688 832.396484375 760.971679688 831.334960938 712.456054688 c 128,-1,27
 830.30859375 663.943359375 830.30859375 663.943359375 828.524414062 605.797851562 c 128,-1,28
 826.775390625 547.620117188 826.775390625 547.620117188 826.08984375 514.536132812 c 0,29,30
 825.934570312 503.432617188 825.934570312 503.432617188 827.036132812 478.228515625 c 128,-1,31
 828.13671875 453.024414062 828.13671875 453.024414062 827.5703125 439.63671875 c 0,32,33
 813.4921875 108.159179688 813.4921875 108.159179688 808 69 c 0,34,35
 785.521484375 -91.0908203125 785.521484375 -91.0908203125 580.633789062 -110.676757812 c 0,0,1
580.633789062 -110.676757812 m 0,36,37
 288.633789062 -135.353515625 288.633789062 -135.353515625 165.459960938 113.037109375 c 0,38,39
 124.573242188 195.262695312 124.573242188 195.262695312 104.024414062 258.676757812 c 0,40,41
 101.217773438 267.206054688 101.217773438 267.206054688 112.971679688 285.887695312 c 0,42,43
 178.411132812 300.086914062 178.411132812 300.086914062 188.694335938 274.783203125 c 0,44,45
 257.604492188 106.71875 257.604492188 106.71875 493.208984375 54.9404296875 c 0,46,47
 660.642578125 17.939453125 660.642578125 17.939453125 661.350585938 191.037109375 c 0,48,49
 661.619140625 289.291015625 661.619140625 289.291015625 658.8984375 550.353515625 c 128,-1,50
 656.1796875 811.381835938 656.1796875 811.381835938 658.267578125 953.504882812 c 0,51,52
 660.224609375 1080.109375 660.224609375 1080.109375 693.328125 1346.74511719 c 0,53,54
 699.971679688 1401.51855469 699.971679688 1401.51855469 748.665039062 1403.75585938 c 0,55,56
 800.48046875 1405.90625 800.48046875 1405.90625 808.997070312 1352.41894531 c 0,57,58
 818.240234375 1297.09179688 818.240234375 1297.09179688 823.884765625 1142.5234375 c 0,59,60
 831.693359375 927.340820312 831.693359375 927.340820312 832.1875 803.829101562 c 0,61,62
 832.388671875 761.107421875 832.388671875 761.107421875 831.327148438 712.592773438 c 128,-1,63
 830.299804688 664.080078125 830.299804688 664.080078125 828.522460938 605.83203125 c 128,-1,64
 826.744140625 547.583984375 826.744140625 547.583984375 826.08203125 514.672851562 c 0,65,66
 825.829101562 502.912109375 825.829101562 502.912109375 826.921875 477.844726562 c 128,-1,67
 828.046875 452.813476562 828.046875 452.813476562 827.5625 439.7734375 c 0,68,69
 813.513671875 108.366210938 813.513671875 108.366210938 807.9921875 69.13671875 c 0,70,71
 785.3515625 -91.1005859375 785.3515625 -91.1005859375 580.633789062 -110.676757812 c 0,36,37
EndSplineSet
AlternateSubs2: "'aalt' Access All Alternates in Latin lookup 29 subtable" J.alt
Substitution2: "'salt' Stilistische Alternativformen in Latin lookup 28 subtable" J.alt
EndChar

StartChar: K
Encoding: 75 75 46
Width: 1301
GlyphClass: 2
Flags: W
LayerCount: 2
Fore
SplineSet
122.645507812 912.47265625 m 2,0,1
 122.43359375 1198.82617188 122.43359375 1198.82617188 125.592773438 1230.96582031 c 0,2,3
 126.377929688 1238.61816406 126.377929688 1238.61816406 208.349609375 1356.67382812 c 1,4,5
 308.513671875 1261.49023438 308.513671875 1261.49023438 309.9375 1255.77050781 c 0,6,7
 329.276367188 1179.53417969 329.276367188 1179.53417969 352.8359375 1035.63769531 c 128,-1,8
 376.401367188 891.6953125 376.401367188 891.6953125 383.676757812 854.592773438 c 0,9,10
 384.526367188 850.263671875 384.526367188 850.263671875 430.6796875 746.83984375 c 1,11,12
 501.573242188 807.5078125 501.573242188 807.5078125 504.423828125 810.696289062 c 0,13,14
 516.84765625 824.541015625 516.84765625 824.541015625 689.47265625 1018.61523438 c 128,-1,15
 862.095703125 1212.68847656 862.095703125 1212.68847656 952.983398438 1310.38671875 c 0,16,17
 970.96484375 1329.48535156 970.96484375 1329.48535156 1011.29785156 1343.35546875 c 128,-1,18
 1051.62988281 1357.22558594 1051.62988281 1357.22558594 1060.30664062 1348.14355469 c 0,19,20
 1165.21289062 1237.45800781 1165.21289062 1237.45800781 1097.73535156 1159.84179688 c 0,21,22
 990.486328125 1035.99804688 990.486328125 1035.99804688 872.8125 937.532226562 c 0,23,24
 750.251953125 835.301757812 750.251953125 835.301757812 837.197265625 709.360351562 c 0,25,26
 946.008789062 552.047851562 946.008789062 552.047851562 1146.61425781 244.275390625 c 0,27,28
 1233.3203125 111.973632812 1233.3203125 111.973632812 1086.87695312 33.2255859375 c 0,29,30
 957.61328125 -36.8095703125 957.61328125 -36.8095703125 879.896484375 93.607421875 c 0,31,32
 816.489257812 199.833984375 816.489257812 199.833984375 614.543945312 514.62890625 c 0,33,34
 563.759765625 594.033203125 563.759765625 594.033203125 494.438476562 505.1640625 c 0,35,36
 409.862304688 396.669921875 409.862304688 396.669921875 385.87890625 114.288085938 c 0,37,38
 376.428710938 5.744140625 376.428710938 5.744140625 241.45703125 8.7138671875 c 0,39,40
 131.99609375 11.009765625 131.99609375 11.009765625 131.4296875 127.418945312 c 0,41,42
 131.321289062 159.348632812 131.321289062 159.348632812 148.111328125 276.33984375 c 0,43,44
 149.48828125 285.890625 149.48828125 285.890625 157.89453125 317.240234375 c 128,-1,45
 166.3046875 348.544921875 166.3046875 348.544921875 165.580078125 365.381835938 c 0,46,47
 164.768554688 382.721679688 164.768554688 382.721679688 144.974609375 629.16015625 c 2,48,-1
 122.645507812 912.47265625 l 2,0,1
122.645507812 912.47265625 m 0,49,50
 122.436523438 1196.41894531 122.436523438 1196.41894531 125.9609375 1230.99414062 c 0,51,52
 126.700195312 1238.04199219 126.700195312 1238.04199219 208.669921875 1356.69824219 c 1,53,54
 308.633789062 1262.33300781 308.633789062 1262.33300781 310.259765625 1255.796875 c 0,55,56
 329.399414062 1179.72949219 329.399414062 1179.72949219 352.838867188 1036.79492188 c 128,-1,57
 376.276367188 893.860351562 376.276367188 893.860351562 383.997070312 854.618164062 c 0,58,59
 385.391601562 847.505859375 385.391601562 847.505859375 431.045898438 746.870117188 c 1,60,61
 502.150390625 807.83203125 502.150390625 807.83203125 504.74609375 810.719726562 c 0,62,63
 515.895507812 823.124023438 515.895507812 823.124023438 689.109375 1017.93945312 c 128,-1,64
 862.369140625 1212.75585938 862.369140625 1212.75585938 953.352539062 1310.41503906 c 0,65,66
 971.196289062 1329.50292969 971.196289062 1329.50292969 1011.52734375 1343.37402344 c 128,-1,67
 1051.90332031 1357.29394531 1051.90332031 1357.29394531 1060.62988281 1348.16992188 c 0,68,69
 1165.484375 1237.52441406 1165.484375 1237.52441406 1098.05761719 1159.86621094 c 0,70,71
 990.80859375 1036.02441406 990.80859375 1036.02441406 873.133789062 937.556640625 c 0,72,73
 750.573242188 835.325195312 750.573242188 835.325195312 837.518554688 709.385742188 c 0,74,75
 940.422851562 560.678710938 940.422851562 560.678710938 1146.93652344 244.30078125 c 0,76,77
 1233.67773438 112.140625 1233.67773438 112.140625 1087.19824219 33.25 c 0,78,79
 957.875 -36.6044921875 957.875 -36.6044921875 880.263671875 93.6376953125 c 0,80,81
 816.329101562 200.702148438 816.329101562 200.702148438 614.912109375 514.657226562 c 0,82,83
 564.125976562 594.063476562 564.125976562 594.063476562 494.759765625 505.188476562 c 0,84,85
 410.268554688 396.794921875 410.268554688 396.794921875 386.201171875 114.3125 c 0,86,87
 376.750976562 5.7685546875 376.750976562 5.7685546875 241.779296875 8.73828125 c 0,88,89
 132.086914062 11.0166015625 132.086914062 11.0166015625 131.751953125 127.4453125 c 0,90,91
 131.568359375 160.895507812 131.568359375 160.895507812 148.434570312 276.366210938 c 0,92,93
 166.626953125 348.569335938 166.626953125 348.569335938 165.900390625 365.407226562 c 0,94,95
 165.029296875 385.287109375 165.029296875 385.287109375 145.296875 629.185546875 c 0,96,97
 138.286132812 714.029296875 138.286132812 714.029296875 122.645507812 912.47265625 c 0,49,50
EndSplineSet
EndChar

StartChar: L
Encoding: 76 76 47
Width: 1336
GlyphClass: 2
Flags: W
LayerCount: 2
Fore
SplineSet
471.033203125 967.280273438 m 0,0,1
 390.646484375 455.563476562 390.646484375 455.563476562 377.944335938 342.578125 c 0,2,3
 367.657226562 250.477539062 367.657226562 250.477539062 463.173828125 240.1171875 c 0,4,5
 564.397460938 229.3515625 564.397460938 229.3515625 744.750976562 219.744140625 c 128,-1,6
 925.10546875 210.135742188 925.10546875 210.135742188 1026.71191406 201.797851562 c 0,7,8
 1068.5078125 198.122070312 1068.5078125 198.122070312 1201.83300781 141.75390625 c 0,9,10
 1208.3125 138.8984375 1208.3125 138.8984375 1211.58203125 117.2421875 c 0,11,12
 1122.3515625 21.060546875 1122.3515625 21.060546875 1096.04785156 19.6083984375 c 0,13,14
 817.151367188 4.490234375 817.151367188 4.490234375 449.008789062 2.3955078125 c 0,15,16
 328.086914062 2.0009765625 328.086914062 2.0009765625 178.221679688 26.0234375 c 0,17,18
 117.181640625 36.171875 117.181640625 36.171875 125.9296875 92.537109375 c 0,19,20
 245.537109375 841.196289062 245.537109375 841.196289062 237.432617188 929.729492188 c 0,21,22
 233.146484375 977.29296875 233.146484375 977.29296875 238.240234375 1067.68359375 c 128,-1,23
 243.3359375 1158.07324219 243.3359375 1158.07324219 241.565429688 1197.80566406 c 0,24,25
 234.205078125 1362.62304688 234.205078125 1362.62304688 363.713867188 1357.62597656 c 0,26,27
 434.508789062 1354.86621094 434.508789062 1354.86621094 459.711914062 1210.70898438 c 0,28,29
 463.110351562 1191.12597656 463.110351562 1191.12597656 471.033203125 967.280273438 c 0,0,1
471.033203125 967.280273438 m 0,30,31
 389.494140625 445.278320312 389.494140625 445.278320312 377.932617188 342.393554688 c 0,32,33
 367.57421875 249.881835938 367.57421875 249.881835938 463.162109375 239.932617188 c 0,34,35
 563.924804688 229.197265625 563.924804688 229.197265625 744.743164062 219.60546875 c 128,-1,36
 925.563476562 210.060546875 925.563476562 210.060546875 1026.70117188 201.614257812 c 0,37,38
 1068.63378906 197.9296875 1068.63378906 197.9296875 1201.82519531 141.615234375 c 0,39,40
 1208.44238281 138.751953125 1208.44238281 138.751953125 1211.71191406 117.095703125 c 0,41,42
 1122.71191406 20.900390625 1122.71191406 20.900390625 1096.03613281 19.423828125 c 0,43,44
 813.120117188 4.3271484375 813.120117188 4.3271484375 449.000976562 2.2568359375 c 0,45,46
 328.1640625 1.765625 328.1640625 1.765625 178.211914062 25.8388671875 c 0,47,48
 117.171875 35.9873046875 117.171875 35.9873046875 125.921875 92.400390625 c 0,49,50
 245.31640625 842.829101562 245.31640625 842.829101562 237.422851562 929.592773438 c 0,51,52
 233.012695312 977.39453125 233.012695312 977.39453125 238.116210938 1067.92285156 c 128,-1,53
 243.219726562 1158.45019531 243.219726562 1158.45019531 241.553710938 1197.62109375 c 0,54,55
 234.197265625 1362.48535156 234.197265625 1362.48535156 363.702148438 1357.44238281 c 0,56,57
 435.05078125 1354.64746094 435.05078125 1354.64746094 459.69921875 1210.52539062 c 0,58,59
 463.090820312 1190.80273438 463.090820312 1190.80273438 471.033203125 967.280273438 c 0,30,31
EndSplineSet
EndChar

StartChar: M
Encoding: 77 77 48
Width: 1707
GlyphClass: 2
Flags: W
LayerCount: 2
Fore
SplineSet
385.609375 582.944335938 m 2,0,1
 371.747070312 320.455078125 371.747070312 320.455078125 367.478515625 96.037109375 c 0,2,3
 366.158203125 24.5322265625 366.158203125 24.5322265625 231.3671875 8.8896484375 c 0,4,5
 151.270507812 -0.3623046875 151.270507812 -0.3623046875 154.693359375 108.403320312 c 0,6,7
 168.810546875 532.859375 168.810546875 532.859375 166.873046875 711.899414062 c 0,8,9
 165.893554688 799.87109375 165.893554688 799.87109375 155.22265625 994.716796875 c 128,-1,10
 144.59765625 1189.56542969 144.59765625 1189.56542969 145.2890625 1277.39257812 c 0,11,12
 145.359375 1356.82617188 145.359375 1356.82617188 208.330078125 1457.08105469 c 0,13,14
 218.125 1472.890625 218.125 1472.890625 260.372070312 1478.765625 c 128,-1,15
 302.616210938 1484.68457031 302.616210938 1484.68457031 316.212890625 1472.18554688 c 0,16,17
 404.65234375 1390.52636719 404.65234375 1390.52636719 586.033203125 1190.85058594 c 0,18,19
 600.060546875 1175.41601562 600.060546875 1175.41601562 684.112304688 1078.78613281 c 128,-1,20
 768.165039062 982.15625 768.165039062 982.15625 816.448242188 934.794921875 c 0,21,22
 823.854492188 927.514648438 823.854492188 927.514648438 862.52734375 945.999023438 c 128,-1,23
 901.201171875 964.4375 901.201171875 964.4375 918.244140625 984.788085938 c 0,24,25
 992.092773438 1072.35449219 992.092773438 1072.35449219 1225.078125 1370.63476562 c 0,26,27
 1252.78027344 1406.14746094 1252.78027344 1406.14746094 1251.99316406 1421.12304688 c 0,28,29
 1246.88964844 1513.68359375 1246.88964844 1513.68359375 1360.80957031 1513.30273438 c 0,30,31
 1437.7578125 1513.00878906 1437.7578125 1513.00878906 1485.38671875 1455.26171875 c 0,32,33
 1500.98535156 1436.30664062 1500.98535156 1436.30664062 1507.75878906 1163.62988281 c 0,34,35
 1511.43066406 1022.75390625 1511.43066406 1022.75390625 1522 764 c 128,-1,36
 1532.57226562 505.19921875 1532.57226562 505.19921875 1535.21875 430.299804688 c 0,37,38
 1539.44433594 307.890625 1539.44433594 307.890625 1531.39941406 233.352539062 c 0,39,40
 1526.40429688 188.684570312 1526.40429688 188.684570312 1524.7578125 151.494140625 c 0,41,42
 1522.16699219 96.2333984375 1522.16699219 96.2333984375 1515.69433594 70.8486328125 c 0,43,44
 1500.21386719 10.2900390625 1500.21386719 10.2900390625 1461.765625 10.3916015625 c 0,45,46
 1432.92773438 10.490234375 1432.92773438 10.490234375 1297.0234375 45.80078125 c 0,47,48
 1283.37988281 49.5654296875 1283.37988281 49.5654296875 1280.64160156 68.2275390625 c 0,49,50
 1278.55566406 81.5166015625 1278.55566406 81.5166015625 1269.20410156 389.129882812 c 0,51,52
 1268.03515625 428.8984375 1268.03515625 428.8984375 1273.24707031 728.452148438 c 0,53,54
 1274.66113281 829.764648438 1274.66113281 829.764648438 1262.78710938 920.166015625 c 0,55,56
 1257.62402344 961.203125 1257.62402344 961.203125 1220.53320312 982.908203125 c 0,57,58
 1199.89160156 994.9453125 1199.89160156 994.9453125 1162.37402344 954.526367188 c 0,59,60
 1106.97558594 893.899414062 1106.97558594 893.899414062 1038.640625 805.143554688 c 0,61,62
 854.647460938 565.444335938 854.647460938 565.444335938 621.53515625 756.853515625 c 0,63,64
 590.383789062 782.475585938 590.383789062 782.475585938 533.56640625 832.20703125 c 128,-1,65
 476.747070312 881.983398438 476.747070312 881.983398438 451.125976562 903.4609375 c 0,66,67
 448.22265625 905.942382812 448.22265625 905.942382812 397.265625 935.651367188 c 1,68,69
 384.8671875 881.4921875 384.8671875 881.4921875 384.844726562 879.271484375 c 0,70,71
 384.49609375 840.256835938 384.49609375 840.256835938 385.575195312 602.904296875 c 2,72,-1
 385.609375 582.944335938 l 2,0,1
EndSplineSet
EndChar

StartChar: N
Encoding: 78 78 49
Width: 1532
GlyphClass: 2
Flags: W
LayerCount: 2
Fore
SplineSet
1091.30859375 1368.24707031 m 0,0,1
 1264.37304688 1495.19140625 1264.37304688 1495.19140625 1332.15820312 1328.64160156 c 0,2,3
 1347.65429688 1322.59765625 1347.65429688 1322.59765625 1343.24707031 1230.87792969 c 128,-1,4
 1338.83691406 1139.20214844 1338.83691406 1139.20214844 1339.65625 1126.3515625 c 0,5,6
 1342.79296875 1075.95898438 1342.79296875 1075.95898438 1355.72265625 921.233398438 c 128,-1,7
 1368.60644531 766.5078125 1368.60644531 766.5078125 1371.65625 681.982421875 c 0,8,9
 1373.59667969 628.16796875 1373.59667969 628.16796875 1371.07910156 236.934570312 c 0,10,11
 1387.61523438 39.318359375 1387.61523438 39.318359375 1278.08007812 19.28515625 c 0,12,13
 1116.39160156 -10.3330078125 1116.39160156 -10.3330078125 1009.42382812 135.76953125 c 0,14,15
 775.439453125 454.517578125 775.439453125 454.517578125 708.104492188 540.125976562 c 0,16,17
 646.619140625 618.405273438 646.619140625 618.405273438 475.202148438 805.715820312 c 0,18,19
 438.74609375 845.654296875 438.74609375 845.654296875 417.043945312 831.255859375 c 0,20,21
 387.517578125 811.864257812 387.517578125 811.864257812 383.145507812 768.682617188 c 0,22,23
 363.135742188 573.639648438 363.135742188 573.639648438 336.80078125 257.791015625 c 0,24,25
 335.046875 235.826171875 335.046875 235.826171875 335.323242188 190.85546875 c 0,26,27
 335.873046875 105.346679688 335.873046875 105.346679688 322.802734375 66.9267578125 c 0,28,29
 305.713867188 16.4677734375 305.713867188 16.4677734375 210.791992188 12.4736328125 c 0,30,31
 156.091796875 10.6796875 156.091796875 10.6796875 148.4765625 92.888671875 c 0,32,33
 146.56640625 113.037109375 146.56640625 113.037109375 139 407 c 0,34,35
 124.111328125 1004.44726562 124.111328125 1004.44726562 124.846679688 1068.2109375 c 0,36,37
 126.642578125 1224.15722656 126.642578125 1224.15722656 190.834960938 1250.55078125 c 0,38,39
 369.421875 1324.20117188 369.421875 1324.20117188 466.932617188 1221.71289062 c 0,40,41
 726.416992188 948.92578125 726.416992188 948.92578125 800.791015625 850.822265625 c 0,42,43
 847.5859375 789.057617188 847.5859375 789.057617188 916.543945312 661.629882812 c 128,-1,44
 985.501953125 534.15625 985.501953125 534.15625 1004.34765625 503.360351562 c 0,45,46
 1035.34765625 452.615234375 1035.34765625 452.615234375 1103.45800781 393.594726562 c 0,47,48
 1125.02832031 374.875976562 1125.02832031 374.875976562 1167.6171875 391.169921875 c 0,49,50
 1181.70800781 396.51953125 1181.70800781 396.51953125 1177.03808594 443.844726562 c 0,51,52
 1165.48828125 556.971679688 1165.48828125 556.971679688 1139.13476562 805.712890625 c 128,-1,53
 1112.77929688 1054.45605469 1112.77929688 1054.45605469 1099.48144531 1186.12011719 c 0,54,55
 1098.61035156 1194.72070312 1098.61035156 1194.72070312 1091.30859375 1368.24707031 c 0,0,1
1091.30859375 1368.24707031 m 0,56,57
 1264.1875 1495.22851562 1264.1875 1495.22851562 1331.84277344 1328.49121094 c 0,58,59
 1347.37207031 1322.72460938 1347.37207031 1322.72460938 1342.92773438 1230.77148438 c 128,-1,60
 1338.48339844 1138.86425781 1338.48339844 1138.86425781 1339.29492188 1126.15136719 c 0,61,62
 1342.28027344 1079.35546875 1342.28027344 1079.35546875 1355.27246094 923.154296875 c 128,-1,63
 1368.21777344 766.953125 1368.21777344 766.953125 1371.34082031 681.784179688 c 0,64,65
 1373.17675781 630.459960938 1373.17675781 630.459960938 1370.76367188 236.736328125 c 0,66,67
 1387.24414062 39.3486328125 1387.24414062 39.3486328125 1277.76367188 19.1328125 c 0,68,69
 1116.07519531 -10.486328125 1116.07519531 -10.486328125 1009.06347656 135.568359375 c 0,70,71
 774.875 454.770507812 774.875 454.770507812 707.790039062 539.926757812 c 0,72,73
 645.865234375 618.7421875 645.865234375 618.7421875 474.840820312 805.516601562 c 0,74,75
 438.522460938 845.4609375 438.522460938 845.4609375 416.727539062 831.103515625 c 0,76,77
 387.201171875 811.711914062 387.201171875 811.711914062 382.78515625 768.482421875 c 0,78,79
 362.296875 568.33984375 362.296875 568.33984375 336.484375 257.640625 c 0,80,81
 334.732421875 235.627929688 334.732421875 235.627929688 335.0078125 190.657226562 c 0,82,83
 335.557617188 105.1484375 335.557617188 105.1484375 322.487304688 66.7294921875 c 0,84,85
 305.352539062 16.267578125 305.352539062 16.267578125 210.475585938 12.275390625 c 0,86,87
 156.287109375 10.4580078125 156.287109375 10.4580078125 148.161132812 92.69140625 c 0,88,89
 146.235351562 113.208007812 146.235351562 113.208007812 138.684570312 406.801757812 c 0,90,91
 123.739257812 1002.35546875 123.739257812 1002.35546875 124.529296875 1068.06054688 c 0,92,93
 126.329101562 1223.91210938 126.329101562 1223.91210938 190.47265625 1250.39648438 c 0,94,95
 369.111328125 1323.91015625 369.111328125 1323.91015625 466.572265625 1221.51171875 c 0,96,97
 725.466796875 949.532226562 725.466796875 949.532226562 800.473632812 850.669921875 c 0,98,99
 847.321289062 788.76953125 847.321289062 788.76953125 916.623046875 660.84765625 c 128,-1,100
 985.924804688 532.879882812 985.924804688 532.879882812 1004.03125 503.208007812 c 0,101,102
 1035.08496094 452.280273438 1035.08496094 452.280273438 1103.14257812 393.397460938 c 0,103,104
 1124.62109375 374.673828125 1124.62109375 374.673828125 1167.30273438 390.97265625 c 0,105,106
 1181.44140625 396.27734375 1181.44140625 396.27734375 1176.67773438 443.645507812 c 0,107,108
 1165.28417969 555.252929688 1165.28417969 555.252929688 1138.86914062 804.31640625 c 128,-1,109
 1112.50097656 1053.4296875 1112.50097656 1053.4296875 1099.16601562 1185.921875 c 0,110,111
 1098.828125 1189.55664062 1098.828125 1189.55664062 1091.30859375 1368.24707031 c 0,56,57
EndSplineSet
EndChar

StartChar: O
Encoding: 79 79 50
Width: 1321
GlyphClass: 2
Flags: W
LayerCount: 2
Fore
SplineSet
664.32421875 258.47265625 m 0,0,1
 1045.04589844 276.145507812 1045.04589844 276.145507812 999.595703125 973.498046875 c 0,2,3
 989.767578125 1125.76855469 989.767578125 1125.76855469 752.41015625 1125.76855469 c 0,4,5
 329.651367188 1125.26074219 329.651367188 1125.26074219 387.145507812 641.36328125 c 0,6,7
 434.349609375 246.245117188 434.349609375 246.245117188 664.32421875 258.47265625 c 0,0,1
741.633546246 1394.82428772 m 0,8,9
 755.835913698 1394.82428772 755.835913698 1394.82428772 770.359375 1394.41015625 c 0,10,11
 950.0390625 1389.2890625 950.0390625 1389.2890625 1083.85253906 1208.50195312 c 128,-1,12
 1217.66601562 1027.76171875 1217.66601562 1027.76171875 1214.48144531 794.603515625 c 0,13,14
 1203.17763802 10.7657999093 1203.17763802 10.7657999093 600.618394853 10.707184166 c 0,15,16
 593.270637643 10.707184166 593.270637643 10.707184166 585.834960938 10.8251953125 c 0,17,18
 394.943359375 13.7783203125 394.943359375 13.7783203125 251.578125 203.931640625 c 128,-1,19
 108.213867188 394.131835938 108.213867188 394.131835938 114.211914062 636.564453125 c 0,20,21
 132.42684731 1394.78430843 132.42684731 1394.78430843 741.633546246 1394.82428772 c 0,8,9
EndSplineSet
EndChar

StartChar: P
Encoding: 80 80 51
Width: 1221
GlyphClass: 2
Flags: W
LayerCount: 2
Fore
SplineSet
391.072967016 842.837726763 m 0,0,1
 408.760011946 804.346091661 408.760011946 804.346091661 426.771484375 764.876953125 c 1,2,3
 597.57421875 728.493164062 597.57421875 728.493164062 827.862304688 868.106445312 c 0,4,5
 927.208984375 928.28125 927.208984375 928.28125 923.672851562 1049.99316406 c 0,6,7
 921.221003844 1132.23019135 921.221003844 1132.23019135 880.134576231 1173.77975095 c 0,8,9
 829.050877196 1225.62595563 829.050877196 1225.62595563 718.252929688 1214.38867188 c 0,10,11
 586.83203125 1201.09472656 586.83203125 1201.09472656 450.9453125 1161.83789062 c 0,12,13
 413.161132812 1150.76367188 413.161132812 1150.76367188 397.341796875 1080.7578125 c 0,14,15
 393.235351562 1062.58691406 393.235351562 1062.58691406 372.715820312 882.713867188 c 0,16,17
 372.72607912 882.691624233 372.72607912 882.691624233 372.736338547 882.669380886 c 128,-1,18
 372.730962552 882.622293672 372.730962552 882.622293672 372.725585938 882.575195312 c 0,19,20
 380.907534773 864.937708796 380.907534773 864.937708796 391.072967016 842.837726763 c 0,0,1
632.282226562 599.794921875 m 0,21,22
 624.72265625 596.65625 624.72265625 596.65625 513.115234375 578.208007812 c 0,23,24
 508.874671377 578.348434201 508.874671377 578.348434201 504.766613868 578.348434201 c 0,25,26
 377.404821655 578.348434201 377.404821655 578.348434201 377.404821655 443.37322133 c 0,27,28
 377.404821655 441.856750668 377.404821655 441.856750668 377.420898438 440.323242188 c 0,29,30
 379.821025576 198.303232765 379.821025576 198.303232765 315.182645146 86.2515249874 c 0,31,32
 311.046398324 79.0858256371 311.046398324 79.0858256371 306.635742188 72.443359375 c 0,33,34
 277.08864379 28.377422312 277.08864379 28.377422312 248.92129921 16.872551168 c 0,35,36
 236.481572943 11.848922454 236.481572943 11.848922454 224.208007812 13.072265625 c 0,37,38
 169.67578125 18.0849609375 169.67578125 18.0849609375 156.624023438 87.5986328125 c 0,39,40
 149.277625272 127.42375363 149.277625272 127.42375363 146.227869407 172.637806678 c 0,41,42
 142.347468084 230.298770252 142.347468084 230.298770252 145.4453125 296.899414062 c 0,43,44
 156.725585938 545.29296875 156.725585938 545.29296875 101.3515625 637.142578125 c 0,45,46
 101.096705019 637.563742287 101.096705019 637.563742287 101.096705019 639.265319067 c 0,47,48
 101.096705019 658.03685399 101.096705019 658.03685399 132.11328125 832.63671875 c 0,49,50
 168.65234375 1037.85644531 168.65234375 1037.85644531 169.740234375 1063.87304688 c 0,51,52
 172.841796875 1096.40527344 172.841796875 1096.40527344 163.59765625 1183.74609375 c 128,-1,53
 154.353515625 1271.08886719 154.353515625 1271.08886719 153.73046875 1304.02050781 c 0,54,55
 150.473632812 1467.32519531 150.473632812 1467.32519531 286.569335938 1412.58007812 c 0,56,57
 387.201567142 1372.0456421 387.201567142 1372.0456421 552.984498738 1407.03210121 c 0,58,59
 589.735299683 1414.78398297 589.735299683 1414.78398297 629.673828125 1426.25097656 c 0,60,61
 833.840820312 1484.58105469 833.840820312 1484.58105469 1018 1311 c 0,62,63
 1151.49725638 1185.35074668 1151.49725638 1185.35074668 1114.82845389 984.14005584 c 0,64,65
 1110.48483346 960.314504751 1110.48483346 960.314504751 1103.7578125 935.426757812 c 0,66,67
 1074.89648438 827.971679688 1074.89648438 827.971679688 962.502929688 755.411132812 c 0,68,69
 888.009765625 707.4375 888.009765625 707.4375 632.282226562 599.794921875 c 0,21,22
EndSplineSet
EndChar

StartChar: Q
Encoding: 81 81 52
Width: 1498
GlyphClass: 2
Flags: W
LayerCount: 2
Fore
SplineSet
112 545 m 0,0,1
 130 1044 130 1044 278.456054688 1191.54980469 c 0,2,3
 330 1243 330 1243 519.950195312 1362.35742188 c 0,4,5
 551 1382 551 1382 653.188476562 1407.49511719 c 0,6,7
 736 1428 736 1428 773.6328125 1426.55273438 c 0,8,9
 923 1421 923 1421 1015.04589844 1371.65039062 c 0,10,11
 1201 1274 1201 1274 1246.64648438 1228.1640625 c 0,12,13
 1319 1155 1319 1155 1353.08984375 985.47265625 c 0,14,15
 1356 971 1356 971 1361.55761719 942.10546875 c 0,16,17
 1367 913 1367 913 1370.17675781 897.73046875 c 0,18,19
 1430 573 1430 573 1309.52636719 321.884765625 c 0,20,21
 1300 302 1300 302 1250.20507812 252.25 c 0,22,23
 1192 194 1192 194 1190.82128906 188.391601562 c 0,24,25
 1187 172 1187 172 1247.359375 84.56640625 c 0,26,27
 1294 17 1294 17 1290 0 c 0,28,29
 1282 -35 1282 -35 1272 -47 c 0,30,31
 1192 -132 1192 -132 1116 -113 c 0,32,33
 1092 -107 1092 -107 1026.10205078 -20.900390625 c 0,34,35
 985 32 985 32 964.66015625 33.5078125 c 0,36,37
 959 34 959 34 834.966796875 20.8408203125 c 0,38,39
 734 10 734 10 685.958007812 10.4111328125 c 0,40,41
 491 13 491 13 298.663085938 121.166015625 c 0,42,43
 209 171 209 171 154.609375 366.776367188 c 0,44,45
 142 413 142 413 141.373046875 414.993164062 c 0,46,47
 131 448 131 448 124.50390625 469.145507812 c 0,48,49
 111 515 111 515 112 545 c 0,0,1
529.389648438 1085.578125 m 0,50,51
 163.522460938 668.625 163.522460938 668.625 505.283203125 300.229492188 c 0,52,53
 709.436523438 210.040039062 709.436523438 210.040039062 814.80859375 267.637695312 c 0,54,55
 811.09765625 286.741210938 811.09765625 286.741210938 791.48046875 326.35546875 c 128,-1,56
 771.862304688 365.96875 771.862304688 365.96875 767.752929688 387.12890625 c 0,57,58
 833.6328125 505.54296875 833.6328125 505.54296875 936.767578125 505.323242188 c 0,59,60
 964.965820312 488.770507812 964.965820312 488.770507812 999.626953125 444.86328125 c 128,-1,61
 1034.24316406 400.956054688 1034.24316406 400.956054688 1056.44433594 383.403320312 c 0,62,63
 1186.06542969 493.178710938 1186.06542969 493.178710938 1184.15917969 569.610351562 c 0,64,65
 1173.32910156 954.098632812 1173.32910156 954.098632812 1028.64160156 1091.00195312 c 0,66,67
 971.9296875 1155.3828125 971.9296875 1155.3828125 905.669921875 1179.35742188 c 0,68,69
 831.192382812 1201.59960938 831.192382812 1201.59960938 766.80859375 1194.43847656 c 0,70,71
 621.497070312 1169.11230469 621.497070312 1169.11230469 529.389648438 1085.578125 c 0,50,51
EndSplineSet
EndChar

StartChar: R
Encoding: 82 82 53
Width: 1278
GlyphClass: 2
Flags: W
LayerCount: 2
Fore
SplineSet
95.517578125 434.02734375 m 0,0,1
 133.240234375 1131.88085938 133.240234375 1131.88085938 135 1203 c 0,2,3
 140.924804688 1435.7890625 140.924804688 1435.7890625 377.56640625 1429.65625 c 0,4,5
 432.541015625 1428.26074219 432.541015625 1428.26074219 568.098632812 1443.14648438 c 128,-1,6
 703.659179688 1458.08398438 703.659179688 1458.08398438 775.010742188 1449.34667969 c 0,7,8
 984.231445312 1423.95703125 984.231445312 1423.95703125 1116.37304688 1244.95507812 c 128,-1,9
 1248.46484375 1065.95605469 1248.46484375 1065.95605469 1153.87207031 895.802734375 c 0,10,11
 1127.97070312 849.21875 1127.97070312 849.21875 997.424804688 738.95703125 c 0,12,13
 895.85546875 653.20703125 895.85546875 653.20703125 942.11328125 544.1640625 c 0,14,15
 1048.34765625 293.060546875 1048.34765625 293.060546875 1060.06738281 196.712890625 c 0,16,17
 1074.5703125 73.83203125 1074.5703125 73.83203125 942.474609375 11.0810546875 c 0,18,19
 899.532226562 -9.4208984375 899.532226562 -9.4208984375 831.629882812 44.318359375 c 0,20,21
 776.784179688 87.591796875 776.784179688 87.591796875 747.883789062 152.895507812 c 128,-1,22
 719.037109375 218.247070312 719.037109375 218.247070312 698.228515625 302.532226562 c 128,-1,23
 677.366210938 386.768554688 677.366210938 386.768554688 656.021484375 431.02734375 c 0,24,25
 587.123046875 573.569335938 587.123046875 573.569335938 544.780273438 582.009765625 c 0,26,27
 429.447265625 604.611328125 429.447265625 604.611328125 403.801757812 432.969726562 c 0,28,29
 399.8203125 406.344726562 399.8203125 406.344726562 393.6328125 307.865234375 c 128,-1,30
 387.493164062 209.330078125 387.493164062 209.330078125 372.291992188 159.422851562 c 0,31,32
 327.139648438 12.4716796875 327.139648438 12.4716796875 250.897460938 4.0888671875 c 0,33,34
 150.448242188 12.4150390625 150.448242188 12.4150390625 110.201171875 166.829101562 c 0,35,36
 89.1923828125 247.4140625 89.1923828125 247.4140625 95.8251953125 370.118164062 c 2,37,-1
 95.517578125 434.02734375 l 0,0,1
607.436523438 1186.26074219 m 0,38,39
 441.375 1193.03417969 441.375 1193.03417969 436.9453125 864.568359375 c 0,40,41
 436.029296875 822.99609375 436.029296875 822.99609375 478.250976562 820.958984375 c 0,42,43
 873.626953125 802.317382812 873.626953125 802.317382812 873.70703125 1023.89941406 c 0,44,45
 874.388671875 1174.06640625 874.388671875 1174.06640625 607.436523438 1186.26074219 c 0,38,39
EndSplineSet
EndChar

StartChar: S
Encoding: 83 83 54
Width: 1282
GlyphClass: 2
Flags: W
LayerCount: 2
Fore
SplineSet
394.290039062 1303.01269531 m 0,0,1
 872 1275 872 1275 911.583007812 1271.21875 c 0,2,3
 1085 1253 1085 1253 1046.4375 1061.34570312 c 0,4,5
 1027 963 1027 963 954.505859375 1016.53710938 c 0,6,7
 928 1036 928 1036 681.03125 1075.42675781 c 0,8,9
 633 1083 633 1083 488.7265625 1057.46582031 c 0,10,11
 410 1043 410 1043 469.043945312 997.383789062 c 0,12,13
 513 964 513 964 659.180664062 871.190429688 c 0,14,15
 1029 637 1029 637 1031.47949219 634.98828125 c 0,16,17
 1184 517 1184 517 1161.84960938 333.149414062 c 0,18,19
 1140 149 1140 149 965.454101562 72.76171875 c 0,20,21
 592 -91 592 -91 250.520507812 143.185546875 c 0,22,23
 207 173 207 173 166.641601562 274.759765625 c 0,24,25
 156 302 156 302 215.522460938 348.5859375 c 128,-1,26
 275 395 275 395 304.6171875 383.216796875 c 0,27,28
 372 357 372 357 388.043945312 330.65234375 c 0,29,30
 450 230 450 230 580.19921875 240.049804688 c 0,31,32
 747 253 747 253 857.229492188 282.655273438 c 0,33,34
 934 303 934 303 886.12890625 398.76953125 c 0,35,36
 796 579 796 579 481.92578125 699.947265625 c 0,37,38
 300 770 300 770 116.8984375 1007.18164062 c 0,39,40
 90 1042 90 1042 119.454101562 1128.31542969 c 0,41,42
 149 1214 149 1214 197 1239 c 0,43,44
 330 1307 330 1307 394.290039062 1303.01269531 c 0,0,1
394.290039062 1303.01269531 m 0,45,46
 867 1275 867 1275 911.079101562 1271.02246094 c 0,47,48
 1085 1253 1085 1253 1045.93554688 1061.14746094 c 0,49,50
 1026 961 1026 961 954.001953125 1016.33886719 c 0,51,52
 925 1038 925 1038 680.52734375 1075.23046875 c 0,53,54
 628 1083 628 1083 488.224609375 1057.26757812 c 0,55,56
 410 1043 410 1043 468.540039062 997.1875 c 0,57,58
 513 963 513 963 658.677734375 870.993164062 c 0,59,60
 1026 638 1026 638 1030.97753906 634.791992188 c 0,61,62
 1184 517 1184 517 1161.34570312 332.953125 c 0,63,64
 1139 149 1139 149 964.94921875 72.6103515625 c 0,65,66
 588 -93 588 -93 250.018554688 142.989257812 c 0,67,68
 204 175 204 175 166.138671875 274.563476562 c 0,69,70
 156 302 156 302 215.063476562 348.483398438 c 0,71,72
 275 395 275 395 304.11328125 383.01953125 c 0,73,74
 372 356 372 356 387.540039062 330.500976562 c 0,75,76
 450 230 450 230 579.650390625 239.850585938 c 0,77,78
 746 253 746 253 856.727539062 282.45703125 c 0,79,80
 933 302 933 302 885.578125 398.618164062 c 0,81,82
 797 577 797 577 481.422851562 699.75 c 0,83,84
 295 772 295 772 116.393554688 1007.03027344 c 0,85,86
 90 1042 90 1042 118.99609375 1128.2109375 c 0,87,88
 149 1214 149 1214 196.497070312 1238.84960938 c 0,89,90
 329 1307 329 1307 394.290039062 1303.01269531 c 0,45,46
EndSplineSet
EndChar

StartChar: T
Encoding: 84 84 55
Width: 1303
GlyphClass: 2
Flags: W
LayerCount: 2
Fore
SplineSet
329.955078125 1171.81542969 m 1,0,1
 195.640625 1167.08984375 195.640625 1167.08984375 186.567382812 1167.79980469 c 0,2,3
 59.08984375 1177.39257812 59.08984375 1177.39257812 67.91796875 1289.84570312 c 0,4,5
 75.6064453125 1391.39355469 75.6064453125 1391.39355469 198 1393 c 0,6,7
 742.166015625 1399.95703125 742.166015625 1399.95703125 867.412109375 1398.37597656 c 0,8,9
 954.631835938 1397.29492188 954.631835938 1397.29492188 1146.95996094 1365.92480469 c 0,10,11
 1232.65332031 1351.96582031 1232.65332031 1351.96582031 1219.51367188 1260.24316406 c 0,12,13
 1205.72753906 1164.29589844 1205.72753906 1164.29589844 1120.05273438 1163.203125 c 0,14,15
 1003.15429688 1161.65039062 1003.15429688 1161.65039062 895.327148438 1169.31054688 c 0,16,17
 825.723632812 1174.11328125 825.723632812 1174.11328125 826.4453125 1115.36621094 c 0,18,19
 827.022460938 1067.79589844 827.022460938 1067.79589844 837.481445312 723.603515625 c 0,20,21
 839.806640625 684.37890625 839.806640625 684.37890625 839.307617188 674.69921875 c 0,22,23
 838.240234375 653.266601562 838.240234375 653.266601562 828.716796875 472.555664062 c 128,-1,24
 819.239257812 291.84375 819.239257812 291.84375 815.247070312 197.46875 c 0,25,26
 813.005859375 144.172851562 813.005859375 144.172851562 737.984375 73.20703125 c 128,-1,27
 663.01171875 2.2861328125 663.01171875 2.2861328125 614.6640625 11.8916015625 c 0,28,29
 569.5390625 21.20703125 569.5390625 21.20703125 566.017578125 64.8583984375 c 0,30,31
 558.766601562 152.764648438 558.766601562 152.764648438 556.772460938 337.036132812 c 0,32,33
 556.140625 391.440429688 556.140625 391.440429688 556.659179688 499.639648438 c 128,-1,34
 557.173828125 607.791015625 557.173828125 607.791015625 556.56640625 661.50390625 c 0,35,36
 555.9296875 717.15625 555.9296875 717.15625 552.874023438 855.987304688 c 128,-1,37
 549.81640625 994.818359375 549.81640625 994.818359375 549.541015625 1070.07910156 c 0,38,39
 549.35546875 1172.25195312 549.35546875 1172.25195312 451.75390625 1172.1484375 c 0,40,41
 437.99609375 1172.13476562 437.99609375 1172.13476562 330.01171875 1167.88964844 c 2,42,-1
 329.955078125 1171.81542969 l 1,0,1
329.955078125 1171.81542969 m 2,43,44
 194.392578125 1167.03710938 194.392578125 1167.03710938 186.885742188 1167.60449219 c 0,45,46
 59.4541015625 1177.2421875 59.4541015625 1177.2421875 68.234375 1289.65039062 c 0,47,48
 75.9248046875 1391.24511719 75.9248046875 1391.24511719 198.319335938 1392.85058594 c 0,49,50
 746.915039062 1399.75585938 746.915039062 1399.75585938 867.775390625 1398.22558594 c 0,51,52
 957.395507812 1397.06542969 957.395507812 1397.06542969 1147.32226562 1365.72753906 c 0,53,54
 1232.97167969 1351.81640625 1232.97167969 1351.81640625 1219.87695312 1260.046875 c 0,55,56
 1206 1164.10253906 1206 1164.10253906 1120.37207031 1163.05566406 c 0,57,58
 1005.921875 1161.56054688 1005.921875 1161.56054688 895.690429688 1169.16015625 c 0,59,60
 826.26953125 1173.86621094 826.26953125 1173.86621094 826.810546875 1115.21582031 c 0,61,62
 827.278320312 1070.00292969 827.278320312 1070.00292969 837.797851562 723.409179688 c 0,63,64
 840.029296875 684.140625 840.029296875 684.140625 839.624023438 674.50390625 c 0,65,66
 838.1328125 644.267578125 838.1328125 644.267578125 828.833984375 467.657226562 c 128,-1,67
 819.48828125 291.00390625 819.48828125 291.00390625 815.563476562 197.274414062 c 0,68,69
 813.322265625 143.977539062 813.322265625 143.977539062 738.303710938 73.05859375 c 128,-1,70
 663.328125 2.0908203125 663.328125 2.0908203125 615.026367188 11.6953125 c 0,71,72
 569.993164062 20.9619140625 569.993164062 20.9619140625 566.3359375 64.6630859375 c 0,73,74
 559.05078125 152.986328125 559.05078125 152.986328125 557.088867188 336.840820312 c 0,75,76
 556.581054688 389.348632812 556.581054688 389.348632812 557.055664062 497.640625 c 128,-1,77
 557.529296875 605.887695312 557.529296875 605.887695312 556.885742188 661.354492188 c 0,78,79
 556.26953125 717.653320312 556.26953125 717.653320312 553.203125 856.20703125 c 128,-1,80
 550.138671875 994.76171875 550.138671875 994.76171875 549.857421875 1069.88378906 c 0,81,82
 549.39453125 1172.06640625 549.39453125 1172.06640625 452.0703125 1171.95410156 c 0,83,84
 437.575195312 1171.96386719 437.575195312 1171.96386719 330.331054688 1167.74121094 c 2,85,-1
 329.955078125 1171.81542969 l 2,43,44
EndSplineSet
EndChar

StartChar: U
Encoding: 85 85 56
Width: 1499
GlyphClass: 2
Flags: W
LayerCount: 2
Fore
SplineSet
1038.48339844 842.721679688 m 0,0,1
 1018.31054688 1094.87011719 1018.31054688 1094.87011719 1021.38769531 1114.28027344 c 0,2,3
 1037.87011719 1216.64941406 1037.87011719 1216.64941406 1128.94238281 1330.40136719 c 0,4,5
 1164.26757812 1374.28710938 1164.26757812 1374.28710938 1266.44726562 1319.69238281 c 0,6,7
 1349.828125 1274.98144531 1349.828125 1274.98144531 1340.22949219 1124.7421875 c 0,8,9
 1332.90136719 1009.7734375 1332.90136719 1009.7734375 1326.61523438 779.348632812 c 128,-1,10
 1320.28515625 548.919921875 1320.28515625 548.919921875 1313 434 c 0,11,12
 1293.12011719 129.904296875 1293.12011719 129.904296875 1227.27734375 56.08203125 c 0,13,14
 1135.40039062 -47.0419921875 1135.40039062 -47.0419921875 1065.71386719 57.3681640625 c 0,15,16
 992.3203125 167.036132812 992.3203125 167.036132812 882.013671875 99.88671875 c 0,17,18
 668.486328125 -30.4208984375 668.486328125 -30.4208984375 433.053710938 75.49609375 c 128,-1,19
 197.620117188 181.413085938 197.620117188 181.413085938 172.2734375 424.768554688 c 0,20,21
 154.543945312 595.45703125 154.543945312 595.45703125 155.198242188 1203.52734375 c 0,22,23
 155.555664062 1285.859375 155.555664062 1285.859375 221.959960938 1295.38476562 c 0,24,25
 321.764648438 1309.80371094 321.764648438 1309.80371094 352.022460938 1255.61035156 c 0,26,27
 420.37109375 1132.625 420.37109375 1132.625 428.442382812 1019.58203125 c 0,28,29
 435.654296875 919.616210938 435.654296875 919.616210938 437.53515625 726.552734375 c 128,-1,30
 439.41796875 533.48828125 439.41796875 533.48828125 444.986328125 442.46484375 c 0,31,32
 451.255859375 340.388671875 451.255859375 340.388671875 560.0625 283.361328125 c 128,-1,33
 668.8203125 226.376953125 668.8203125 226.376953125 770.564453125 266.31640625 c 0,34,35
 1057.22460938 378.729492188 1057.22460938 378.729492188 1047.24511719 720.475585938 c 0,36,37
 1047.03515625 727.7265625 1047.03515625 727.7265625 1038.48339844 842.721679688 c 0,0,1
1038.48339844 842.721679688 m 0,38,39
 1018.37011719 1094.1328125 1018.37011719 1094.1328125 1021.5859375 1114.11035156 c 0,40,41
 1037.98046875 1216.42675781 1037.98046875 1216.42675781 1129.13769531 1330.27832031 c 0,42,43
 1164.26757812 1374.28710938 1164.26757812 1374.28710938 1266.59863281 1319.51953125 c 0,44,45
 1349.93066406 1274.85058594 1349.93066406 1274.85058594 1340.42773438 1124.57324219 c 0,46,47
 1333.09570312 1009.65136719 1333.09570312 1009.65136719 1326.76464844 779.221679688 c 128,-1,48
 1320.48046875 548.795898438 1320.48046875 548.795898438 1313.1484375 433.873046875 c 0,49,50
 1293.81933594 130.423828125 1293.81933594 130.423828125 1227.47070312 55.958984375 c 0,51,52
 1135.59570312 -47.166015625 1135.59570312 -47.166015625 1065.90917969 57.244140625 c 0,53,54
 992.48046875 166.771484375 992.48046875 166.771484375 882.166015625 99.7138671875 c 0,55,56
 668.681640625 -30.5439453125 668.681640625 -30.5439453125 433.245117188 75.41796875 c 128,-1,57
 197.80859375 181.380859375 197.80859375 181.380859375 172.46875 424.64453125 c 0,58,59
 154.713867188 595.654296875 154.713867188 595.654296875 155.346679688 1203.40136719 c 0,60,61
 155.338867188 1285.65722656 155.338867188 1285.65722656 222.159179688 1295.21582031 c 0,62,63
 322.087890625 1309.22753906 322.087890625 1309.22753906 352.221679688 1255.44238281 c 0,64,65
 420.5703125 1132.45507812 420.5703125 1132.45507812 428.641601562 1019.41210938 c 0,66,67
 435.73828125 919.716796875 435.73828125 919.716796875 437.659179688 726.748046875 c 128,-1,68
 439.580078125 533.780273438 439.580078125 533.780273438 445.181640625 442.342773438 c 0,69,70
 451.453125 340.21875 451.453125 340.21875 560.26171875 283.19140625 c 128,-1,71
 669.017578125 226.20703125 669.017578125 226.20703125 770.762695312 266.147460938 c 0,72,73
 1057.71679688 378.953125 1057.71679688 378.953125 1047.44238281 720.306640625 c 0,74,75
 1047.24609375 726.818359375 1047.24609375 726.818359375 1038.48339844 842.721679688 c 0,38,39
EndSplineSet
EndChar

StartChar: V
Encoding: 86 86 57
Width: 1317
GlyphClass: 2
Flags: W
LayerCount: 2
Fore
SplineSet
591.4140625 250.161132812 m 0,0,1
 660.581054688 229.8125 660.581054688 229.8125 688.682617188 307.33203125 c 0,2,3
 765.6015625 524.940429688 765.6015625 524.940429688 800.163085938 643.065429688 c 0,4,5
 860.978515625 849.645507812 860.978515625 849.645507812 963 1227 c 0,6,7
 969.64453125 1251.82421875 969.64453125 1251.82421875 975.55078125 1300.55078125 c 128,-1,8
 981.502929688 1349.27734375 981.502929688 1349.27734375 982.794921875 1357.21386719 c 0,9,10
 1010.34179688 1530.89453125 1010.34179688 1530.89453125 1018.46289062 1560.14941406 c 0,11,12
 1029.30664062 1599.32421875 1029.30664062 1599.32421875 1077.57226562 1603.10839844 c 128,-1,13
 1125.79101562 1606.89160156 1125.79101562 1606.89160156 1152.13867188 1569.74707031 c 0,14,15
 1200.26464844 1500.48730469 1200.26464844 1500.48730469 1199.57324219 1439.16308594 c 0,16,17
 1195.46582031 1111.36621094 1195.46582031 1111.36621094 1046.47167969 730.64453125 c 0,18,19
 1031.52148438 692.668945312 1031.52148438 692.668945312 1001.48242188 602.598632812 c 128,-1,20
 971.444335938 512.528320312 971.444335938 512.528320312 951.556640625 465.739257812 c 0,21,22
 919.580078125 390.434570312 919.580078125 390.434570312 848.3359375 242.916992188 c 0,23,24
 812.251953125 168.350585938 812.251953125 168.350585938 794.717773438 130.836914062 c 0,25,26
 784.012695312 108.180664062 784.012695312 108.180664062 770.954101562 63.560546875 c 0,27,28
 717.844726562 -118.37890625 717.844726562 -118.37890625 554.545898438 -15.1123046875 c 0,29,30
 522.984375 4.775390625 522.984375 4.775390625 499.913085938 9.296875 c 0,31,32
 342.797851562 40.4892578125 342.797851562 40.4892578125 329.5546875 194.005859375 c 0,33,34
 326.416992188 230.55078125 326.416992188 230.55078125 314.142578125 297.411132812 c 128,-1,35
 301.915039062 364.272460938 301.915039062 364.272460938 299.192382812 382.9140625 c 0,36,37
 284.057617188 487.103515625 284.057617188 487.103515625 282.8125 531.077148438 c 0,38,39
 281.2890625 584.46484375 281.2890625 584.46484375 160.2578125 1093.18652344 c 0,40,41
 108.116210938 1310.70214844 108.116210938 1310.70214844 106.31640625 1324.26855469 c 0,42,43
 95.8427734375 1405.75585938 95.8427734375 1405.75585938 171.193359375 1438.79394531 c 0,44,45
 218.904296875 1459.69726562 218.904296875 1459.69726562 288.625976562 1408.06347656 c 0,46,47
 397.9375 1327.22167969 397.9375 1327.22167969 425.346679688 1101.35351562 c 0,48,49
 429.129882812 1071.17675781 429.129882812 1071.17675781 454.693359375 997.39453125 c 0,50,51
 457.73828125 988.581054688 457.73828125 988.581054688 469.874023438 966.986328125 c 128,-1,52
 482.055664062 945.345703125 482.055664062 945.345703125 484.040039062 932.88671875 c 0,53,54
 498.021484375 841.84765625 498.021484375 841.84765625 522.107421875 672.642578125 c 128,-1,55
 546.147460938 503.391601562 546.147460938 503.391601562 556.760742188 432.424804688 c 0,56,57
 557.68359375 426.241210938 557.68359375 426.241210938 591.4140625 250.161132812 c 0,0,1
591.4140625 250.161132812 m 0,58,59
 660.765625 229.766601562 660.765625 229.766601562 688.174804688 307.147460938 c 0,60,61
 764.40234375 522.44921875 764.40234375 522.44921875 799.655273438 642.880859375 c 0,62,63
 865.961914062 868.42578125 865.961914062 868.42578125 962.4921875 1226.81542969 c 0,64,65
 969.13671875 1251.68652344 969.13671875 1251.68652344 975.088867188 1300.50488281 c 128,-1,66
 981.041992188 1349.32421875 981.041992188 1349.32421875 982.287109375 1357.02929688 c 0,67,68
 1009.83496094 1530.75683594 1009.83496094 1530.75683594 1017.95605469 1560.01074219 c 0,69,70
 1028.79882812 1599.04785156 1028.79882812 1599.04785156 1077.01855469 1602.87695312 c 128,-1,71
 1125.28320312 1606.66113281 1125.28320312 1606.66113281 1151.63085938 1569.5625 c 0,72,73
 1199.7578125 1500.30273438 1199.7578125 1500.30273438 1199.06542969 1438.97851562 c 0,74,75
 1194.77441406 1110.99707031 1194.77441406 1110.99707031 1045.96386719 730.459960938 c 0,76,77
 1031.33691406 693.083984375 1031.33691406 693.083984375 1001.20605469 602.829101562 c 128,-1,78
 971.075195312 512.57421875 971.075195312 512.57421875 951.048828125 465.5546875 c 0,79,80
 919.256835938 390.619140625 919.256835938 390.619140625 848.2890625 243.748046875 c 0,81,82
 811.8828125 168.489257812 811.8828125 168.489257812 794.209960938 130.65234375 c 0,83,84
 783.551757812 108.180664062 783.551757812 108.180664062 770.447265625 63.4228515625 c 0,85,86
 717.3828125 -118.563476562 717.3828125 -118.563476562 554.038085938 -15.296875 c 0,87,88
 523.21484375 4.2216796875 523.21484375 4.2216796875 499.405273438 9.1123046875 c 0,89,90
 342.290039062 40.3046875 342.290039062 40.3046875 329.046875 193.821289062 c 0,91,92
 325.909179688 230.366210938 325.909179688 230.366210938 313.681640625 297.2265625 c 128,-1,93
 301.407226562 364.041015625 301.407226562 364.041015625 298.685546875 382.775390625 c 0,94,95
 283.50390625 487.196289062 283.50390625 487.196289062 282.3046875 530.939453125 c 0,96,97
 280.782226562 584.41796875 280.782226562 584.41796875 159.75 1093.00195312 c 0,98,99
 106.778320312 1316.60839844 106.778320312 1316.60839844 105.809570312 1324.08398438 c 0,100,101
 95.3349609375 1405.61816406 95.3349609375 1405.61816406 170.685546875 1438.65625 c 0,102,103
 218.904296875 1459.69726562 218.904296875 1459.69726562 288.118164062 1407.92480469 c 0,104,105
 397.014648438 1327.22167969 397.014648438 1327.22167969 424.838867188 1101.16894531 c 0,106,107
 428.391601562 1071.73046875 428.391601562 1071.73046875 454.185546875 997.255859375 c 0,108,109
 457.184570312 988.442382812 457.184570312 988.442382812 469.413085938 966.801757812 c 128,-1,110
 481.640625 945.161132812 481.640625 945.161132812 483.532226562 932.702148438 c 0,111,112
 497.236328125 842.86328125 497.236328125 842.86328125 521.23046875 674.442382812 c 128,-1,113
 545.224609375 506.068359375 545.224609375 506.068359375 556.252929688 432.286132812 c 0,114,115
 561.974609375 396.43359375 561.974609375 396.43359375 577.155273438 321.821289062 c 0,116,117
 586.522460938 275.631835938 586.522460938 275.631835938 591.4140625 250.161132812 c 0,58,59
EndSplineSet
EndChar

